<svg width="600" height="600" viewBox="0 0 600 600" fill="none" xmlns="http://www.w3.org/2000/svg">
<g clip-path="url(#clip0_6754_42479)">
<path d="M300 600C465.685 600 600 465.685 600 300C600 134.315 465.685 0 300 0C134.315 0 0 134.315 0 300C0 465.685 134.315 600 300 600Z" fill="#EEF3FE"/>
<path d="M275.11 193.682C275.9 191.381 278.056 186.348 283.159 182.249C286.465 179.66 289.771 178.438 291.927 177.863C294.083 177.431 296.742 177 299.76 177C302.06 177 304.072 177.144 305.869 177.36C311.906 178.15 316.002 181.458 316.793 182.033C321.824 185.844 323.98 190.59 324.842 192.819C370.549 301.252 403.321 381.21 406.124 391.205C406.627 393.003 407.992 397.964 405.764 402.566C403.177 408.031 398.003 409.685 397.212 409.9C396.206 410.332 391.535 412.058 386.288 410.044C379.964 407.599 377.88 401.631 377.592 400.768C351.648 336.27 325.632 271.699 299.688 207.2C290.274 230.857 280.859 254.442 271.517 278.098C277.338 278.17 283.231 278.242 289.052 278.242C290.705 278.961 294.011 280.687 296.454 284.282C299.329 288.597 300.982 295.643 297.389 301.324C294.227 306.285 288.765 307.436 287.543 307.723C278.056 307.651 268.498 307.58 259.012 307.58L219.988 404.651C218.982 405.802 216.466 408.534 212.154 409.9C207.555 411.339 203.746 410.404 202.308 409.972C200.943 409.325 197.062 407.096 194.691 402.35C191.744 396.382 193.469 390.846 193.828 389.623L227.893 307.867C221.784 307.723 215.748 307.651 209.639 307.508C207.842 306.861 204.536 305.422 202.165 301.971C198.212 296.29 198.787 287.949 203.315 282.916C205.83 280.112 208.92 279.033 210.501 278.602C220.275 278.53 230.121 278.458 239.895 278.458C251.609 250.271 263.396 221.941 275.11 193.682Z" fill="#3B82F6"/>
<path d="M232.707 48.8593C231.564 44.5915 227.171 42.0474 222.94 43.3178C163.383 61.1963 111.805 99.2665 77.1662 151.107C41.0435 205.168 25.8061 270.518 34.2928 334.981C42.7794 399.444 74.4114 458.623 123.295 501.493C172.179 544.363 234.981 568 300 568C365.019 568 427.821 544.363 476.705 501.493C525.589 458.623 557.221 399.444 565.707 334.981C574.194 270.518 558.956 205.169 522.834 151.107C488.195 99.2665 436.617 61.1964 377.06 43.3178C372.829 42.0474 368.437 44.5916 367.293 48.8593L363.111 64.4687C361.967 68.7364 364.506 73.1101 368.732 74.3976C420.754 90.2452 465.79 123.621 496.094 168.974C527.882 216.548 541.291 274.056 533.822 330.783C526.354 387.511 498.518 439.588 455.5 477.314C412.482 515.04 357.217 535.84 300 535.84C242.783 535.84 187.518 515.039 144.5 477.314C101.482 439.588 73.6459 387.51 66.1776 330.783C58.7094 274.056 72.1183 216.548 103.906 168.974C134.21 123.621 179.247 90.2451 231.268 74.3976C235.494 73.11 238.033 68.7364 236.89 64.4686L232.707 48.8593Z" fill="#3B82F6"/>
<circle cx="300" cy="51" r="26" fill="#3B82F6"/>
</g>
<defs>
<clipPath id="clip0_6754_42479">
<rect width="600" height="600" fill="white"/>
</clipPath>
</defs>
</svg>
