<svg width="600" height="600" viewBox="0 0 600 600" fill="none" xmlns="http://www.w3.org/2000/svg">
<g clip-path="url(#clip0_6754_42526)">
<path d="M300 600C465.685 600 600 465.685 600 300C600 134.315 465.685 0 300 0C134.315 0 0 134.315 0 300C0 465.685 134.315 600 300 600Z" fill="#EEF3FE"/>
<path d="M431.717 250.82C432.881 248.048 433.874 245.653 434.724 240.714C436.007 233.147 436.931 227.685 434.393 222.542C433.574 220.873 433.03 220.401 430.271 218.143L430.18 218.07C428.216 216.465 425.531 214.271 421.456 210.5C413.629 203.261 409.706 199.632 407.383 194.979C404.08 188.386 391.289 181.286 385.054 179.158C371.298 174.471 358.257 175.932 343.162 177.633C342.522 177.704 341.879 177.776 341.234 177.848C339.488 178.043 337.722 178.241 335.934 178.417C328.446 179.181 320.91 183.523 314.839 187.021L314.769 187.062C312.447 188.407 310.316 189.636 308.405 190.54C318.715 190.562 329.506 192.057 337.871 197.155C351.882 205.697 354.731 223.22 355.662 239.229C355.929 243.818 355.611 249.177 355.275 254.845C354.525 267.525 353.676 281.899 360.303 283.766C365.999 285.38 382.455 292.571 401.608 302.303C402.107 302.557 403.335 302.495 403.92 302.457C410.671 301.655 415.731 294.972 418.752 290.979C422.496 286.044 424.05 281.463 424.979 278.718C426.122 275.363 426.363 273.475 426.721 270.68L426.723 270.663L426.737 270.56L426.751 270.452C426.974 268.701 427.231 266.715 427.744 264.007C429.035 257.241 430.459 253.831 431.714 250.826L431.717 250.82Z" fill="#3B82F6"/>
<path d="M365.541 309.073C366.175 308.1 365.761 306.767 364.658 306.392C361.784 305.417 359.087 304.642 356.95 304.282C348.873 302.932 342.565 307.687 340.495 309.251C338.537 310.727 338.48 310.98 338.33 311.652L338.329 311.653C337.977 313.278 337.412 315.159 334.868 318.624C330.081 325.17 326.847 327.201 324.488 328.675L324.467 328.688C322.791 329.746 321.766 330.393 320.454 332.491C319.38 334.235 319.407 335.922 319.614 339.928C319.725 341.941 319.855 344.436 319.773 347.511V348.191C319.763 351.527 319.692 354.221 319.58 356.409C319.519 357.583 320.606 358.52 321.699 358.073L321.781 358.039L321.823 358.022L321.889 357.994C321.927 357.978 321.964 357.962 322.001 357.946C322.075 357.915 322.148 357.884 322.222 357.852C323.295 357.385 324.517 356.855 327.269 356.431C343.04 354.041 345.313 353.548 347.535 352.066C350.225 350.28 350.453 348.223 350.708 343.742C350.943 339.459 351.246 334.121 354.956 327.781C356.003 325.982 357.252 323.677 358.569 321.235C361.275 316.244 363.549 312.129 365.541 309.073Z" fill="#3B82F6"/>
<path d="M302.303 378.868C301.959 379.312 301.559 379.518 300.978 379.548C299.329 379.614 298.171 379.211 297.405 378.291C295.778 376.322 295.998 372.363 296.377 370.05L303.045 368.28C303.568 371.793 303.814 376.91 302.303 378.868Z" fill="#3B82F6"/>
<path d="M302.613 358.123C302.607 356.984 302.729 355.895 302.841 354.927C302.91 354.405 302.979 353.745 302.997 353.302C301.852 353.131 300.052 353.508 298.674 353.803C297.985 353.961 297.344 354.099 296.715 354.188C296.405 354.796 296.418 356.83 296.426 358.111L296.426 358.173C296.426 358.353 296.427 358.533 296.428 358.714V358.716C296.43 359.077 296.432 359.441 296.426 359.806C296.423 360.098 296.412 360.398 296.4 360.703L296.4 360.704C296.392 360.916 296.384 361.129 296.379 361.344L296.375 361.445C296.348 362.118 296.311 363.056 296.344 363.696C298.682 363.736 300.461 363.736 302.544 362.981C302.68 362.276 302.659 360.811 302.644 359.735L302.639 359.392C302.629 359.067 302.624 358.737 302.618 358.406L302.613 358.123Z" fill="#3B82F6"/>
<path d="M290.502 376.823C290.179 380.224 289.124 384.43 285.917 385.069C284.475 385.363 283.778 384.932 283.338 384.52C281.172 382.524 280.828 376.493 281.13 372.177C282.572 372.203 284.462 371.882 286.701 371.449C288.066 371.18 289.426 370.879 290.507 370.631C290.632 372.23 290.722 374.509 290.502 376.823Z" fill="#3B82F6"/>
<path d="M281.755 367.139L288.989 364.615C289.015 361.762 289.015 357.067 288.822 354.928L284.249 355.176L284.098 355.155L284.09 355.155L284.082 355.155L284.068 355.154L284.059 355.153C284.049 355.153 284.039 355.152 284.03 355.151C284.009 355.149 283.989 355.147 283.968 355.147C283.701 355.147 283.603 355.234 283.555 355.276C283.412 355.397 282.908 355.962 282.784 357.8C282.611 360.414 282.121 364.346 281.755 367.139Z" fill="#3B82F6"/>
<path d="M277.299 362.376C276.891 363.46 276.408 366.528 276.106 368.687L267.044 368.413C267.556 365.62 268.263 362.78 269.043 360.514C269.83 358.265 270.678 356.577 271.457 356.102C272.366 355.559 274.368 355.437 275.595 356.479C277.588 358.17 278.139 360.105 277.299 362.376Z" fill="#3B82F6"/>
<path d="M271.468 391.518C272.436 391.416 273.215 390.93 273.917 389.975C276.703 386.2 276.621 377.303 276.332 373.855C274.408 373.966 270.352 374.691 266.594 375.543L266.592 375.622C266.488 379.77 266.275 388.24 269.104 390.837C269.716 391.408 270.482 391.628 271.468 391.518Z" fill="#3B82F6"/>
<path d="M261.919 368.625C261.539 369.632 261.179 370.584 260.897 371.438C259.842 371.768 256.622 371.48 253.333 370.757L255.594 356.568C259.31 355.587 263.619 355.271 264.661 356.371C266.034 357.821 263.278 365.079 262.09 368.173L261.919 368.625Z" fill="#3B82F6"/>
<path d="M249.918 395.268C253.594 395.306 256.229 394.299 257.986 392.144C260.218 389.385 260.653 385.091 260.518 381.646C260.47 380.518 260.366 379.485 260.242 378.632L247.967 377.899C245.966 382.744 243.968 390.326 246.008 393.544C246.464 394.263 247.374 395.224 249.918 395.268Z" fill="#3B82F6"/>
<path d="M226.787 277.109C226.792 277.103 226.796 277.098 226.8 277.092C226.726 277.08 226.649 277.072 226.575 277.065L226.554 277.063L226.368 277.05C225.581 276.939 224.858 276.892 224.216 276.892C222.597 276.892 221.465 277.2 221.064 277.796C219.967 279.408 219.657 281.549 219.196 284.788L219.173 284.942C218.867 287.049 218.489 289.651 217.783 292.679C217.645 293.269 217.59 293.633 217.534 294.1C217.266 296.242 216.845 298.106 213.418 305.971C212.117 308.949 212.414 310.279 212.868 312.309L212.871 312.324C212.954 312.675 213.031 313.026 213.1 313.382C213.38 314.149 215.395 315.592 216.712 316.222C215.761 309.684 217.884 304.826 219.511 301.121C220.028 299.942 220.476 298.919 220.752 298.027C221.146 296.694 221.167 295.55 221.193 294.123L221.194 294.061C221.237 291.283 221.29 287.831 224.049 281.731C225.06 279.48 225.911 278.308 226.656 277.282L226.689 277.237C226.708 277.21 226.729 277.183 226.75 277.157L226.765 277.138C226.773 277.128 226.78 277.119 226.787 277.109Z" fill="#3B82F6"/>
<path d="M247.382 214.158C248.174 212.161 248.911 210.323 249.526 208.841C248.161 209.097 246.857 209.569 245.786 210.31C243.392 211.937 242.682 213.886 241.179 218.53L241.157 218.598C239.765 222.862 237.865 228.681 233.206 236.488C232.565 237.564 231.979 238.532 231.433 239.424C228.708 243.884 227.783 245.503 228.101 246.985C228.528 248.973 232.3 250.553 234.603 250.806C233.755 246.313 233.988 242.18 235.292 238.482C236.028 236.396 236.999 234.891 238.212 233.009L238.258 232.938L238.341 232.81C239.409 231.163 240.736 229.115 242.43 225.918C243.437 224.019 245.534 218.781 247.382 214.158Z" fill="#3B82F6"/>
<path fill-rule="evenodd" clip-rule="evenodd" d="M359.426 289.156C348.376 286.041 349.327 269.964 350.247 254.425C350.573 248.926 350.88 243.727 350.629 239.476C349.78 224.931 347.324 209.091 335.566 201.92C322.92 194.225 302.233 195.979 289.469 197.595C289.463 197.596 289.457 197.598 289.452 197.6C289.446 197.602 289.44 197.605 289.434 197.605C289.429 197.605 289.424 197.606 289.42 197.608C284.744 199.017 280.371 199.931 276.98 199.752C269.47 199.365 263.62 196.227 258.47 193.463L258.429 193.441C254.402 191.27 250.89 189.395 247.582 189.395C247.408 189.395 247.225 189.395 247.044 189.403C237.15 190.041 232.601 192.447 228.469 196.115C227.43 197.03 226.163 199.681 222.015 211.575C219.942 217.526 219.542 220.809 219.156 223.976L219.144 224.071L219.14 224.11C218.791 227.017 218.432 230.015 216.878 234.475C215.825 237.472 215.04 240.07 214.285 242.57L214.214 242.804C212.168 249.635 210.551 255.015 205.693 261.413C205.172 262.105 204.537 263.093 203.808 264.226L203.599 264.552L203.486 264.729C202.403 266.425 201.073 268.51 199.334 270.911C198.064 272.662 195.149 279.216 195.308 281.212C195.543 284.343 196.554 286.303 197.719 288.562L197.773 288.665L197.79 288.698C198.968 290.961 200.303 293.524 200.548 297.058L200.588 297.632C201.022 303.263 200.214 306.088 189.45 315.656C182.568 321.783 177.679 327.687 174.381 332.019C174.09 332.401 174.468 332.969 174.949 332.931C175.06 332.915 175.171 332.907 175.275 332.907C175.482 332.891 175.688 332.883 175.892 332.883C176.099 332.883 176.306 332.891 176.51 332.899C176.717 332.907 176.915 332.923 177.12 332.954C179.723 333.25 182.26 334.345 184.092 336.233C184.41 336.561 184.905 336.65 185.331 336.481C187.083 335.755 189.01 335.874 190.85 336.045C193.038 336.248 195.249 336.883 196.757 338.234C197.331 338.749 198.119 339.021 198.876 338.867C200.589 338.517 202.374 338.576 204.033 339.176C205.264 339.632 206.32 340.325 207.184 341.194C207.999 342.013 209.379 342.176 210.385 341.605C210.787 341.377 211.221 341.181 211.691 341.022C214.029 340.233 216.613 340.682 218.882 341.494C219.045 341.553 219.209 341.61 219.373 341.668C220.338 342.005 221.319 342.349 222.179 342.921C223.843 344.023 224.924 345.584 225.65 347.343C226.208 348.693 228.064 349.154 229.255 348.301C230.686 347.277 231.866 347.145 233.057 347.671C233.55 347.892 233.934 348.173 234.229 348.511C235.082 349.49 236.453 350.465 237.72 350.167C241.25 349.337 245.523 349.887 248.658 351.558C249.816 352.165 250.955 353.087 251.787 354.483L251.788 354.484L251.789 354.486L251.789 354.487C251.79 354.492 251.797 354.49 251.798 354.485L251.893 353.864C251.936 353.583 252.137 353.351 252.41 353.267L253.17 353.033C254.962 352.466 264.093 349.847 267.644 353.568C267.798 353.721 268.066 353.736 268.213 353.576C268.697 353.05 269.09 352.76 269.341 352.616C271.655 351.221 275.62 351.134 278.26 353.381C278.791 353.825 279.652 353.663 280.052 353.1C280.299 352.752 280.579 352.447 280.892 352.183C281.82 351.387 282.994 351.007 284.293 351.086L289.31 350.817C290.572 350.748 294.492 350.483 295.728 350.223C295.822 350.203 295.918 350.186 296.016 350.171C296.461 350.104 296.976 349.996 297.521 349.883L297.544 349.878L297.808 349.823C300.241 349.296 303.001 348.702 305.267 349.744C307.446 350.746 307.17 353.215 306.908 355.39L306.899 355.466C306.798 356.326 306.693 357.222 306.701 358.073C306.717 358.482 306.725 358.893 306.732 359.312L306.735 359.45C306.766 361.273 306.795 362.954 306.432 364.253C306.431 364.256 306.43 364.259 306.43 364.262L306.431 364.265L306.431 364.267L306.431 364.269L306.661 365.299C306.901 366.313 307.989 366.884 308.879 366.337C310.573 365.295 312.318 363.98 312.875 363.201C312.927 363.13 312.966 363.051 312.997 362.969C313.075 362.759 313.211 362.326 313.362 361.451C313.672 359.597 314.019 355.828 314.051 348.175C314.051 347.771 314.051 347.481 314.059 347.347C314.122 344.506 314.011 342.227 313.9 340.215L313.899 340.19C313.692 336.053 313.53 332.795 315.596 329.478C317.601 326.26 319.549 325.032 321.42 323.853L321.446 323.837C323.633 322.474 326.1 320.925 330.254 315.255C332.292 312.462 332.544 311.336 332.743 310.437C333.193 308.329 333.893 307.061 337.039 304.695L337.052 304.685C339.626 302.75 347.41 296.897 357.905 298.653C361.352 299.236 366.94 301.065 372.456 303.227C372.459 303.228 372.461 303.229 372.464 303.229C372.466 303.229 372.467 303.229 372.468 303.229L372.47 303.23C372.668 303.288 372.872 303.356 373.06 303.451C373.145 303.495 373.234 303.54 373.325 303.576C378.092 305.47 382.733 307.578 385.804 309.294C386.678 309.783 387.79 309.491 388.428 308.721C389.377 307.576 390.406 306.878 391.509 306.219L391.592 306.169C391.994 305.924 392.314 305.73 392.618 305.471C393.653 304.596 393.642 302.763 392.436 302.146C377.759 294.644 364.001 290.45 359.426 289.156ZM254.124 292.54C250.707 307.425 227.533 323.784 217 323.784H216.793C216.626 323.776 216.443 323.761 216.247 323.729C216.049 323.697 215.834 323.65 215.606 323.587C215.581 323.58 215.557 323.572 215.531 323.565L215.466 323.545L215.465 323.545C215.435 323.536 215.405 323.526 215.374 323.517C215.335 323.506 215.296 323.494 215.256 323.484C213.345 322.885 210.697 321.424 208.693 319.462C207.315 318.114 206.228 316.526 205.886 314.815C205.854 314.665 205.823 314.515 205.791 314.366C205.759 314.216 205.727 314.066 205.695 313.915C205.125 311.384 204.418 308.221 206.663 303.047C206.909 302.496 207.133 301.974 207.343 301.486C207.397 301.36 207.451 301.235 207.503 301.114C207.559 300.976 207.618 300.837 207.676 300.703C207.701 300.645 207.726 300.587 207.75 300.531C207.988 299.972 208.2 299.457 208.391 298.993C208.709 298.205 208.969 297.535 209.183 296.965C209.271 296.743 209.351 296.53 209.422 296.335C210.056 294.565 210.141 293.89 210.227 293.205L210.23 293.18C210.242 293.104 210.253 293.024 210.265 292.942C210.335 292.444 210.421 291.839 210.612 291.026C211.269 288.233 211.611 285.867 211.914 283.76C212.452 279.973 212.921 276.7 214.972 273.696C215.322 273.184 215.709 272.717 216.147 272.308C216.298 272.166 216.441 272.031 216.597 271.897C216.739 271.777 216.881 271.67 217.02 271.564L217.021 271.563L217.072 271.525C217.57 271.177 218.103 270.871 218.68 270.61C218.879 270.523 219.078 270.436 219.274 270.365C219.68 270.214 220.107 270.088 220.552 269.977C222.439 269.521 224.665 269.45 227.226 269.771C230.025 269.993 232.617 270.52 234.915 271.158C236.834 271.686 238.547 272.303 239.996 272.878C240.148 272.933 240.291 272.989 240.434 273.052C240.712 273.163 240.98 273.274 241.242 273.392C241.58 273.533 241.892 273.669 242.188 273.797L242.345 273.864C242.666 274.011 242.968 274.145 243.247 274.27C243.36 274.32 243.469 274.369 243.575 274.416L243.917 274.574C245.533 275.307 246.923 276.111 248.11 276.956C248.696 277.383 249.244 277.815 249.735 278.256C249.902 278.398 250.061 278.548 250.209 278.707C250.368 278.857 250.519 279.007 250.66 279.158C255.113 283.823 254.893 289.219 254.124 292.54ZM264.864 236.124L264.413 238.822C263.375 244.904 260.989 253.24 252.189 255.387C243.723 257.447 241.717 257.887 235.692 258.156C235.557 258.172 235.414 258.172 235.27 258.172C230.87 258.172 222.404 255.411 220.904 248.548C219.948 244.147 221.889 240.953 225.093 235.679L225.129 235.62L225.281 235.373C225.776 234.568 226.306 233.708 226.866 232.756C231.125 225.617 232.807 220.446 234.155 216.3L234.16 216.286C235.475 212.232 236.569 208.88 239.384 206.103C240.034 205.457 240.771 204.847 241.627 204.264C242.173 203.893 242.745 203.563 243.347 203.254C244.147 202.859 244.987 202.513 245.868 202.237C247.826 201.614 249.941 201.297 252.059 201.297C256.165 201.297 260.265 202.474 263.189 204.808C264.504 205.858 266.375 207.954 267.462 214.139C268.021 217.325 267.07 223.18 264.864 236.124ZM327.643 253.43L327.573 253.55C324.588 258.649 322.937 261.469 320.341 263.589C315.148 267.833 309.092 268.906 304.106 268.906C300.523 268.906 297.481 268.355 295.689 268.031L295.688 268.031L295.66 268.025C290.5 267.085 280.937 265.343 277.748 257.824C277.123 256.334 277.115 255.387 277.115 254.187C277.115 253.003 277.115 251.009 276.561 246.267L276.529 245.951C276.275 243.804 275.991 241.375 276.609 238.26L276.68 237.888C278.488 228.739 278.978 227.341 279.384 226.553C280.32 224.754 282.538 224.045 284.346 224.968C286.098 225.875 286.827 227.988 286.003 229.762C285.82 230.282 285.305 232.231 283.908 239.307L283.837 239.679C283.439 241.675 283.614 243.189 283.845 245.107L283.877 245.431C284.478 250.582 284.478 252.916 284.478 254.179C284.478 254.402 284.478 254.647 284.486 254.792C284.489 254.842 284.51 254.906 284.528 254.957L284.534 254.976C285.071 256.241 286.208 257.233 287.621 258.018C288.837 258.694 290.145 257.509 289.884 256.148C288.362 248.215 288.518 239.109 291.542 233.434C292.556 231.503 294.432 228.347 296.213 225.399C296.218 225.391 296.224 225.384 296.228 225.375C296.233 225.367 296.239 225.359 296.244 225.351L296.391 225.109C296.522 224.894 296.653 224.68 296.782 224.464C296.854 224.344 296.925 224.227 296.996 224.111L296.996 224.111L296.999 224.106C297.076 223.979 297.152 223.854 297.225 223.731C298.01 222.436 298.747 221.246 299.335 220.3C299.414 220.165 299.494 220.031 299.573 219.904C299.629 219.809 299.685 219.722 299.74 219.643C299.798 219.551 299.852 219.461 299.903 219.376C299.935 219.323 299.967 219.271 299.997 219.221C300.018 219.188 300.038 219.155 300.057 219.124L300.082 219.084C300.1 219.054 300.118 219.025 300.136 218.997C300.165 218.951 300.193 218.907 300.217 218.862C300.222 218.857 300.226 218.851 300.229 218.846C300.236 218.836 300.241 218.827 300.247 218.818L300.255 218.804C300.261 218.794 300.267 218.784 300.273 218.775C300.329 218.68 300.385 218.593 300.432 218.522L300.489 218.433L300.49 218.431C300.557 218.326 300.608 218.246 300.639 218.19C300.641 218.186 300.643 218.183 300.644 218.179L300.648 218.173C300.656 218.157 300.674 218.134 300.683 218.118C300.688 218.108 300.69 218.106 300.695 218.099L300.697 218.095C301.136 217.46 301.57 216.847 301.998 216.26C302.962 214.935 301.835 213.242 300.337 213.915C297.765 215.069 296.033 216.384 295.653 216.684C294.06 217.947 291.744 217.686 290.485 216.101C289.223 214.516 289.485 212.206 291.078 210.942C292.973 209.46 303.016 202.17 315.045 205.594C323.695 208.042 328.237 214.612 329.956 217.098L329.965 217.111L329.996 217.156C331.405 219.213 335.57 225.292 335.436 233.755C335.335 240.257 332.607 244.935 327.643 253.43Z" fill="#3B82F6"/>
<path d="M244.956 373.451C242.403 378.64 239.225 383.428 237.245 385.802C235.605 381.391 232.755 371.283 233.508 363.152C233.529 362.918 233.556 362.686 233.59 362.459C233.893 359.948 234.563 357.643 235.756 355.797C236.543 354.584 238.722 353.842 241.197 353.842C243.024 353.842 245.012 354.241 246.721 355.153H246.734C247.652 355.641 248.9 356.627 249.03 359.497C249.218 363.371 247.363 368.58 244.956 373.451Z" fill="#3B82F6"/>
<path d="M385.034 315.928C385.147 315.702 385.023 315.462 384.824 315.304C383.822 314.502 379.237 312.219 373.816 309.919C372.977 309.563 372 309.793 371.468 310.53C369.141 313.753 365.971 319.607 363.672 323.85L363.329 324.483C362.093 326.762 360.932 328.904 359.915 330.646C356.897 335.798 356.647 340.188 356.427 344.057L356.427 344.059L356.427 344.061C356.172 348.636 355.909 353.364 350.731 356.8C347.269 359.097 344.147 359.633 328.148 362.062C326.136 362.373 325.418 362.681 324.522 363.072C323.455 363.535 322.284 364.038 319.67 364.546C318.913 364.694 318.316 365.237 317.935 365.904L317.922 365.927L317.909 365.949C316.67 368.078 312.517 371.179 308.997 372.706C308.156 373.07 307.568 373.87 307.515 374.78C307.371 377.254 306.841 379.686 305.56 381.347C304.471 382.747 302.96 383.529 301.168 383.612C300.991 383.62 300.811 383.62 300.639 383.62H300.638C297.253 383.62 295.307 382.146 294.252 380.869C294.167 380.767 293.978 380.803 293.945 380.932C292.964 384.8 290.891 388.229 286.73 389.061C286.137 389.184 285.577 389.239 285.06 389.239C282.943 389.239 281.474 388.347 280.557 387.504C280.177 387.158 279.497 387.304 279.354 387.798C278.871 389.473 278.209 391.021 277.302 392.281C275.916 394.208 274.061 395.339 271.916 395.567C271.614 395.6 271.322 395.614 271.034 395.614C269.234 395.614 267.62 395.004 266.337 393.824C265.196 392.781 262.534 392.836 261.638 394.09C261.49 394.299 261.335 394.502 261.173 394.702C258.679 397.782 254.982 399.342 250.189 399.342H249.866C245.694 399.273 243.589 397.332 242.556 395.704C242.104 394.991 241.77 394.203 241.535 393.363C241.073 391.713 238.394 391.155 236.672 391.155C236.555 391.155 236.448 391.141 236.35 391.127C236.308 391.121 236.268 391.116 236.229 391.111C235.037 390.922 234.583 389.94 234.214 389.144L234.201 389.116C234.136 388.967 233.891 389.031 233.911 389.19C234.078 390.535 234.274 391.891 234.49 393.258C234.615 394.021 234.615 395.907 232.07 397.135C230.292 397.999 227.27 398.439 223.898 398.439C217.72 398.439 210.362 396.956 207.335 393.862C206.722 393.374 206.027 392.811 205.393 392.081C204.316 390.842 202.18 390.318 200.762 391.15C199.613 391.825 198.772 391.968 198.198 391.968C197.936 391.968 197.729 391.943 197.57 391.921C194.631 391.515 192.673 388.756 191.095 384.946C190.744 384.1 189.809 383.655 188.895 383.752C187.169 383.957 185.425 384.053 183.694 384.081C182.014 384.095 180.297 384.034 178.786 383.249C177.277 382.453 176.379 381.075 175.814 379.524C175.751 379.37 175.563 379.307 175.413 379.381C175.405 379.385 175.397 379.388 175.388 379.392C175.372 379.4 175.354 379.409 175.337 379.414C175.205 379.472 175.067 379.505 174.916 379.532C174.054 379.678 173.206 379.669 172.393 379.532C171.984 379.463 171.579 379.359 171.192 379.222C170.728 379.068 170.288 378.854 169.866 378.593C169.63 378.453 169.324 378.695 169.434 378.945L169.479 379.052C178.367 399.169 183.739 411.314 196.462 418.067C201.847 420.928 209.951 421.85 226.079 423.683L226.157 423.692C237.949 425.029 246.879 425.021 261.672 424.993C275.905 424.974 280.083 424.362 282.876 423.799C287.529 422.848 289.973 421.865 292.538 420.834L292.539 420.833L292.672 420.78C295.517 419.636 298.473 418.447 304.094 417.364C309.485 416.332 315.783 416.105 328.313 415.655L328.314 415.655L328.408 415.651C335.297 415.396 338.936 415.39 341.123 415.39H341.125C343.638 415.382 343.667 415.382 344.563 415.108C354.203 412.253 360.024 403.306 365.651 394.647C370.149 387.724 373.7 382.253 375.217 373.993C375.967 369.913 375.79 367.385 375.497 363.215L375.493 363.167C375.181 358.818 374.77 352.854 375.162 342.239C375.493 333.204 376.125 329.675 378.098 325.806C379.468 323.11 380.938 321.369 382.229 319.84L382.277 319.782L382.286 319.772C383.361 318.516 384.274 317.449 385.034 315.928Z" fill="#3B82F6"/>
<path d="M229.451 362.652C228.817 368.156 228.43 375.509 229.326 385.088C229.58 387.79 229.933 390.598 230.373 393.437C229.615 393.848 227.351 394.428 223.325 394.362C217.539 394.246 211.906 392.8 210.215 390.98L209.953 390.744C208.545 389.618 207.623 388.877 207.49 386.867C207.448 386.189 207.74 385.517 208.365 384.567C208.703 384.041 209.149 383.44 209.699 382.696L209.7 382.695L209.73 382.653C210.703 381.355 211.909 379.735 213.144 377.652C216.765 371.563 218.138 369.683 219.882 367.309C220.02 367.117 220.166 366.924 220.317 366.726C221.345 365.326 222.551 363.651 224.364 360.9C225.716 358.856 226.84 357.256 227.765 356C229.31 353.909 230.322 352.774 230.972 352.157C230.876 353.104 230.662 354.436 230.455 355.665L230.399 356.01L230.399 356.011C230.101 357.833 229.742 360.034 229.451 362.652Z" fill="#3B82F6"/>
<path d="M222.279 354.665C222.094 352.779 221.762 350.891 221.073 349.113C221.043 349.057 220.95 348.857 220.875 348.694L220.836 348.61C220.809 348.552 220.787 348.505 220.776 348.483C220.7 348.344 220.617 348.211 220.534 348.077C220.481 347.991 220.427 347.906 220.376 347.818C220.373 347.815 220.37 347.813 220.368 347.812C220.365 347.81 220.363 347.808 220.363 347.805C220.355 347.792 220.349 347.792 220.349 347.784C220.317 347.749 220.285 347.714 220.254 347.679L220.253 347.679C220.233 347.656 220.214 347.634 220.194 347.613L220.181 347.599L220.159 347.575C220.149 347.565 220.139 347.554 220.13 347.544C220.018 347.433 219.896 347.325 219.777 347.228C219.756 347.201 219.735 347.18 219.716 347.172C219.66 347.125 219.578 347.062 219.488 347.009C219.42 346.973 219.354 346.936 219.288 346.9C219.213 346.858 219.138 346.816 219.061 346.777C219.019 346.75 218.916 346.708 218.82 346.674C218.82 346.674 218.812 346.674 218.812 346.666L218.803 346.663L218.794 346.66L218.785 346.657C218.773 346.653 218.762 346.649 218.751 346.645C218.73 346.632 218.717 346.624 218.703 346.619L218.701 346.617C218.681 346.61 218.668 346.605 218.656 346.605C218.654 346.605 218.653 346.605 218.652 346.605C218.65 346.605 218.649 346.605 218.648 346.604C218.646 346.603 218.645 346.603 218.644 346.602C218.643 346.601 218.643 346.6 218.643 346.599C218.642 346.598 218.642 346.597 218.642 346.597C218.622 346.587 218.605 346.581 218.591 346.576C218.584 346.573 218.578 346.571 218.572 346.57C218.565 346.567 218.559 346.565 218.553 346.563C218.446 346.524 218.338 346.484 218.231 346.445C217.232 346.077 216.218 345.703 215.16 345.548C215.157 345.548 215.151 345.546 215.145 345.545L215.14 345.543C215.133 345.542 215.125 345.54 215.117 345.54H215.091C214.992 345.54 214.813 345.525 214.726 345.517C214.699 345.515 214.68 345.513 214.677 345.513C214.513 345.506 214.354 345.506 214.195 345.513C214.118 345.513 214.044 345.513 213.975 345.521H213.914C213.901 345.521 213.887 345.523 213.872 345.525C213.855 345.527 213.837 345.529 213.819 345.529C213.805 345.542 213.784 345.542 213.776 345.542H213.763C213.655 345.574 213.544 345.604 213.433 345.635C213.275 345.678 213.116 345.721 212.962 345.769C212.938 345.781 212.912 345.794 212.887 345.806C212.798 345.85 212.704 345.895 212.618 345.949C212.582 345.969 212.546 345.992 212.509 346.015C212.449 346.053 212.388 346.09 212.329 346.12C212.321 346.128 212.308 346.141 212.294 346.141L212.273 346.162C212.212 346.223 212.15 346.282 212.088 346.34C212.023 346.402 211.958 346.463 211.894 346.526C211.852 346.568 211.735 346.711 211.653 346.814C211.632 346.827 211.619 346.84 211.619 346.853L211.605 346.866C211.597 346.874 211.597 346.88 211.584 346.888C211.581 346.89 211.58 346.893 211.578 346.895L211.577 346.896C211.575 346.899 211.574 346.901 211.571 346.901C211.554 346.931 211.536 346.959 211.521 346.983C211.507 347.006 211.495 347.025 211.489 347.038C211.046 347.723 210.598 348.404 210.137 349.082C209.074 350.701 207.985 352.312 206.882 353.913C205.875 355.361 204.868 356.809 203.868 358.257C203.309 359.067 202.758 359.869 202.206 360.678C202.115 360.809 202.029 360.94 201.943 361.071L201.942 361.072L201.931 361.09C202.218 361.144 202.505 361.199 202.793 361.255L202.794 361.255L202.795 361.255C203.163 361.326 203.532 361.397 203.903 361.467C205.384 361.736 206.861 361.994 208.364 362.2C211.459 362.619 214.606 362.812 217.741 362.701C217.893 362.693 218.044 362.701 218.184 362.728C218.937 361.657 219.825 360.38 220.956 358.671C221.585 357.716 222.184 356.833 222.748 356.015C222.494 355.625 222.335 355.158 222.279 354.665Z" fill="#3B82F6"/>
<path d="M204.154 381.769C208.32 375.916 210.989 369.768 211.257 367.395C210.788 367.356 210.323 367.306 209.855 367.256L209.545 367.223H209.518C200.843 367.189 194.664 366.667 191.147 364.726C190.988 367.36 191.153 371.554 192.056 374.682L192.076 374.751C192.472 376.129 192.942 377.764 193.464 379.403C194.781 383.513 196.443 387.658 198.126 387.889C198.548 387.847 200.666 386.661 204.154 381.769Z" fill="#3B82F6"/>
<path d="M205.083 347.851V347.864C205.07 347.882 205.057 347.9 205.044 347.918C205.035 347.932 205.026 347.947 205.016 347.961C205.009 347.973 205.001 347.984 204.994 347.995L204.981 348.015C204.976 348.022 204.971 348.029 204.966 348.035C203.592 350.048 202.205 352.053 200.818 354.058L200.471 354.56C199.692 355.679 198.921 356.797 198.154 357.923C197.961 358.204 197.737 358.498 197.505 358.803C197.23 359.163 196.943 359.54 196.678 359.933L196.427 359.874L196.426 359.874C195.275 359.607 194.127 359.34 192.988 359.02C191.989 358.733 191.003 358.424 190.036 358.039C189.842 357.97 189.657 357.894 189.477 357.807C189.317 357.485 189.089 357.195 188.814 356.976C188.818 356.972 188.82 356.963 188.822 356.956C188.824 356.95 188.825 356.945 188.827 356.942C189.045 356.501 189.264 356.058 189.483 355.617C189.619 355.342 189.755 355.068 189.89 354.795C190.558 353.484 191.229 352.182 191.973 350.918C193.299 348.639 194.897 346.321 197.139 344.844C197.251 344.763 197.373 344.686 197.492 344.612C198.361 344.069 199.231 343.686 200.299 343.555C200.423 343.541 201.174 343.547 201.526 343.576C201.561 343.576 201.592 343.578 201.619 343.581C201.639 343.582 201.657 343.584 201.672 343.584H201.68C201.706 343.592 201.757 343.605 201.831 343.631C201.945 343.667 202.059 343.697 202.173 343.728C202.321 343.768 202.47 343.807 202.618 343.858C202.708 343.9 202.79 343.94 202.88 343.987C202.906 344.003 202.932 344.018 202.957 344.033L203.027 344.074C203.207 344.18 203.388 344.285 203.556 344.42C203.212 344.159 204.033 345.002 204.033 344.942C204.696 345.854 204.897 346.617 205.083 347.851Z" fill="#3B82F6"/>
<path d="M186.842 350.041C188.518 346.913 190.524 343.907 193.283 341.649C193.124 341.541 192.91 341.409 192.711 341.325C191.843 340.978 190.869 340.922 189.94 340.868C189.835 340.862 189.731 340.856 189.628 340.85C189.544 340.845 189.459 340.84 189.373 340.835C188.487 340.779 187.575 340.722 186.808 341.172C186.023 341.625 185.422 342.365 184.86 343.057L184.78 343.155C183.222 345.049 181.788 347.066 180.463 349.118C180.378 349.249 180.293 349.38 180.208 349.512L180.201 349.522C179.343 350.848 178.462 352.21 177.711 353.625C178.09 353.823 178.469 354.008 178.848 354.187C179.675 354.57 180.537 354.886 181.406 355.16C182.22 355.419 183.055 355.659 183.89 355.838C183.993 355.661 184.083 355.49 184.173 355.311C184.4 354.857 184.625 354.403 184.85 353.949C185.498 352.638 186.145 351.33 186.842 350.041Z" fill="#3B82F6"/>
<path d="M188.903 378.489C188.765 378.604 188.648 378.73 188.545 378.873C188.452 378.9 188.357 378.921 188.296 378.935L188.294 378.935L188.29 378.936C187.628 379.005 186.952 379.054 186.284 379.096C185.001 379.178 183.697 379.233 182.4 379.186C181.677 379.159 181.022 379.049 180.725 378.59C180.324 377.983 180.159 376.997 180.014 376.132C179.987 375.969 179.96 375.81 179.933 375.659C179.085 370.973 178.974 366.088 179.575 361.346C182.037 362.224 184.569 362.905 187.166 363.33C186.607 367.605 187.559 373.881 188.118 375.804C188.378 376.699 188.64 377.602 188.903 378.489Z" fill="#3B82F6"/>
<path d="M175.037 348.528C176.818 345.593 178.804 342.758 180.982 340.096C179.935 338.883 178.674 338.156 177.059 337.844C176.516 337.749 175.625 337.66 174.95 337.852C174.344 338.032 173.93 338.576 173.538 339.091C173.451 339.205 173.366 339.317 173.28 339.424C171.997 341.03 170.865 342.774 169.853 344.556C169.32 345.508 168.811 346.484 168.355 347.478C168.295 347.604 168.219 347.748 168.139 347.904C167.949 348.267 167.728 348.691 167.589 349.085C167.641 349.113 167.688 349.15 167.737 349.189L167.769 349.214C167.882 349.305 168.026 349.418 168.164 349.527L168.168 349.53L168.171 349.532L168.172 349.533C168.345 349.669 168.508 349.797 168.591 349.865C169.19 350.319 169.805 350.752 170.438 351.142C171.265 351.651 172.045 351.994 172.906 352.234C173.368 351.249 173.958 350.29 174.533 349.355C174.703 349.077 174.873 348.801 175.037 348.528Z" fill="#3B82F6"/>
<path d="M164.179 351.698C164.214 351.559 164.393 351.541 164.477 351.657C165.047 352.447 165.83 353.136 166.668 353.786L166.753 353.851C167.1 354.113 167.446 354.375 167.797 354.623C167.856 354.664 167.884 354.737 167.867 354.807C166.99 358.43 166.384 362.269 166.363 366.06C166.362 366.269 166.045 366.314 165.996 366.11C164.909 361.586 163.497 354.354 164.179 351.698Z" fill="#3B82F6"/>
<path d="M174.352 369.485C174.209 366.22 174.421 362.974 174.863 359.735H174.866V359.727C174.334 359.482 173.793 359.251 173.257 359.023C173.008 358.916 172.76 358.81 172.515 358.704C171.736 358.369 171.267 358.168 170.729 357.95C170.1 361.236 169.811 364.585 169.941 367.94C170.01 369.649 170.204 371.482 171.078 372.99C171.41 373.552 171.906 374.103 172.375 374.404C172.414 374.429 172.45 374.452 172.483 374.473C172.749 374.642 172.825 374.691 173.231 374.789C173.248 374.794 173.289 374.798 173.331 374.802C173.358 374.804 173.387 374.807 173.411 374.81H173.438C173.459 374.81 173.487 374.809 173.517 374.809C173.612 374.806 173.72 374.803 173.657 374.823C174.071 374.763 174.476 374.776 174.863 374.866V374.858C174.855 374.85 174.855 374.837 174.855 374.823C174.614 373.054 174.421 371.276 174.352 369.485Z" fill="#3B82F6"/>
<path d="M232.707 48.8593C231.564 44.5915 227.171 42.0474 222.94 43.3178C163.383 61.1963 111.805 99.2665 77.1662 151.107C41.0435 205.168 25.8061 270.518 34.2928 334.981C42.7794 399.444 74.4114 458.623 123.295 501.493C172.179 544.363 234.981 568 300 568C365.019 568 427.821 544.363 476.705 501.493C525.589 458.623 557.221 399.444 565.707 334.981C574.194 270.518 558.956 205.169 522.834 151.107C488.195 99.2665 436.617 61.1964 377.06 43.3178C372.829 42.0474 368.437 44.5916 367.293 48.8593L363.111 64.4687C361.967 68.7364 364.506 73.1101 368.732 74.3976C420.754 90.2452 465.79 123.621 496.094 168.974C527.882 216.548 541.291 274.056 533.822 330.783C526.354 387.511 498.518 439.588 455.5 477.314C412.482 515.04 357.217 535.84 300 535.84C242.783 535.84 187.518 515.039 144.5 477.314C101.482 439.588 73.6459 387.51 66.1776 330.783C58.7094 274.056 72.1183 216.548 103.906 168.974C134.21 123.621 179.247 90.2451 231.268 74.3976C235.494 73.11 238.033 68.7364 236.89 64.4686L232.707 48.8593Z" fill="#3B82F6"/>
<circle cx="300" cy="51" r="26" fill="#3B82F6"/>
</g>
<defs>
<clipPath id="clip0_6754_42526">
<rect width="600" height="600" fill="white"/>
</clipPath>
</defs>
</svg>
