<svg width="600" height="600" viewBox="0 0 600 600" fill="none" xmlns="http://www.w3.org/2000/svg">
<g clip-path="url(#clip0_6754_42543)">
<path d="M300 600C465.685 600 600 465.685 600 300C600 134.315 465.685 0 300 0C134.315 0 0 134.315 0 300C0 465.685 134.315 600 300 600Z" fill="#EEF3FE"/>
<path fill-rule="evenodd" clip-rule="evenodd" d="M244.829 377H201.912C191.737 377 186.649 377 183.602 375.062C180.309 372.969 178.231 369.456 178.011 365.609C177.807 362.049 180.327 357.708 185.367 349.028L185.369 349.025L279.333 187.184C284.447 178.375 287.005 173.97 290.259 172.331C293.773 170.559 297.942 170.556 301.459 172.323C304.715 173.957 307.279 178.359 312.406 187.16L334.077 224.36L334.078 224.361C337.806 230.76 339.67 233.96 340.49 237.336C341.383 241.012 341.384 244.841 340.495 248.517C339.679 251.894 337.817 255.096 334.094 261.5L277.904 358.14C274.127 364.638 272.238 367.886 269.651 370.314C266.834 372.957 263.418 374.906 259.685 375.998C256.254 377 252.446 377 244.829 377ZM397.944 377H348.186C337.919 377 332.785 377 329.728 375.046C326.425 372.934 324.354 369.395 324.159 365.529C323.978 361.952 326.562 357.593 331.729 348.878L356.567 306.983C361.669 298.378 364.221 294.075 367.451 292.463C370.941 290.721 375.069 290.718 378.563 292.455C381.796 294.061 384.353 298.361 389.467 306.958L389.468 306.961L414.388 348.854C419.575 357.576 422.169 361.937 421.992 365.517C421.8 369.385 419.729 372.929 416.425 375.043C413.369 377 408.227 377 397.944 377Z" fill="#3B82F6"/>
<path d="M232.707 48.8593C231.564 44.5915 227.171 42.0474 222.94 43.3178C163.383 61.1963 111.805 99.2665 77.1662 151.107C41.0435 205.168 25.8061 270.518 34.2928 334.981C42.7794 399.444 74.4114 458.623 123.295 501.493C172.179 544.363 234.981 568 300 568C365.019 568 427.821 544.363 476.705 501.493C525.589 458.623 557.221 399.444 565.707 334.981C574.194 270.518 558.956 205.169 522.834 151.107C488.195 99.2665 436.617 61.1964 377.06 43.3178C372.829 42.0474 368.437 44.5916 367.293 48.8593L363.111 64.4687C361.967 68.7364 364.506 73.1101 368.732 74.3976C420.754 90.2452 465.79 123.621 496.094 168.974C527.882 216.548 541.291 274.056 533.822 330.783C526.354 387.511 498.518 439.588 455.5 477.314C412.482 515.04 357.217 535.84 300 535.84C242.783 535.84 187.518 515.039 144.5 477.314C101.482 439.588 73.6459 387.51 66.1776 330.783C58.7094 274.056 72.1183 216.548 103.906 168.974C134.21 123.621 179.247 90.2451 231.268 74.3976C235.494 73.11 238.033 68.7364 236.89 64.4686L232.707 48.8593Z" fill="#3B82F6"/>
<circle cx="300" cy="51" r="26" fill="#3B82F6"/>
</g>
<defs>
<clipPath id="clip0_6754_42543">
<rect width="600" height="600" fill="white"/>
</clipPath>
</defs>
</svg>
