<svg width="600" height="600" viewBox="0 0 600 600" fill="none" xmlns="http://www.w3.org/2000/svg">
<g clip-path="url(#clip0_6754_42559)">
<path d="M300 600C465.685 600 600 465.685 600 300C600 134.315 465.685 0 300 0C134.315 0 0 134.315 0 300C0 465.685 134.315 600 300 600Z" fill="#EEF3FE"/>
<path d="M228.865 227.548C228.865 243.842 260.893 257.096 300.379 257.096C339.866 257.096 371.894 243.842 371.894 227.548C371.894 211.254 339.866 198 300.379 198C260.893 198 228.865 211.254 228.865 227.548Z" fill="#3B82F6"/>
<path d="M300.716 313.997C249.641 313.997 208.215 297.957 208.215 278.16C208.215 267.185 220.984 257.349 241.002 250.807C255.288 258.278 276.696 263.048 300.716 263.048C324.737 263.048 346.145 258.278 360.431 250.807C380.49 257.392 393.217 267.185 393.217 278.16C393.259 297.957 351.834 313.997 300.716 313.997Z" fill="#3B82F6"/>
<path d="M300 382C232.616 382 178 362.498 178 336.369C178 322.735 192.876 310.451 216.686 301.798C235.27 313.744 266.455 319.865 301.812 319.865C336.326 319.865 366.837 312.393 385.59 300.954C408.051 309.523 422 321.469 422 334.639C422 360.81 367.384 382 300 382Z" fill="#3B82F6"/>
<path d="M232.707 48.8593C231.564 44.5915 227.171 42.0474 222.94 43.3178C163.383 61.1963 111.805 99.2665 77.1662 151.107C41.0435 205.168 25.8061 270.518 34.2928 334.981C42.7794 399.444 74.4114 458.623 123.295 501.493C172.179 544.363 234.981 568 300 568C365.019 568 427.821 544.363 476.705 501.493C525.589 458.623 557.221 399.444 565.707 334.981C574.194 270.518 558.956 205.169 522.834 151.107C488.195 99.2665 436.617 61.1964 377.06 43.3178C372.829 42.0474 368.437 44.5916 367.293 48.8593L363.111 64.4687C361.967 68.7364 364.506 73.1101 368.732 74.3976C420.754 90.2452 465.79 123.621 496.094 168.974C527.882 216.548 541.291 274.056 533.822 330.783C526.354 387.511 498.518 439.588 455.5 477.314C412.482 515.04 357.217 535.84 300 535.84C242.783 535.84 187.518 515.039 144.5 477.314C101.482 439.588 73.6459 387.51 66.1776 330.783C58.7094 274.056 72.1183 216.548 103.906 168.974C134.21 123.621 179.247 90.2451 231.268 74.3976C235.494 73.11 238.033 68.7364 236.89 64.4686L232.707 48.8593Z" fill="#3B82F6"/>
<circle cx="300" cy="51" r="26" fill="#3B82F6"/>
</g>
<defs>
<clipPath id="clip0_6754_42559">
<rect width="600" height="600" fill="white"/>
</clipPath>
</defs>
</svg>
