<svg width="600" height="600" viewBox="0 0 600 600" fill="none" xmlns="http://www.w3.org/2000/svg">
<g clip-path="url(#clip0_6754_42606)">
<path d="M300 600C465.685 600 600 465.685 600 300C600 134.315 465.685 0 300 0C134.315 0 0 134.315 0 300C0 465.685 134.315 600 300 600Z" fill="#EEF3FE"/>
<path d="M191.153 370.637C187.747 368.554 184.933 365.634 182.98 362.157C181.028 358.679 180.002 354.761 180 350.775V305.591C180 303.884 180.479 302.178 181.3 300.745C183.969 296.103 189.99 294.534 194.643 297.264L296.869 356.713C302.822 360.194 306.517 366.542 306.517 373.504V420.326C306.517 422.442 305.901 424.558 304.806 426.401C301.453 431.93 294.269 433.636 288.726 430.292L191.153 370.637ZM343.603 284.841C349.556 288.322 353.25 294.67 353.25 301.632V396.642C353.25 399.441 351.745 402.034 349.282 403.399L326.907 415.958C326.633 416.095 326.291 416.231 326.018 416.299V363.539C326.018 356.713 322.46 350.366 316.575 346.885L226.802 293.305V233.787C226.802 232.081 227.281 230.374 228.102 228.941C230.771 224.3 236.792 222.73 241.445 225.46L343.603 284.841ZM388.284 214.676C394.305 218.157 398 224.573 398 231.466V370.228C398 373.094 396.426 375.688 393.895 377.053L372.683 388.452V291.872C372.683 285.046 369.125 278.767 363.24 275.218L271.483 220.273V163.758C271.483 162.052 271.962 160.345 272.783 158.844C275.452 154.202 281.473 152.633 286.126 155.294L388.284 214.676Z" fill="#3B82F6"/>
<path d="M232.707 48.8593C231.564 44.5915 227.171 42.0474 222.94 43.3178C163.383 61.1963 111.805 99.2665 77.1662 151.107C41.0435 205.168 25.8061 270.518 34.2928 334.981C42.7794 399.444 74.4114 458.623 123.295 501.493C172.179 544.363 234.981 568 300 568C365.019 568 427.821 544.363 476.705 501.493C525.589 458.623 557.221 399.444 565.707 334.981C574.194 270.518 558.956 205.169 522.834 151.107C488.195 99.2665 436.617 61.1964 377.06 43.3178C372.829 42.0474 368.437 44.5916 367.293 48.8593L363.111 64.4687C361.967 68.7364 364.506 73.1101 368.732 74.3976C420.754 90.2452 465.79 123.621 496.094 168.974C527.882 216.548 541.291 274.056 533.822 330.783C526.354 387.511 498.518 439.588 455.5 477.314C412.482 515.04 357.217 535.84 300 535.84C242.783 535.84 187.518 515.039 144.5 477.314C101.482 439.588 73.6459 387.51 66.1776 330.783C58.7094 274.056 72.1183 216.548 103.906 168.974C134.21 123.621 179.247 90.2451 231.268 74.3976C235.494 73.11 238.033 68.7364 236.89 64.4686L232.707 48.8593Z" fill="#3B82F6"/>
<circle cx="300" cy="51" r="26" fill="#3B82F6"/>
</g>
<defs>
<clipPath id="clip0_6754_42606">
<rect width="600" height="600" fill="white"/>
</clipPath>
</defs>
</svg>
