<svg width="600" height="600" viewBox="0 0 600 600" fill="none" xmlns="http://www.w3.org/2000/svg">
<g clip-path="url(#clip0_6754_42470)">
<path d="M300 600C465.685 600 600 465.685 600 300C600 134.315 465.685 0 300 0C134.315 0 0 134.315 0 300C0 465.685 134.315 600 300 600Z" fill="#EEF3FE"/>
<path d="M167.078 291.677C168.473 284.233 169.636 276.79 171.264 269.424C173.9 257.251 178.475 245.776 184.987 234.688C203.129 258.492 221.039 281.83 238.716 305.245C244.686 313.154 244.608 313.231 237.708 320.287C233.599 324.474 229.645 328.816 225.303 332.848C222.822 335.174 222.667 337.19 224.218 340.059C230.575 351.611 238.948 361.303 249.492 369.212C250.733 370.142 251.896 371.073 253.679 372.391C246.546 377.896 239.724 383.168 232.823 388.363C228.172 391.93 223.365 395.341 218.713 398.908C216.232 400.846 214.139 401.312 211.503 398.908C191.112 379.912 177.079 357.272 171.032 329.902C169.559 323.078 168.318 316.178 167 309.355V291.677H167.078ZM308.416 167C315.859 168.396 323.301 169.559 330.667 171.109C343.072 173.668 354.624 178.475 366.408 185.221C339.35 204.682 312.757 223.756 285.699 243.217C279.729 237.402 273.682 231.819 268.022 225.849C265.231 222.903 262.983 222.748 259.571 224.686C247.011 231.742 236.777 241.356 228.094 253.762C226.388 251.591 224.838 249.808 223.442 247.947C216.077 238.177 208.789 228.253 201.268 218.561C199.253 215.925 199.098 214.141 201.501 211.505C223.442 187.547 250.655 173.513 282.676 168.473L291.747 167.078H308.416V167ZM234.452 414.803C261.045 394.876 287.172 375.415 314.618 354.868C320.433 361.226 326.403 367.274 331.752 373.709C335.009 377.663 337.877 377.353 341.909 375.027C354.081 367.894 364.16 358.745 372.378 346.417C376.72 351.999 380.829 357.194 384.783 362.466C389.357 368.514 393.699 374.795 398.429 380.687C401.53 384.486 400.754 386.968 397.576 390.302C376.487 412.399 350.98 426.2 320.976 431.24C291.359 436.125 263.37 430.697 236.933 416.741C236.235 416.353 235.614 415.656 234.452 414.803ZM346.406 227.633C358.966 218.251 370.905 209.489 382.767 200.418C385.558 198.247 387.109 199.875 388.892 201.503C400.987 212.513 410.911 225.307 418.354 239.961C429.053 261.05 434.17 283.38 432.775 306.951C431.612 327.11 426.417 346.262 415.718 364.792C410.368 357.814 405.329 351.301 400.444 344.788C386.644 326.645 372.999 308.347 359.121 290.281C357.182 287.722 356.95 286.172 359.431 283.846C364.78 278.728 369.665 273.068 375.014 267.873C377.573 265.315 377.65 263.221 376.022 260.12C369.82 248.645 361.524 239.108 351.212 231.277C349.817 230.269 348.499 229.261 346.406 227.633Z" fill="#3B82F6"/>
<path d="M232.707 48.8593C231.564 44.5915 227.171 42.0474 222.94 43.3178C163.383 61.1963 111.805 99.2665 77.1662 151.107C41.0435 205.168 25.8061 270.518 34.2928 334.981C42.7794 399.444 74.4114 458.623 123.295 501.493C172.179 544.363 234.981 568 300 568C365.019 568 427.821 544.363 476.705 501.493C525.589 458.623 557.221 399.444 565.707 334.981C574.194 270.518 558.956 205.169 522.834 151.107C488.195 99.2665 436.617 61.1964 377.06 43.3178C372.829 42.0474 368.437 44.5916 367.293 48.8593L363.111 64.4687C361.967 68.7364 364.506 73.1101 368.732 74.3976C420.754 90.2452 465.79 123.621 496.094 168.974C527.882 216.548 541.291 274.056 533.822 330.783C526.354 387.511 498.518 439.588 455.5 477.314C412.482 515.04 357.217 535.84 300 535.84C242.783 535.84 187.518 515.039 144.5 477.314C101.482 439.588 73.6459 387.51 66.1776 330.783C58.7094 274.056 72.1183 216.548 103.906 168.974C134.21 123.621 179.247 90.2451 231.268 74.3976C235.494 73.11 238.033 68.7364 236.89 64.4686L232.707 48.8593Z" fill="#3B82F6"/>
<circle cx="300" cy="51" r="26" fill="#3B82F6"/>
</g>
<defs>
<clipPath id="clip0_6754_42470">
<rect width="600" height="600" fill="white"/>
</clipPath>
</defs>
</svg>
