<svg width="600" height="600" viewBox="0 0 600 600" fill="none" xmlns="http://www.w3.org/2000/svg">
<g clip-path="url(#clip0_6754_42458)">
<path d="M300 600C465.685 600 600 465.685 600 300C600 134.315 465.685 0 300 0C134.315 0 0 134.315 0 300C0 465.685 134.315 600 300 600Z" fill="#EEF3FE"/>
<path d="M227.5 367.5C221.935 353.374 219 332.5 224.5 320C229.413 308.835 243.589 304.399 252.638 313.399C244.5 313.399 240.021 316.451 237 322.5C225.612 345.312 244 398.5 266.089 390.826C261.737 399.136 255.921 398.847 248.5 395C243.922 392.628 233.065 381.626 227.5 367.5Z" fill="#3B82F6"/>
<path fill-rule="evenodd" clip-rule="evenodd" d="M426.696 277.009C428.286 281.539 430.31 288.719 430.792 297.682C431.177 304.477 432.623 330.596 416.24 343.944C411.422 347.944 406.217 350.113 397.448 353.052C392.485 354.691 385.546 356.715 377.017 358.305C375.875 358.598 374.259 359.008 372.258 359.516C363.701 361.686 348.105 365.643 332.446 369.822C331.481 370.085 330.513 370.345 329.545 370.606C323.218 372.31 316.858 374.023 310.715 376.28L310.602 376.322C308.807 376.984 306.973 377.66 305.463 376.81C302.787 375.275 303.293 370.14 304.172 361.222C304.369 359.22 304.585 357.028 304.788 354.643C304.818 354.26 304.853 353.835 304.89 353.374C305.211 349.417 305.752 342.748 305.752 336.62C305.793 328.408 304.929 321.962 304.263 316.992C303.346 310.149 302.804 306.102 305.511 304.092C306.976 303.01 308.441 303.217 311.13 303.596C312.156 303.741 313.361 303.911 314.811 304.044C320.33 304.528 325.156 303.599 332.686 302.148C334.885 301.725 337.315 301.257 340.06 300.767C363.333 296.574 389.401 291.852 391.569 280.767C392.099 277.925 391.617 271.612 377.21 261.202C362.027 252.312 346.137 244.687 329.7 238.409C310.233 231.036 290.381 223.663 284.117 230.988C281.129 234.506 282.094 240.385 283.635 245.3C286.767 252.143 290.622 261.636 293.899 273.25C298.377 289.166 299.605 301.831 300.378 309.8L300.404 310.067C301.608 322.837 301.657 334.355 301.127 344.33C300.596 388.472 286.671 422.59 264.506 428.903C258.772 430.542 254.001 429.963 251.544 429.578C222.939 420.767 208.921 393.07 201.543 370.173C195.412 353.37 193.018 336.396 191.794 327.721C191.719 327.191 191.649 326.693 191.582 326.226C189.848 314.275 189 301.248 189 291.659C189 279.322 189.29 264.046 194.783 246.409C199.36 231.71 206.684 208.194 228.56 195.617C243.063 187.279 258.194 186.702 262.723 187.087C280.119 188.565 293.899 191.447 308.981 195.954C308.981 195.954 320.786 199.52 332.542 204.339C342.517 208.435 397.929 231.277 417.974 260.239C423.564 268.335 426.696 277.009 426.696 277.009ZM214.635 359.655C222.103 391.219 242.582 413.338 260.314 409.145C278.046 404.953 286.334 375.943 278.865 344.426C271.396 312.862 250.917 290.743 233.186 294.936C215.454 299.128 207.166 328.09 214.635 359.655Z" fill="#3B82F6"/>
<path d="M300 77C314.36 77 326 65.3594 326 51C326 36.6406 314.36 25 300 25C285.641 25 274 36.6406 274 51C274 65.3594 285.641 77 300 77Z" fill="#3B82F6"/>
<path d="M222.94 43.3178C227.172 42.0474 231.564 44.5915 232.707 48.8593L236.89 64.4686C238.033 68.7364 235.495 73.11 231.268 74.3976C179.247 90.2451 134.21 123.621 103.906 168.974C72.1185 216.548 58.7095 274.056 66.1778 330.783C73.6461 387.51 101.482 439.588 144.5 477.314C187.518 515.039 242.783 535.84 300 535.84C357.217 535.84 412.482 515.04 455.5 477.314C498.518 439.588 526.354 387.511 533.823 330.783C541.291 274.056 527.882 216.548 496.094 168.974C465.79 123.621 420.754 90.2452 368.732 74.3976C364.506 73.11 361.967 68.7364 363.111 64.4687L367.293 48.8593C368.437 44.5916 372.829 42.0474 377.06 43.3178C436.617 61.1964 488.195 99.2665 522.834 151.107C558.957 205.169 574.194 270.518 565.707 334.981C557.221 399.444 525.589 458.623 476.705 501.493C427.821 544.363 365.019 568 300 568C234.981 568 172.179 544.363 123.295 501.493C74.4116 458.623 42.7796 399.444 34.2929 334.981C25.8063 270.518 41.0437 205.168 77.1663 151.107C111.805 99.2665 163.383 61.1963 222.94 43.3178Z" fill="#3B82F6"/>
</g>
<defs>
<clipPath id="clip0_6754_42458">
<rect width="600" height="600" fill="white"/>
</clipPath>
</defs>
</svg>
