<svg width="600" height="600" viewBox="0 0 600 600" fill="none" xmlns="http://www.w3.org/2000/svg">
<g clip-path="url(#clip0_6754_42611)">
<path d="M300 600C465.685 600 600 465.685 600 300C600 134.315 465.685 0 300 0C134.315 0 0 134.315 0 300C0 465.685 134.315 600 300 600Z" fill="#EEF3FE"/>
<path d="M437.885 261.762H410.492C395.471 219.801 354.899 191 301.494 191H213.559V261.704H183V287.1H213.559V313.708H183V339.104H213.559V409H301.436C354.266 409 394.493 380.487 409.974 339.104H437.885V313.708H416.131C416.649 309.206 416.995 304.589 416.995 299.971V299.336C416.995 295.181 416.764 291.083 416.362 287.1H438V261.704L437.885 261.762ZM238.19 213.625H301.494C340.742 213.625 369.862 232.961 383.328 261.704H238.19V213.625ZM301.494 386.144H238.19V339.046H383.156C369.632 367.27 340.569 386.144 301.494 386.144ZM391.558 300.548C391.558 305.05 391.27 309.437 390.637 313.65H238.19V287.042H390.695C391.213 291.198 391.558 295.527 391.558 299.913V300.548Z" fill="#3B82F6"/>
<path d="M300 77C314.36 77 326 65.3594 326 51C326 36.6406 314.36 25 300 25C285.641 25 274 36.6406 274 51C274 65.3594 285.641 77 300 77Z" fill="#3B82F6"/>
<path d="M222.94 43.3178C227.172 42.0474 231.564 44.5915 232.708 48.8593L236.89 64.4686C238.034 68.7364 235.495 73.11 231.269 74.3976C179.247 90.2451 134.211 123.621 103.907 168.974C72.119 216.548 58.71 274.056 66.1783 330.783C73.6466 387.51 101.483 439.588 144.501 477.314C187.518 515.039 242.784 535.84 300.001 535.84C357.217 535.84 412.483 515.04 455.501 477.314C498.519 439.588 526.355 387.511 533.823 330.783C541.291 274.056 527.882 216.548 496.094 168.974C465.791 123.621 420.754 90.2452 368.733 74.3976C364.506 73.11 361.968 68.7364 363.111 64.4687L367.294 48.8593C368.437 44.5916 372.829 42.0474 377.061 43.3178C436.618 61.1964 488.196 99.2665 522.835 151.107C558.957 205.169 574.195 270.518 565.708 334.981C557.221 399.444 525.589 458.623 476.705 501.493C427.821 544.363 365.02 568 300.001 568C234.982 568 172.18 544.363 123.296 501.493C74.4121 458.623 42.7801 399.444 34.2934 334.981C25.8067 270.518 41.0442 205.168 77.1668 151.107C111.806 99.2665 163.384 61.1963 222.94 43.3178Z" fill="#3B82F6"/>
</g>
<defs>
<clipPath id="clip0_6754_42611">
<rect width="600" height="600" fill="white"/>
</clipPath>
</defs>
</svg>
