<svg width="600" height="600" viewBox="0 0 600 600" fill="none" xmlns="http://www.w3.org/2000/svg">
<g clip-path="url(#clip0_6754_42642)">
<path d="M300 600C465.685 600 600 465.685 600 300C600 134.315 465.685 0 300 0C134.315 0 0 134.315 0 300C0 465.685 134.315 600 300 600Z" fill="#EEF3FE"/>
<path d="M397.109 239.159H261.666C231.427 239.947 223.973 251.213 223.973 251.213C217.246 257.028 216.034 278.229 216.034 278.229C215.549 282.529 220.761 282.651 220.761 282.651H402.502C416.259 283.438 415.653 294.099 415.653 294.099V304.336C415.047 314.694 400.078 314.391 400.078 314.391C400.078 314.391 224.155 314.875 219.852 314.391C215.549 313.906 216.034 317.298 216.034 317.298C215.852 325.052 219.125 339.529 219.125 339.529C225.306 363.152 270.454 360.305 270.454 360.305C270.454 360.305 389.534 360.487 401.836 360.305C414.198 360.123 415.653 370.905 415.653 370.905C419.895 395.437 383.898 393.984 383.898 393.984H251.425C202.581 393.439 187.552 373.692 187.552 373.692C170.463 352.37 172.038 325.052 172.038 325.052V274.776C172.765 232.617 193.915 220.624 193.915 220.624C213.489 206.147 254.576 205.117 254.576 205.117H380.322C380.322 205.117 415.834 202.391 415.956 223.229C416.016 223.289 416.986 239.947 397.109 239.159Z" fill="#3B82F6"/>
<path d="M232.707 48.8593C231.564 44.5915 227.172 42.0474 222.94 43.3178C163.383 61.1963 111.805 99.2665 77.1663 151.107C41.0437 205.168 25.8063 270.518 34.2929 334.981C42.7796 399.444 74.4116 458.623 123.295 501.493C172.179 544.363 234.981 568 300 568C365.019 568 427.821 544.363 476.705 501.493C525.589 458.623 557.221 399.444 565.707 334.981C574.194 270.518 558.957 205.169 522.834 151.107C488.195 99.2665 436.617 61.1964 377.06 43.3178C372.829 42.0475 368.437 44.5916 367.293 48.8593L363.111 64.4687C361.967 68.7364 364.506 73.1101 368.732 74.3976C420.754 90.2452 465.79 123.621 496.094 168.974C527.882 216.548 541.291 274.056 533.823 330.783C526.354 387.511 498.518 439.588 455.5 477.314C412.482 515.04 357.217 535.84 300 535.84C242.783 535.84 187.518 515.039 144.5 477.314C101.482 439.588 73.6461 387.51 66.1778 330.783C58.7095 274.056 72.1185 216.548 103.906 168.974C134.21 123.621 179.247 90.2451 231.268 74.3976C235.495 73.11 238.033 68.7364 236.89 64.4686L232.707 48.8593Z" fill="#3B82F6"/>
<path d="M326 51C326 65.3594 314.36 77 300 77C285.641 77 274 65.3594 274 51C274 36.6406 285.641 25 300 25C314.36 25 326 36.6406 326 51Z" fill="#3B82F6"/>
</g>
<defs>
<clipPath id="clip0_6754_42642">
<rect width="600" height="600" fill="white"/>
</clipPath>
</defs>
</svg>
