<svg width="600" height="600" viewBox="0 0 600 600" fill="none" xmlns="http://www.w3.org/2000/svg">
<g clip-path="url(#clip0_6760_41827)">
<path d="M300 600C465.685 600 600 465.685 600 300C600 134.315 465.685 0 300 0C134.315 0 0 134.315 0 300C0 465.685 134.315 600 300 600Z" fill="#EEF3FE"/>
<path d="M204.665 223.189C207.353 218.155 211.234 213.864 215.963 210.694L295.337 155L214.009 290.128C214.009 290.128 206.903 278.062 204.132 271.957C200.678 264.28 198.936 255.938 199.028 247.514C199.121 239.09 201.044 230.788 204.665 223.189ZM171.906 316.404C172.802 329.327 176.436 341.907 182.563 353.304C188.691 364.701 197.171 374.651 207.436 382.487L295.231 444C295.231 444 240.301 364.458 193.97 285.309C189.279 276.947 186.126 267.804 184.661 258.319C184.013 254.024 184.013 249.655 184.661 245.359C183.453 247.609 181.108 252.214 181.108 252.214C176.41 261.841 173.211 272.136 171.622 282.738C170.707 293.946 170.802 305.214 171.906 316.404ZM395.746 327.115C392.903 321.01 385.868 308.943 385.868 308.943L304.682 444L384.056 388.342C388.786 385.172 392.666 380.88 395.355 375.847C398.975 368.248 400.899 359.946 400.991 351.522C401.083 343.098 399.341 334.756 395.888 327.079L395.746 327.115ZM427.971 282.631C427.075 269.709 423.442 257.128 417.314 245.732C411.186 234.335 402.706 224.385 392.441 216.549L304.788 155C304.788 155 359.683 234.542 406.049 313.691C410.727 322.056 413.869 331.198 415.323 340.681C415.971 344.976 415.971 349.345 415.323 353.641C416.531 351.391 418.876 346.786 418.876 346.786C423.574 337.159 426.773 326.864 428.362 316.262C429.289 305.055 429.206 293.787 428.114 282.596L427.971 282.631Z" fill="#3B82F6"/>
<path d="M232.707 48.8593C231.564 44.5915 227.171 42.0474 222.94 43.3178C163.383 61.1963 111.805 99.2665 77.1662 151.107C41.0435 205.168 25.8061 270.518 34.2928 334.981C42.7794 399.444 74.4114 458.623 123.295 501.493C172.179 544.363 234.981 568 300 568C365.019 568 427.821 544.363 476.705 501.493C525.589 458.623 557.221 399.444 565.707 334.981C574.194 270.518 558.956 205.169 522.834 151.107C488.195 99.2665 436.617 61.1964 377.06 43.3178C372.829 42.0474 368.437 44.5916 367.293 48.8593L363.111 64.4687C361.967 68.7364 364.506 73.1101 368.732 74.3976C420.754 90.2452 465.79 123.621 496.094 168.974C527.882 216.548 541.291 274.056 533.822 330.783C526.354 387.511 498.518 439.588 455.5 477.314C412.482 515.04 357.217 535.84 300 535.84C242.783 535.84 187.518 515.039 144.5 477.314C101.482 439.588 73.6459 387.51 66.1776 330.783C58.7094 274.056 72.1183 216.548 103.906 168.974C134.21 123.621 179.247 90.2451 231.268 74.3976C235.494 73.11 238.033 68.7364 236.89 64.4686L232.707 48.8593Z" fill="#3B82F6"/>
<circle cx="300" cy="51" r="26" fill="#3B82F6"/>
</g>
<defs>
<clipPath id="clip0_6760_41827">
<rect width="600" height="600" fill="white"/>
</clipPath>
</defs>
</svg>
