<svg width="600" height="600" viewBox="0 0 600 600" fill="none" xmlns="http://www.w3.org/2000/svg">
<g clip-path="url(#clip0_6754_42577)">
<path d="M300 600C465.685 600 600 465.685 600 300C600 134.315 465.685 0 300 0C134.315 0 0 134.315 0 300C0 465.685 134.315 600 300 600Z" fill="#EEF3FE"/>
<path d="M232.707 48.8593C231.563 44.5915 227.171 42.0474 222.939 43.3178C163.383 61.1963 111.805 99.2665 77.1658 151.107C41.0432 205.168 25.8058 270.518 34.2924 334.981C42.7791 399.444 74.4111 458.623 123.295 501.493C172.179 544.363 234.981 568 300 568C365.019 568 427.82 544.363 476.704 501.493C525.588 458.623 557.22 399.444 565.707 334.981C574.194 270.518 558.956 205.169 522.834 151.107C488.195 99.2665 436.617 61.1964 377.06 43.3178C372.828 42.0475 368.436 44.5916 367.293 48.8593L363.11 64.4687C361.967 68.7364 364.505 73.1101 368.732 74.3976C420.753 90.2452 465.79 123.621 496.093 168.974C527.881 216.548 541.29 274.056 533.822 330.783C526.354 387.511 498.518 439.588 455.5 477.314C412.482 515.04 357.216 535.84 300 535.84C242.783 535.84 187.517 515.039 144.5 477.314C101.482 439.588 73.6456 387.51 66.1773 330.783C58.709 274.056 72.118 216.548 103.906 168.974C134.21 123.621 179.246 90.2451 231.268 74.3976C235.494 73.11 238.033 68.7364 236.889 64.4686L232.707 48.8593Z" fill="#3B82F6"/>
<path d="M326 51C326 65.3594 314.359 77 300 77C285.64 77 274 65.3594 274 51C274 36.6406 285.64 25 300 25C314.359 25 326 36.6406 326 51Z" fill="#3B82F6"/>
<path d="M300 151.043L297.975 157.835V354.832L300 356.799L391.407 302.753L300 151.043Z" fill="#488CFC"/>
<path d="M299.999 151.043L208.532 302.753L299.999 356.799V261.22V151.043Z" fill="#6AA2FF"/>
<path d="M300.001 374.138L298.869 375.508V445.703L300.001 448.98L391.468 320.092L300.001 374.138Z" fill="#3B80F0"/>
<path d="M299.999 448.98V374.138L208.532 320.092L299.999 448.98Z" fill="#6AA2FF"/>
<path d="M300.005 356.799L391.413 302.753L300.005 261.22V356.799Z" fill="#3B82F6"/>
<path d="M208.532 302.753L299.999 356.799V261.22L208.532 302.753Z" fill="#488CFC"/>
</g>
<defs>
<clipPath id="clip0_6754_42577">
<rect width="600" height="600" fill="white"/>
</clipPath>
</defs>
</svg>
