<svg width="600" height="600" viewBox="0 0 600 600" fill="none" xmlns="http://www.w3.org/2000/svg">
<g clip-path="url(#clip0_6754_42672)">
<path d="M300 600C465.685 600 600 465.685 600 300C600 134.315 465.685 0 300 0C134.315 0 0 134.315 0 300C0 465.685 134.315 600 300 600Z" fill="#EEF3FE"/>
<path d="M386.152 169.78C394.603 175.874 399.571 185.895 392.913 190.093C387.305 193.63 378.968 189.247 376.433 184.592C372.976 178.244 370.095 173.589 359.108 173.589C348.121 173.589 339.67 187.977 336.712 197.711C334.346 205.498 323.895 243.275 318.965 261.191L373.475 268.808L369.249 284.043L316.852 275.579L310.091 307.319L367.559 316.629L364.179 330.595L307.556 321.708C301.471 348.792 288.118 388.573 277.554 407.194C266.99 425.814 250.369 432.303 241.636 433.432C227.269 435.548 213.747 431.316 209.521 427.93C204.24 423.698 201.539 412.764 206.986 409.733C214.592 405.501 220.508 413.542 225.156 420.313C229.804 427.084 236.143 427.93 241.213 427.507C256.426 422.429 263.187 402.115 264.877 394.498C266.229 388.404 277.554 341.175 283.047 318.322L228.537 310.705L231.495 295.046L285.582 304.357L293.188 273.463L235.298 263.73L238.256 249.341L296.569 256.959C298.541 247.507 305.105 222.849 315.584 199.827C326.064 176.805 346.854 167.198 355.305 165.971C364.179 164.683 376.687 163.686 386.152 169.78Z" fill="#3B82F6"/>
<path d="M232.707 48.8593C231.564 44.5915 227.171 42.0474 222.94 43.3178C163.383 61.1963 111.805 99.2665 77.1662 151.107C41.0435 205.168 25.8061 270.518 34.2928 334.981C42.7794 399.444 74.4114 458.623 123.295 501.493C172.179 544.363 234.981 568 300 568C365.019 568 427.821 544.363 476.705 501.493C525.589 458.623 557.221 399.444 565.707 334.981C574.194 270.518 558.956 205.169 522.834 151.107C488.195 99.2665 436.617 61.1964 377.06 43.3178C372.829 42.0474 368.437 44.5916 367.293 48.8593L363.111 64.4687C361.967 68.7364 364.506 73.1101 368.732 74.3976C420.754 90.2452 465.79 123.621 496.094 168.974C527.882 216.548 541.291 274.056 533.822 330.783C526.354 387.511 498.518 439.588 455.5 477.314C412.482 515.04 357.217 535.84 300 535.84C242.783 535.84 187.518 515.039 144.5 477.314C101.482 439.588 73.6459 387.51 66.1776 330.783C58.7094 274.056 72.1183 216.548 103.906 168.974C134.21 123.621 179.247 90.2451 231.268 74.3976C235.494 73.11 238.033 68.7364 236.89 64.4686L232.707 48.8593Z" fill="#3B82F6"/>
<circle cx="300" cy="51" r="26" fill="#3B82F6"/>
</g>
<defs>
<clipPath id="clip0_6754_42672">
<rect width="600" height="600" fill="white"/>
</clipPath>
</defs>
</svg>
