<svg width="600" height="600" viewBox="0 0 600 600" fill="none" xmlns="http://www.w3.org/2000/svg">
<g clip-path="url(#clip0_6760_41832)">
<path d="M300 600C465.685 600 600 465.685 600 300C600 134.315 465.685 0 300 0C134.315 0 0 134.315 0 300C0 465.685 134.315 600 300 600Z" fill="#EEF3FE"/>
<path d="M379.952 216.895V217.895V382.326V382.338L379.952 382.35C379.86 386.026 377.551 389.536 373.306 391.768L373.306 391.768L311.073 424.481C307.851 426.175 303.839 427 299.869 427C295.9 427 291.888 426.175 288.665 424.481L226.433 391.768C222.18 389.533 220.025 385.989 219.918 382.355L379.952 216.895ZM379.952 216.895H379.735M379.952 216.895H379.735M379.735 216.895C379.065 213.873 376.866 211.103 373.306 209.232L311.073 176.519C307.851 174.825 303.839 174 299.869 174C295.9 174 291.888 174.825 288.665 176.519L226.433 209.232L226.898 210.117L226.433 209.232C222.808 211.137 220.668 213.852 220.078 216.901L219.925 216.902L219.918 217.888L219.914 218.4C219.909 218.589 219.909 218.779 219.916 218.968L219.916 381.504C219.907 381.752 219.909 382.035 219.918 382.355L379.735 216.895ZM211.796 377.751V378.751C211.796 384.997 212.53 388.952 213.886 391.661C214.99 393.866 216.654 395.596 219.896 397.794C219.896 397.794 219.897 397.795 219.898 397.795L220.083 397.92L211.796 377.751ZM211.796 377.751H210.796H211.796ZM228.094 402.837L227.572 403.696L222.502 412.037L221.986 412.888L221.133 412.375L217.176 409.996L217.17 409.993L216.505 409.587L216.502 409.585C215.352 408.877 214.392 408.268 213.493 407.664C213.493 407.664 213.493 407.664 213.492 407.663L214.05 406.833L228.094 402.837ZM228.094 402.837L227.233 402.319M228.094 402.837L227.233 402.319M227.233 402.319L223.704 400.199L223.698 400.195L222.555 399.499C222.555 399.498 222.554 399.498 222.553 399.497M227.233 402.319L222.553 399.497M222.553 399.497C221.586 398.903 220.797 398.399 220.084 397.921L222.553 399.497ZM231.712 311.354L288.665 341.29C291.888 342.984 295.9 343.81 299.869 343.81C303.839 343.81 307.851 342.984 311.073 341.29L368.155 311.285V381.134L309.727 411.938C309.547 412.025 309.368 412.112 309.19 412.199C305.9 413.802 302.918 415.256 299.887 415.25L299.25 415.229C296.155 415.023 292.922 413.43 289.6 411.663L289.594 411.659L231.712 381.395V311.354ZM293.97 330.794L233.37 298.94L293.97 267.085V330.794ZM305.769 330.794V267.086L366.368 298.94L305.769 330.794ZM233.37 218.87L294.171 186.91C295.598 186.16 297.694 185.749 299.869 185.749C302.044 185.749 304.141 186.16 305.568 186.91L366.368 218.87L305.568 250.829C304.141 251.58 302.044 251.99 299.869 251.99C297.694 251.99 295.598 251.58 294.171 250.829L233.37 218.87ZM378.867 188.755L378.014 188.242L377.498 189.093L372.428 197.434L371.906 198.293L372.767 198.811L376.297 200.93L376.302 200.934L377.444 201.629C377.444 201.63 377.444 201.63 377.445 201.63C378.413 202.227 379.203 202.731 379.917 203.21L380.103 203.335C383.345 205.533 385.009 207.263 386.114 209.469C387.47 212.178 388.204 216.132 388.204 222.379V223.379H389.204H399H400.005L400 222.375L399.998 221.937V221.936C399.963 214.674 399.058 209.18 396.895 204.67C394.723 200.141 391.331 196.702 386.507 193.466L385.95 194.296L386.507 193.466C385.608 192.863 384.649 192.252 383.497 191.544L383.495 191.543L382.83 191.137L382.824 191.133L378.867 188.755ZM368.155 286.594L315.478 258.904L368.155 231.214V286.594ZM284.259 258.904L231.712 286.526V231.283L284.259 258.904Z" fill="#3B82F6" stroke="#3B82F6" stroke-width="2"/>
<path d="M232.707 48.8593C231.564 44.5915 227.171 42.0474 222.94 43.3178C163.383 61.1963 111.805 99.2665 77.1662 151.107C41.0435 205.168 25.8061 270.518 34.2928 334.981C42.7794 399.444 74.4114 458.623 123.295 501.493C172.179 544.363 234.981 568 300 568C365.019 568 427.821 544.363 476.705 501.493C525.589 458.623 557.221 399.444 565.707 334.981C574.194 270.518 558.956 205.169 522.834 151.107C488.195 99.2665 436.617 61.1964 377.06 43.3178C372.829 42.0474 368.437 44.5916 367.293 48.8593L363.111 64.4687C361.967 68.7364 364.506 73.1101 368.732 74.3976C420.754 90.2452 465.79 123.621 496.094 168.974C527.882 216.548 541.291 274.056 533.822 330.783C526.354 387.511 498.518 439.588 455.5 477.314C412.482 515.04 357.217 535.84 300 535.84C242.783 535.84 187.518 515.039 144.5 477.314C101.482 439.588 73.6459 387.51 66.1776 330.783C58.7094 274.056 72.1183 216.548 103.906 168.974C134.21 123.621 179.247 90.2451 231.268 74.3976C235.494 73.11 238.033 68.7364 236.89 64.4686L232.707 48.8593Z" fill="#3B82F6"/>
<circle cx="300" cy="51" r="26" fill="#3B82F6"/>
</g>
<defs>
<clipPath id="clip0_6760_41832">
<rect width="600" height="600" fill="white"/>
</clipPath>
</defs>
</svg>
