<svg width="600" height="600" viewBox="0 0 600 600" fill="none" xmlns="http://www.w3.org/2000/svg">
<g clip-path="url(#clip0_6760_41852)">
<path d="M300 600C465.685 600 600 465.685 600 300C600 134.315 465.685 0 300 0C134.315 0 0 134.315 0 300C0 465.685 134.315 600 300 600Z" fill="#EEF3FE"/>
<path d="M300 410.806C300 417.868 305.76 423.66 312.806 422.939C375.272 416.551 424 363.948 424 300C424 236.053 375.272 183.45 312.806 177.061C305.76 176.337 300 182.133 300 189.195V223.289C300 230.35 305.798 235.942 312.746 237.335C342.062 243.229 364.138 269.043 364.138 300C364.138 330.958 342.062 356.771 312.746 362.665C305.798 364.059 300 369.655 300 376.712V410.806ZM261.517 200.096C261.517 191.402 252.978 185.274 245.158 189.122C204.182 209.293 176 251.365 176 300C176 348.636 204.182 390.708 245.158 410.879C252.978 414.727 261.517 408.599 261.517 399.905V200.1V200.096Z" fill="#3B82F6"/>
<path d="M300 77C314.359 77 326 65.3594 326 51C326 36.6406 314.359 25 300 25C285.64 25 274 36.6406 274 51C274 65.3594 285.64 77 300 77Z" fill="#3B82F6"/>
<path d="M222.939 43.3178C227.171 42.0474 231.563 44.5915 232.707 48.8593L236.889 64.4686C238.033 68.7364 235.494 73.11 231.268 74.3976C179.246 90.2451 134.21 123.621 103.906 168.974C72.118 216.548 58.709 274.056 66.1773 330.783C73.6456 387.51 101.482 439.588 144.5 477.314C187.517 515.039 242.783 535.84 300 535.84C357.216 535.84 412.482 515.04 455.5 477.314C498.518 439.588 526.354 387.511 533.822 330.783C541.29 274.056 527.881 216.548 496.093 168.974C465.79 123.621 420.753 90.2452 368.732 74.3976C364.505 73.11 361.967 68.7364 363.11 64.4687L367.293 48.8593C368.436 44.5916 372.828 42.0475 377.06 43.3178C436.617 61.1964 488.195 99.2665 522.834 151.107C558.956 205.169 574.194 270.518 565.707 334.981C557.22 399.444 525.588 458.623 476.704 501.493C427.82 544.363 365.019 568 300 568C234.981 568 172.179 544.363 123.295 501.493C74.4111 458.623 42.7791 399.444 34.2924 334.981C25.8058 270.518 41.0432 205.168 77.1658 151.107C111.805 99.2665 163.383 61.1963 222.939 43.3178Z" fill="#3B82F6"/>
</g>
<defs>
<clipPath id="clip0_6760_41852">
<rect width="600" height="600" fill="white"/>
</clipPath>
</defs>
</svg>
