<svg width="600" height="600" viewBox="0 0 600 600" fill="none" xmlns="http://www.w3.org/2000/svg">
<g clip-path="url(#clip0_6754_42517)">
<path d="M300 600C465.685 600 600 465.685 600 300C600 134.315 465.685 0 300 0C134.315 0 0 134.315 0 300C0 465.685 134.315 600 300 600Z" fill="#EEF3FE"/>
<path d="M371.292 253.628C368.616 252.122 365.589 251.331 362.509 251.331C359.429 251.331 356.402 252.122 353.727 253.628L313.432 277.065L286.052 292.35L245.756 315.787C240.59 318.844 233.875 318.844 228.192 315.787L196.162 297.445C193.542 295.925 191.36 293.77 189.823 291.184C188.286 288.598 187.445 285.667 187.38 282.67V246.495C187.38 240.381 190.48 234.776 196.162 231.719L227.675 213.887C232.841 210.83 239.557 210.83 245.24 213.887L276.753 231.719C281.919 234.776 285.535 240.381 285.535 246.495V269.932L312.915 254.138V230.7C312.915 224.586 309.815 218.982 304.133 215.925L245.756 182.297C243.081 180.792 240.054 180 236.974 180C233.894 180 230.867 180.792 228.192 182.297L168.782 215.925C163.1 218.982 160 224.586 160 230.7V298.464C160 304.578 163.1 310.183 168.782 313.24L228.192 346.867C233.358 349.924 240.074 349.924 245.756 346.867L286.052 323.94L313.432 308.145L353.727 285.217C358.893 282.16 365.609 282.16 371.292 285.217L402.804 303.05C407.97 306.107 411.587 311.711 411.587 317.825V354C411.587 360.114 408.487 365.719 402.804 368.776L371.292 387.118C366.125 390.175 359.41 390.175 353.727 387.118L322.214 369.285C319.594 367.765 317.412 365.61 315.875 363.024C314.338 360.438 313.497 357.507 313.432 354.51V331.073L286.052 346.867V370.304C286.052 376.418 289.151 382.023 294.834 385.08L354.244 418.707C359.41 421.764 366.125 421.764 371.808 418.707L431.218 385.08C436.384 382.023 440 376.418 440 370.304V302.54C440 296.426 436.9 290.822 431.218 287.765L371.292 253.628Z" fill="#3B82F6"/>
<path d="M232.707 48.8593C231.564 44.5915 227.171 42.0474 222.94 43.3178C163.383 61.1963 111.805 99.2665 77.1662 151.107C41.0435 205.168 25.8061 270.518 34.2928 334.981C42.7794 399.444 74.4114 458.623 123.295 501.493C172.179 544.363 234.981 568 300 568C365.019 568 427.821 544.363 476.705 501.493C525.589 458.623 557.221 399.444 565.707 334.981C574.194 270.518 558.956 205.169 522.834 151.107C488.195 99.2665 436.617 61.1964 377.06 43.3178C372.829 42.0474 368.437 44.5916 367.293 48.8593L363.111 64.4687C361.967 68.7364 364.506 73.1101 368.732 74.3976C420.754 90.2452 465.79 123.621 496.094 168.974C527.882 216.548 541.291 274.056 533.822 330.783C526.354 387.511 498.518 439.588 455.5 477.314C412.482 515.04 357.217 535.84 300 535.84C242.783 535.84 187.518 515.039 144.5 477.314C101.482 439.588 73.6459 387.51 66.1776 330.783C58.7094 274.056 72.1183 216.548 103.906 168.974C134.21 123.621 179.247 90.2451 231.268 74.3976C235.494 73.11 238.033 68.7364 236.89 64.4686L232.707 48.8593Z" fill="#3B82F6"/>
<circle cx="300" cy="51" r="26" fill="#3B82F6"/>
</g>
<defs>
<clipPath id="clip0_6754_42517">
<rect width="600" height="600" fill="white"/>
</clipPath>
</defs>
</svg>
