<svg width="600" height="600" viewBox="0 0 600 600" fill="none" xmlns="http://www.w3.org/2000/svg">
<g clip-path="url(#clip0_6754_42598)">
<path d="M300 600C465.685 600 600 465.685 600 300C600 134.315 465.685 0 300 0C134.315 0 0 134.315 0 300C0 465.685 134.315 600 300 600Z" fill="#EEF3FE"/>
<path d="M300 77C314.359 77 326 65.3594 326 51C326 36.6406 314.359 25 300 25C285.64 25 274 36.6406 274 51C274 65.3594 285.64 77 300 77Z" fill="#3B82F6"/>
<path d="M222.939 43.3178C227.171 42.0474 231.563 44.5915 232.707 48.8593L236.889 64.4686C238.033 68.7364 235.494 73.11 231.268 74.3976C179.246 90.2451 134.21 123.621 103.906 168.974C72.118 216.548 58.709 274.056 66.1773 330.783C73.6456 387.51 101.482 439.588 144.5 477.314C187.517 515.039 242.783 535.84 300 535.84C357.216 535.84 412.482 515.04 455.5 477.314C498.518 439.588 526.354 387.511 533.822 330.783C541.29 274.056 527.881 216.548 496.093 168.974C465.79 123.621 420.753 90.2452 368.732 74.3976C364.505 73.11 361.967 68.7364 363.11 64.4687L367.293 48.8593C368.436 44.5916 372.828 42.0474 377.06 43.3178C436.617 61.1964 488.195 99.2665 522.834 151.107C558.956 205.169 574.194 270.518 565.707 334.981C557.22 399.444 525.588 458.623 476.704 501.493C427.82 544.363 365.019 568 300 568C234.981 568 172.179 544.363 123.295 501.493C74.4111 458.623 42.7791 399.444 34.2924 334.981C25.8058 270.518 41.0432 205.168 77.1658 151.107C111.805 99.2665 163.383 61.1963 222.939 43.3178Z" fill="#3B82F6"/>
<path d="M176 228.162L300 300.245V348.299L217.331 300.245V396.354L176 372.327V228.162Z" fill="#488CFC"/>
<path d="M341.331 228.162V372.327L382.662 396.354V252.19L341.331 228.162Z" fill="#488CFC"/>
<path d="M382.662 252.19L424 228.162V372.327L382.662 396.354V252.19Z" fill="#6AA2FF"/>
<path d="M341.331 276.218L300 300.245V348.3L341.331 324.272V276.218Z" fill="#6AA2FF"/>
<path d="M217.331 300.245V396.355L258.662 372.327V324.272L217.331 300.245Z" fill="#6AA2FF"/>
<path d="M176 228.163L217.331 204.135L341.331 276.217L300 300.245L176 228.163Z" fill="#3B80F0"/>
<path d="M382.662 204.135L424 228.163L382.662 252.19L341.331 228.163L382.662 204.135Z" fill="#3B80F0"/>
</g>
<defs>
<clipPath id="clip0_6754_42598">
<rect width="600" height="600" fill="white"/>
</clipPath>
</defs>
</svg>
