<svg width="600" height="600" viewBox="0 0 600 600" fill="none" xmlns="http://www.w3.org/2000/svg">
<g clip-path="url(#clip0_6754_42531)">
<path d="M300 600C465.685 600 600 465.685 600 300C600 134.315 465.685 0 300 0C134.315 0 0 134.315 0 300C0 465.685 134.315 600 300 600Z" fill="#EEF3FE"/>
<path fill-rule="evenodd" clip-rule="evenodd" d="M386.463 211.169L316.893 211.169V166H282.107V211.169H257.153C230.006 211.169 208 233.076 208 260.101V264.618C208 291.643 230.007 313.551 257.153 313.551H282.107V360.225H212.537V388.831H282.107V434H316.893V388.831H341.847C368.993 388.831 391 366.924 391 339.899V335.382C391 308.357 368.993 286.449 341.847 286.449H316.893V239.775L386.463 239.775V211.169ZM316.893 313.551V286.449H282.107V238.27H266.983C253.619 238.27 242.785 249.055 242.785 262.36C242.785 275.664 253.619 286.449 266.983 286.449H282.107V313.551H316.893ZM316.893 313.551H332.017C345.381 313.551 356.215 324.336 356.215 337.64C356.215 350.945 345.381 361.73 332.017 361.73H316.893V313.551Z" fill="#3B82F6"/>
<path d="M232.707 48.8593C231.564 44.5915 227.171 42.0474 222.94 43.3178C163.383 61.1963 111.805 99.2665 77.1662 151.107C41.0435 205.168 25.8061 270.518 34.2928 334.981C42.7794 399.444 74.4114 458.623 123.295 501.493C172.179 544.363 234.981 568 300 568C365.019 568 427.821 544.363 476.705 501.493C525.589 458.623 557.221 399.444 565.707 334.981C574.194 270.518 558.956 205.169 522.834 151.107C488.195 99.2665 436.617 61.1964 377.06 43.3178C372.829 42.0474 368.437 44.5916 367.293 48.8593L363.111 64.4687C361.967 68.7364 364.506 73.1101 368.732 74.3976C420.754 90.2452 465.79 123.621 496.094 168.974C527.882 216.548 541.291 274.056 533.822 330.783C526.354 387.511 498.518 439.588 455.5 477.314C412.482 515.04 357.217 535.84 300 535.84C242.783 535.84 187.518 515.039 144.5 477.314C101.482 439.588 73.6459 387.51 66.1776 330.783C58.7094 274.056 72.1183 216.548 103.906 168.974C134.21 123.621 179.247 90.2451 231.268 74.3976C235.494 73.11 238.033 68.7364 236.89 64.4686L232.707 48.8593Z" fill="#3B82F6"/>
<circle cx="300" cy="51" r="26" fill="#3B82F6"/>
</g>
<defs>
<clipPath id="clip0_6754_42531">
<rect width="600" height="600" fill="white"/>
</clipPath>
</defs>
</svg>
