<svg width="600" height="600" viewBox="0 0 600 600" fill="none" xmlns="http://www.w3.org/2000/svg">
<g clip-path="url(#clip0_6754_42652)">
<path d="M300 600C465.685 600 600 465.685 600 300C600 134.315 465.685 0 300 0C134.315 0 0 134.315 0 300C0 465.685 134.315 600 300 600Z" fill="#EEF3FE"/>
<path d="M432.991 218.864V360.462C432.991 360.462 433.758 375.9 421.202 375.9C408.645 375.9 411.087 360.672 411.087 360.672V244.152C411.087 244.152 412.203 231.228 406.064 237.376C399.925 243.523 335.329 286.345 335.329 286.345C335.329 286.345 328.562 289.418 328.562 299.827V365.701C328.562 365.701 330.655 377.507 318.447 377.507C318.447 377.507 310.007 377.647 310.007 370.731V293.051C310.007 293.051 308.96 284.598 318.447 277.822C327.865 271.046 417.784 210.271 417.784 210.271C417.784 210.271 432.154 204.124 432.991 218.864ZM289.846 370.801V296.474C289.846 296.474 289.846 286.624 281.406 281.245L180.465 210.411C180.465 210.411 168.676 205.312 167.002 217.187V369.124C167.002 369.124 166.722 377.367 173.768 379.253C173.768 379.253 185.557 383.165 185.557 367.448V245.898C185.557 245.898 184.023 236.607 192.324 242.545C200.555 248.483 264.733 293.191 264.733 293.191C264.733 293.191 269.756 295.216 269.756 301.643V370.871C269.756 370.871 269.058 381.069 279.871 381C290.544 380.86 289.846 370.801 289.846 370.801Z" fill="#3B82F6"/>
<path d="M232.707 48.8593C231.564 44.5915 227.171 42.0474 222.94 43.3178C163.383 61.1963 111.805 99.2665 77.1662 151.107C41.0435 205.168 25.8061 270.518 34.2928 334.981C42.7794 399.444 74.4114 458.623 123.295 501.493C172.179 544.363 234.981 568 300 568C365.019 568 427.821 544.363 476.705 501.493C525.589 458.623 557.221 399.444 565.707 334.981C574.194 270.518 558.956 205.169 522.834 151.107C488.195 99.2665 436.617 61.1964 377.06 43.3178C372.829 42.0474 368.437 44.5916 367.293 48.8593L363.111 64.4687C361.967 68.7364 364.506 73.1101 368.732 74.3976C420.754 90.2452 465.79 123.621 496.094 168.974C527.882 216.548 541.291 274.056 533.822 330.783C526.354 387.511 498.518 439.588 455.5 477.314C412.482 515.04 357.217 535.84 300 535.84C242.783 535.84 187.518 515.039 144.5 477.314C101.482 439.588 73.6459 387.51 66.1776 330.783C58.7094 274.056 72.1183 216.548 103.906 168.974C134.21 123.621 179.247 90.2451 231.268 74.3976C235.494 73.11 238.033 68.7364 236.89 64.4686L232.707 48.8593Z" fill="#3B82F6"/>
<circle cx="300" cy="51" r="26" fill="#3B82F6"/>
</g>
<defs>
<clipPath id="clip0_6754_42652">
<rect width="600" height="600" fill="white"/>
</clipPath>
</defs>
</svg>
