<svg width="600" height="600" viewBox="0 0 600 600" fill="none" xmlns="http://www.w3.org/2000/svg">
<g clip-path="url(#clip0_6754_42418)">
<path d="M300 600C465.685 600 600 465.685 600 300C600 134.315 465.685 0 300 0C134.315 0 0 134.315 0 300C0 465.685 134.315 600 300 600Z" fill="#EEF3FE"/>
<path d="M226.948 395.459C242.991 413.743 265.757 424.857 290.047 426.291C304.387 425.484 318.011 419.39 328.049 409.082C347.857 392.142 368.651 376.278 390.431 361.758L402.62 356.739C407.64 354.588 416.244 349.569 424.131 340.247C432.736 328.775 434.17 316.585 434.17 312.283C433.184 298.749 428.792 285.663 421.263 274.28C381.289 345.266 308.062 390.977 226.948 395.459Z" fill="#488CFC"/>
<path d="M254.105 192.001C264.951 180.618 279.919 174.075 295.693 174.075C305.642 173.448 315.501 176.764 322.94 183.397C343.466 197.916 368.024 205.983 393.21 206.342C399.663 207.059 412.569 209.21 421.174 219.965C427.627 228.57 428.344 237.891 428.344 242.193C427.806 253.307 425.386 264.152 421.174 274.46L254.105 192.001Z" fill="#81B0FF"/>
<path d="M226.948 395.459C220.494 394.741 211.89 392.59 201.852 388.288C191.813 383.986 179.624 378.967 171.736 365.343C166.717 356.739 166 348.134 166 342.398C166.179 327.161 169.854 312.193 176.755 298.659C183.657 281.899 188.228 264.331 190.379 246.316L193.964 231.975C196.115 224.805 197.549 217.635 202.569 210.464L210.456 201.86C223.452 193.704 238.868 190.119 254.195 191.822C212.607 251.335 202.479 327.251 226.948 395.459Z" fill="#6AA2FF"/>
<path d="M254.105 192.001C253.388 192.001 292.825 194.152 317.204 202.756L337.281 211.361C329.394 210.644 279.201 208.493 241.288 246.495C193.247 295.254 209.63 361.928 210.347 365.513C199.233 351.531 192.978 333.884 193.964 315.958C195.846 268.006 217.716 223.102 254.105 192.001Z" fill="#488CFC"/>
<path d="M350.187 368.929C377.883 318.557 372.863 256.444 337.281 211.271C358.075 214.767 377.166 224.805 391.775 239.952C400.38 247.123 411.135 257.878 421.173 274.37C406.922 312.014 382.364 344.818 350.187 368.929Z" fill="#3B82F6"/>
<path d="M373.132 242.82C361.66 223.46 345.168 214.856 337.998 211.271C332.261 209.837 278.484 201.232 237.703 240.669C204.719 272.219 202.568 313.089 202.568 320.887C202.748 347.865 210.343 374.318 226.925 395.56C248.256 399.683 271.583 399.492 292.914 395.369C303.67 393.218 328.766 388.915 350.277 370.273C353.145 367.405 384.694 338.006 386.845 291.489C386.756 283.691 386.756 263.614 373.132 242.82ZM347.319 346.79C333.875 361.399 314.873 369.735 294.976 369.735C290.674 369.735 261.992 369.018 241.915 345.356C239.047 341.771 224.707 324.562 225.424 298.749C226.858 264.331 254.105 244.254 259.841 239.952C264.86 236.367 277.05 228.48 294.976 227.763C299.278 227.046 314.336 226.329 329.393 234.933C362.377 252.859 363.811 295.881 363.811 298.749C363.811 306.636 363.811 328.147 347.319 346.79Z" fill="#2E73E4"/>
<path d="M300 77C314.36 77 326 65.3594 326 51C326 36.6406 314.36 25 300 25C285.641 25 274 36.6406 274 51C274 65.3594 285.641 77 300 77Z" fill="#3B82F6"/>
<path d="M222.94 43.3178C227.172 42.0474 231.564 44.5915 232.707 48.8593L236.89 64.4686C238.033 68.7364 235.495 73.11 231.268 74.3976C179.247 90.2451 134.21 123.621 103.906 168.974C72.1185 216.548 58.7095 274.056 66.1778 330.783C73.6461 387.51 101.482 439.588 144.5 477.314C187.518 515.039 242.783 535.84 300 535.84C357.217 535.84 412.482 515.04 455.5 477.314C498.518 439.588 526.354 387.511 533.823 330.783C541.291 274.056 527.882 216.548 496.094 168.974C465.79 123.621 420.754 90.2452 368.732 74.3976C364.506 73.11 361.967 68.7364 363.111 64.4687L367.293 48.8593C368.437 44.5916 372.829 42.0474 377.06 43.3178C436.617 61.1964 488.195 99.2665 522.834 151.107C558.957 205.169 574.194 270.518 565.707 334.981C557.221 399.444 525.589 458.623 476.705 501.493C427.821 544.363 365.019 568 300 568C234.981 568 172.179 544.363 123.295 501.493C74.4116 458.623 42.7796 399.444 34.2929 334.981C25.8063 270.518 41.0437 205.168 77.1663 151.107C111.805 99.2665 163.383 61.1963 222.94 43.3178Z" fill="#3B82F6"/>
</g>
<defs>
<clipPath id="clip0_6754_42418">
<rect width="600" height="600" fill="white"/>
</clipPath>
</defs>
</svg>
