<svg width="600" height="600" viewBox="0 0 600 600" fill="none" xmlns="http://www.w3.org/2000/svg">
<g clip-path="url(#clip0_6754_42553)">
<path d="M300 600C465.685 600 600 465.685 600 300C600 134.315 465.685 0 300 0C134.315 0 0 134.315 0 300C0 465.685 134.315 600 300 600Z" fill="#EEF3FE"/>
<path d="M300.25 363.948C300.175 363.948 300.106 363.948 300.031 363.948C291.023 363.945 282.116 362.043 273.892 358.365C265.669 354.687 258.313 349.317 252.305 342.605C228.802 316.308 231.092 275.802 257.39 252.311C269.096 241.837 284.255 236.047 299.964 236.05C308.973 236.052 317.88 237.954 326.104 241.632C334.328 245.309 341.683 250.68 347.691 257.393C363.493 275.078 367.616 299.191 360.641 320.234L389.383 358.842C415.464 319.298 412.848 265.699 379.789 228.709C358.653 205.053 329.372 192.998 299.962 193C273.666 192.976 248.289 202.67 228.708 220.22C184.642 259.587 180.841 327.219 220.204 371.283C241.34 394.94 270.621 407 300.036 407C310.042 406.995 319.997 405.589 329.612 402.823C328.504 401.648 300.25 363.948 300.25 363.948Z" fill="#3B80F0"/>
<path d="M406 406.773L369.038 357.485L349.12 330.936L347.804 329.178C347.471 328.771 347.054 328.291 346.598 327.783C345.566 326.636 344.472 325.544 343.32 324.514C342.809 324.055 342.263 323.588 341.681 323.112C341.387 322.873 341.084 322.634 340.77 322.395C340.457 322.156 340.144 321.916 339.83 321.677C339.18 321.199 338.492 320.721 337.767 320.242C331.247 315.937 321.792 312 309.085 312H281L281.101 312.136L281 312.213L317.964 361.506L337.88 388.069L339.196 389.824C339.527 390.231 339.946 390.712 340.402 391.221C341.435 392.368 342.529 393.46 343.68 394.491C344.191 394.948 344.738 395.416 345.319 395.89C345.613 396.129 345.916 396.368 346.23 396.608C346.543 396.847 346.856 397.086 347.167 397.325C347.821 397.804 348.51 398.282 349.233 398.76C355.741 403.051 365.206 407 377.915 407H406L405.899 406.864L406 406.773Z" fill="#83AEF6"/>
<path d="M232.707 48.8593C231.564 44.5915 227.171 42.0474 222.94 43.3178C163.383 61.1963 111.805 99.2665 77.1662 151.107C41.0435 205.168 25.8061 270.518 34.2928 334.981C42.7794 399.444 74.4114 458.623 123.295 501.493C172.179 544.363 234.981 568 300 568C365.019 568 427.821 544.363 476.705 501.493C525.589 458.623 557.221 399.444 565.707 334.981C574.194 270.518 558.956 205.169 522.834 151.107C488.195 99.2665 436.617 61.1964 377.06 43.3178C372.829 42.0474 368.437 44.5916 367.293 48.8593L363.111 64.4687C361.967 68.7364 364.506 73.1101 368.732 74.3976C420.754 90.2452 465.79 123.621 496.094 168.974C527.882 216.548 541.291 274.056 533.822 330.783C526.354 387.511 498.518 439.588 455.5 477.314C412.482 515.04 357.217 535.84 300 535.84C242.783 535.84 187.518 515.039 144.5 477.314C101.482 439.588 73.6459 387.51 66.1776 330.783C58.7094 274.056 72.1183 216.548 103.906 168.974C134.21 123.621 179.247 90.2451 231.268 74.3976C235.494 73.11 238.033 68.7364 236.89 64.4686L232.707 48.8593Z" fill="#3B82F6"/>
<circle cx="300" cy="51" r="26" fill="#3B82F6"/>
</g>
<defs>
<clipPath id="clip0_6754_42553">
<rect width="600" height="600" fill="white"/>
</clipPath>
</defs>
</svg>
