<svg width="600" height="600" viewBox="0 0 600 600" fill="none" xmlns="http://www.w3.org/2000/svg">
<g clip-path="url(#clip0_6754_42667)">
<path d="M300 600C465.685 600 600 465.685 600 300C600 134.315 465.685 0 300 0C134.315 0 0 134.315 0 300C0 465.685 134.315 600 300 600Z" fill="#EEF3FE"/>
<path d="M268.635 288.236C268.635 288.116 268.635 287.985 268.731 287.865C268.695 287.985 268.671 288.116 268.635 288.236Z" fill="#3B82F6"/>
<path d="M270.724 282.827C270.782 282.72 270.835 282.609 270.888 282.496C270.914 282.441 270.941 282.386 270.968 282.331C270.978 282.309 270.989 282.287 271 282.265C270.913 282.42 270.841 282.575 270.772 282.724C270.762 282.745 270.753 282.765 270.744 282.785C270.737 282.799 270.731 282.813 270.724 282.827Z" fill="#3B82F6"/>
<path d="M330.284 305.398C330.284 305.518 330.284 305.649 330.187 305.769C330.224 305.678 330.24 305.608 330.261 305.506C330.262 305.499 330.264 305.492 330.265 305.485C330.27 305.464 330.274 305.441 330.279 305.417C330.281 305.411 330.282 305.405 330.284 305.398Z" fill="#3B82F6"/>
<path fill-rule="evenodd" clip-rule="evenodd" d="M376.35 145.6C374.085 144.535 371.61 143.989 369.105 144H340.046L325.431 214.71C319.865 212.976 314.124 211.807 308.297 211.229L316.282 172.723H266.534L256.292 222.233C250.329 225.65 244.752 229.791 239.699 234.602C223.614 249.914 214.081 270.824 213.086 292.972C212.191 312.916 218.283 332.478 230.202 348.356L213.555 428.834C213.045 431.277 213.089 433.802 213.684 436.226C214.279 438.65 215.409 440.91 216.993 442.843C218.576 444.775 220.573 446.331 222.836 447.396C225.1 448.461 227.574 449.009 230.077 449H259.137L273.633 378.955C279.171 380.676 284.906 381.847 290.758 382.429L282.912 420.361H332.673L342.801 371.376C343.852 370.772 344.893 370.144 345.921 369.495C359.802 360.722 370.881 348.179 377.853 333.344C384.825 318.508 387.401 301.997 385.276 285.752C383.36 271.093 377.689 257.202 368.845 245.402L385.64 164.166C386.15 161.722 386.105 159.196 385.51 156.771C384.915 154.347 383.783 152.085 382.198 150.153C380.613 148.22 378.615 146.664 376.35 145.6ZM299.468 264.971L299.303 264.971C297.462 264.985 295.626 265.157 293.815 265.485L293.191 265.593C291.477 265.937 289.794 266.421 288.16 267.041L287.451 267.305C285.88 267.942 284.363 268.702 282.912 269.578L282.228 269.997C280.809 270.9 279.464 271.912 278.205 273.025L277.617 273.564C276.375 274.712 275.227 275.956 274.183 277.286L273.738 277.884C272.699 279.267 271.776 280.732 270.976 282.264C270.953 282.308 270.931 282.352 270.91 282.397C270.906 282.406 270.901 282.415 270.897 282.424C270.886 282.448 270.876 282.471 270.865 282.495C270.854 282.519 270.843 282.544 270.832 282.569C270.794 282.654 270.755 282.741 270.712 282.827C269.9 284.446 269.229 286.131 268.707 287.865C268.611 287.985 268.611 288.117 268.611 288.248C267.775 291.166 267.37 294.19 267.41 297.224C267.46 301.426 268.35 305.576 270.028 309.431C270.436 310.381 270.888 311.302 271.385 312.196C272.378 313.982 273.54 315.669 274.855 317.234C275.511 318.016 276.204 318.766 276.932 319.484C278.405 320.924 280.013 322.218 281.736 323.35C282.592 323.916 283.481 324.443 284.401 324.93C286.258 325.917 288.209 326.719 290.225 327.323C292.305 327.935 294.441 328.336 296.601 328.52C297.578 328.608 298.547 328.652 299.507 328.652H299.627C301.468 328.638 303.304 328.466 305.115 328.137L305.739 328.041C307.453 327.697 309.136 327.212 310.771 326.593L311.479 326.33C313.05 325.693 314.568 324.933 316.018 324.056L316.703 323.637C318.121 322.734 319.466 321.722 320.725 320.609L321.314 320.071C322.556 318.923 323.704 317.678 324.748 316.349L325.192 315.75C326.231 314.367 327.154 312.902 327.954 311.37C328 311.284 328.041 311.194 328.081 311.104C328.087 311.091 328.093 311.078 328.099 311.065L328.101 311.06C328.11 311.04 328.119 311.019 328.128 310.998C328.133 310.989 328.137 310.98 328.141 310.97C328.125 311.002 328.11 311.034 328.094 311.067C328.081 311.095 328.067 311.123 328.054 311.151L328.053 311.153C328.017 311.229 327.98 311.306 327.942 311.382C327.977 311.312 328.009 311.242 328.041 311.172C328.085 311.075 328.129 310.979 328.18 310.886C328.192 310.86 328.205 310.834 328.218 310.808C329.022 309.192 329.685 307.51 330.199 305.781C330.296 305.661 330.296 305.53 330.296 305.398C330.826 303.528 331.183 301.613 331.364 299.678V299.63C332.036 292.266 330.104 284.899 325.901 278.806C325.316 278.008 324.696 277.21 324.039 276.412C321.393 273.256 318.16 270.639 314.517 268.705C313.597 268.218 312.652 267.775 311.683 267.376C309.712 266.569 307.664 265.959 305.571 265.558C304.499 265.352 303.417 265.2 302.329 265.103C301.37 265.016 300.419 264.973 299.476 264.971C299.474 264.971 299.471 264.971 299.468 264.971Z" fill="#3B82F6"/>
<path d="M300 77C314.36 77 326 65.3594 326 51C326 36.6406 314.36 25 300 25C285.641 25 274 36.6406 274 51C274 65.3594 285.641 77 300 77Z" fill="#3B82F6"/>
<path d="M222.94 43.3178C227.172 42.0474 231.564 44.5915 232.707 48.8593L236.89 64.4686C238.033 68.7364 235.495 73.11 231.268 74.3976C179.247 90.2451 134.21 123.621 103.906 168.974C72.1185 216.548 58.7095 274.056 66.1778 330.783C73.6461 387.51 101.482 439.588 144.5 477.314C187.518 515.039 242.783 535.84 300 535.84C357.217 535.84 412.482 515.04 455.5 477.314C498.518 439.588 526.354 387.511 533.823 330.783C541.291 274.056 527.882 216.548 496.094 168.974C465.79 123.621 420.754 90.2452 368.732 74.3976C364.506 73.11 361.967 68.7364 363.111 64.4687L367.293 48.8593C368.437 44.5916 372.829 42.0474 377.06 43.3178C436.617 61.1964 488.195 99.2665 522.834 151.107C558.957 205.169 574.194 270.518 565.707 334.981C557.221 399.444 525.589 458.623 476.705 501.493C427.821 544.363 365.019 568 300 568C234.981 568 172.179 544.363 123.295 501.493C74.4116 458.623 42.7796 399.444 34.2929 334.981C25.8063 270.518 41.0437 205.168 77.1663 151.107C111.805 99.2665 163.383 61.1963 222.94 43.3178Z" fill="#3B82F6"/>
</g>
<defs>
<clipPath id="clip0_6754_42667">
<rect width="600" height="600" fill="white"/>
</clipPath>
</defs>
</svg>
