<svg width="600" height="600" viewBox="0 0 600 600" fill="none" xmlns="http://www.w3.org/2000/svg">
<g clip-path="url(#clip0_6754_42491)">
<path d="M300 600C465.685 600 600 465.685 600 300C600 134.315 465.685 0 300 0C134.315 0 0 134.315 0 300C0 465.685 134.315 600 300 600Z" fill="#EEF3FE"/>
<path d="M205.994 220.784L226.132 210.149L228.512 214.898L302.02 172.31L297.258 168.749L291.306 165.187L288.926 164L168.05 233.793V236.167L202.423 217.223L205.994 220.784ZM205.994 265.697L264.125 231.419L266.506 236.167L341.204 193.579L335.252 190.018L329.3 187.644L326.919 186.456L168.05 277.519V279.893L202.423 260.949L205.994 265.697ZM205.994 286.966L283.073 243.191L285.454 246.753L360.152 204.164L354.2 201.79L348.248 198.229L345.867 197.042L168.05 298.838V302.399L202.423 282.317L205.994 286.966ZM205.994 308.285L302.07 253.875L304.451 257.437L379.149 216.036L373.197 212.474L367.245 208.913L364.864 207.726L168.05 321.294V323.668L202.423 304.724L205.994 308.285ZM205.994 330.742L321.017 264.51L323.398 269.258L398.096 226.67L392.144 223.109L387.382 220.735L383.811 218.36L168 342.514V346.075L202.373 325.993L205.994 330.742ZM405.238 231.419L402.858 229.045L168.05 365.069V367.444L202.423 348.499L205.994 353.247L321.017 285.829L323.398 290.577L409.95 242.103V233.843L405.238 231.419ZM183.475 381.59L202.472 369.768L204.853 374.517L321.067 308.285L323.447 313.034L410 263.372V247.989L179.904 379.216L183.475 381.59ZM321.017 330.742L323.398 335.49L409.95 284.642V269.258L198.851 391.038L202.423 392.225L221.42 380.403L224.991 385.151L321.017 330.742ZM221.42 402.909L241.557 392.274L243.938 397.023L321.017 352.06L323.398 356.809L409.95 307.147V291.764L217.848 401.722L221.42 402.909ZM240.367 413.544L260.505 402.909L262.885 407.657L321.017 374.517L323.398 379.265L409.95 329.604V313.034L236.796 412.356L240.367 413.544ZM255.793 422.991L259.364 425.365L279.502 413.544L281.882 418.292L321.017 395.836L323.398 400.584L409.95 350.923V335.54L255.793 422.991ZM278.311 436L297.308 424.178L300.879 428.927L321.017 418.292L323.398 423.041L409.95 373.379V356.809L275.93 434.813L278.311 436ZM322.207 182.945L316.255 179.383L310.303 177.009L307.923 174.635L168.05 255.062V258.624L202.423 238.542L205.994 243.29L245.129 220.834L247.509 225.582L322.207 182.945Z" fill="#3B82F6"/>
<path d="M300 77C314.36 77 326 65.3594 326 51C326 36.6406 314.36 25 300 25C285.641 25 274 36.6406 274 51C274 65.3594 285.641 77 300 77Z" fill="#3B82F6"/>
<path d="M222.94 43.3178C227.172 42.0474 231.564 44.5915 232.707 48.8593L236.89 64.4686C238.033 68.7364 235.495 73.11 231.268 74.3976C179.247 90.2451 134.21 123.621 103.906 168.974C72.1185 216.548 58.7095 274.056 66.1778 330.783C73.6461 387.51 101.482 439.588 144.5 477.314C187.518 515.039 242.783 535.84 300 535.84C357.217 535.84 412.482 515.04 455.5 477.314C498.518 439.588 526.354 387.511 533.823 330.783C541.291 274.056 527.882 216.548 496.094 168.974C465.79 123.621 420.754 90.2452 368.732 74.3976C364.506 73.11 361.967 68.7364 363.111 64.4687L367.293 48.8593C368.437 44.5916 372.829 42.0474 377.06 43.3178C436.617 61.1964 488.195 99.2665 522.834 151.107C558.957 205.169 574.194 270.518 565.707 334.981C557.221 399.444 525.589 458.623 476.705 501.493C427.821 544.363 365.019 568 300 568C234.981 568 172.179 544.363 123.295 501.493C74.4116 458.623 42.7796 399.444 34.2929 334.981C25.8063 270.518 41.0437 205.168 77.1663 151.107C111.805 99.2665 163.383 61.1963 222.94 43.3178Z" fill="#3B82F6"/>
</g>
<defs>
<clipPath id="clip0_6754_42491">
<rect width="600" height="600" fill="white"/>
</clipPath>
</defs>
</svg>
