<svg width="600" height="600" viewBox="0 0 600 600" fill="none" xmlns="http://www.w3.org/2000/svg">
<g clip-path="url(#clip0_6754_42657)">
<path d="M300 600C465.685 600 600 465.685 600 300C600 134.315 465.685 0 300 0C134.315 0 0 134.315 0 300C0 465.685 134.315 600 300 600Z" fill="#EEF3FE"/>
<path d="M234.002 284.992C234.002 284.992 251.3 205.415 322.741 192.516C394.169 179.606 409.216 219.759 409.971 236.252C410.725 252.733 397.186 293.59 334.771 288.574C270.848 277.826 234.002 284.992 234.002 284.992ZM365.998 315.012C365.998 315.012 348.7 394.589 277.259 407.487C205.818 420.386 190.784 380.245 190.029 363.764C189.275 347.27 202.814 306.413 265.229 311.429C329.152 322.178 365.998 315.012 365.998 315.012Z" fill="#3B82F6"/>
<path d="M232.707 48.8593C231.564 44.5915 227.171 42.0474 222.94 43.3178C163.383 61.1963 111.805 99.2665 77.1662 151.107C41.0435 205.168 25.8061 270.518 34.2928 334.981C42.7794 399.444 74.4114 458.623 123.295 501.493C172.179 544.363 234.981 568 300 568C365.019 568 427.821 544.363 476.705 501.493C525.589 458.623 557.221 399.444 565.707 334.981C574.194 270.518 558.956 205.169 522.834 151.107C488.195 99.2665 436.617 61.1964 377.06 43.3178C372.829 42.0474 368.437 44.5916 367.293 48.8593L363.111 64.4687C361.967 68.7364 364.506 73.1101 368.732 74.3976C420.754 90.2452 465.79 123.621 496.094 168.974C527.882 216.548 541.291 274.056 533.822 330.783C526.354 387.511 498.518 439.588 455.5 477.314C412.482 515.04 357.217 535.84 300 535.84C242.783 535.84 187.518 515.039 144.5 477.314C101.482 439.588 73.6459 387.51 66.1776 330.783C58.7094 274.056 72.1183 216.548 103.906 168.974C134.21 123.621 179.247 90.2451 231.268 74.3976C235.494 73.11 238.033 68.7364 236.89 64.4686L232.707 48.8593Z" fill="#3B82F6"/>
<circle cx="300" cy="51" r="26" fill="#3B82F6"/>
</g>
<defs>
<clipPath id="clip0_6754_42657">
<rect width="600" height="600" fill="white"/>
</clipPath>
</defs>
</svg>
