<svg width="600" height="600" viewBox="0 0 600 600" fill="none" xmlns="http://www.w3.org/2000/svg">
<g clip-path="url(#clip0_6754_42485)">
<path d="M300 600C465.685 600 600 465.685 600 300C600 134.315 465.685 0 300 0C134.315 0 0 134.315 0 300C0 465.685 134.315 600 300 600Z" fill="#EEF3FE"/>
<path d="M283.826 262.486C290.243 273.77 275.948 277.257 269.214 277.891C259.048 278.906 256.952 273.01 258.921 265.655C259.557 262.993 261.018 260.647 263.051 258.872C265.084 257.097 267.626 255.955 270.357 255.702C273.026 255.448 275.694 255.955 278.108 257.16C280.459 258.301 282.429 260.203 283.826 262.486ZM323.725 241.627C316.292 298.623 416.484 286.767 414.578 332.097C424.489 319.227 428.683 284.231 399.584 266.226C373.726 250.123 339.926 258.935 323.725 241.627ZM381.477 220.135C380.842 219.501 380.143 218.931 379.508 218.36C380.143 218.931 380.842 219.565 381.477 220.135ZM404.73 261.661L404.667 261.598C403.777 259.886 402.761 258.301 401.554 256.78C398.179 252.201 393.337 248.912 387.831 247.46C384.146 246.509 380.397 245.938 376.649 245.685C372.837 245.431 368.898 245.241 364.959 245.051C357.08 244.607 348.948 243.783 341.07 241.564C339.101 240.993 337.131 240.359 335.225 239.662C334.208 239.282 333.319 238.901 332.366 238.521C331.413 238.077 330.396 237.633 329.38 237.126C325.631 235.097 322.201 232.561 319.151 229.645C313.052 223.939 308.287 217.536 303.458 211.259C298.947 204.983 294.119 198.96 288.909 193.254C283.826 187.612 277.791 182.92 271.12 179.306C264.197 175.814 256.673 173.663 248.947 172.967C256.952 172.079 265.021 173.093 272.581 175.883C280.205 178.863 287.194 183.301 293.102 188.943C296.967 192.576 300.595 196.452 303.967 200.545C329.062 195.6 349.456 199.974 365.086 208.533L365.467 208.723C370.422 211.45 375.124 214.683 379.381 218.423C380.08 218.994 380.715 219.628 381.35 220.199C384.654 223.242 387.767 226.602 390.626 230.089L390.817 230.406C400.156 242.071 404.73 254.244 404.73 261.661Z" fill="#3B82F6"/>
<path d="M250.281 180.258C256.698 181.209 263.242 183.744 267.435 188.626C271.628 193.508 273.216 199.848 274.424 205.871C275.44 210.562 276.202 215.317 278.045 219.755C278.934 221.91 280.269 223.812 281.349 225.841C282.238 227.553 283.89 229.075 284.525 230.85C284.652 231.103 284.652 231.42 284.652 231.674C284.589 231.927 284.525 232.244 284.335 232.435C282.111 234.907 276.075 232.181 273.788 231.04C269.849 229.075 266.355 226.412 263.432 223.115C254.283 212.971 249.582 198.326 249.9 185.012C249.9 183.427 250.027 181.842 250.281 180.258ZM357.398 294.756C343.548 333.492 406.319 359.422 382.811 398.793C406.954 388.776 418.39 358.661 408.415 334.697C399.648 313.712 373.726 306.041 357.398 294.756ZM274.424 345.411C278.172 342.558 282.302 340.212 286.685 338.437C291.133 336.662 295.707 335.331 300.409 334.443C309.685 332.668 318.897 332.224 326.648 329.118C330.46 327.596 333.954 325.441 337.004 322.651C339.926 319.925 342.214 316.501 343.548 312.761C344.946 308.767 345.517 304.519 345.2 300.335C344.882 295.833 343.802 291.332 342.15 287.148C345.581 290.761 348.122 295.136 349.456 299.954C350.791 304.773 350.981 309.781 349.901 314.663C348.694 319.798 346.089 324.553 342.341 328.294C338.649 331.92 334.202 334.691 329.316 336.409C324.678 338.057 319.786 339.071 314.894 339.388C310.129 339.769 305.555 339.896 301.044 340.149C291.959 340.466 283.001 342.305 274.424 345.411ZM362.925 413.438C361.528 414.579 360.13 415.72 358.605 416.735C357.08 417.749 355.429 418.637 353.777 419.461C350.282 421.173 346.47 422.06 342.595 421.997C332.048 421.807 324.615 413.945 320.295 405.069C317.309 399.046 315.275 392.516 311.781 386.747C306.762 378.505 298.121 371.912 288.083 373.116C283.954 373.624 280.142 375.462 277.854 379.076C271.819 388.395 280.459 401.519 291.45 399.68C293.339 399.43 295.12 398.662 296.597 397.462C298.121 396.194 299.265 394.482 299.964 392.58C300.663 390.615 300.853 388.459 300.409 386.43C299.964 384.275 298.693 382.373 296.851 381.168C298.947 382.182 300.599 383.958 301.425 386.113C302.315 388.332 302.505 390.805 302.061 393.15C301.616 395.623 300.536 397.905 298.947 399.807C297.201 401.755 294.963 403.2 292.467 403.992C289.989 404.816 287.321 405.133 284.716 404.816C281.062 404.303 277.616 402.813 274.741 400.505C271.31 397.779 268.833 394.292 265.719 391.248C262.186 387.561 258.037 384.514 253.458 382.246C250.281 380.851 246.977 379.837 243.546 379.203C241.831 378.822 240.116 378.569 238.4 378.379C237.638 378.315 233.762 377.428 233.19 377.935C238.527 372.99 244.372 368.615 250.599 364.875C257.015 361.071 263.877 358.154 270.993 356.126C278.426 354.033 286.177 353.463 293.801 354.35C297.74 354.794 301.616 355.809 305.237 357.33C309.113 358.852 312.607 361.071 315.72 363.86C318.77 366.777 321.248 370.2 323.027 374.067C324.615 377.681 325.758 381.422 326.521 385.289C328.745 396.828 327.919 414.706 342.976 417.305C343.738 417.432 344.564 417.559 345.327 417.622L347.805 417.686C349.52 417.559 351.172 417.305 352.824 416.988C356.382 416.037 359.685 414.896 362.925 413.438ZM261.971 238.267C261.399 240.36 260.446 242.388 259.176 244.1C256.761 247.27 253.521 249.743 249.836 251.264C246.524 252.703 243.01 253.622 239.417 253.99C238.654 254.117 237.828 254.18 237.066 254.18C234.779 254.244 232.619 255.068 230.84 256.526C229.053 257.952 227.764 259.905 227.155 262.105C226.901 263.183 226.71 264.324 226.583 265.465C226.202 268.382 226.138 271.425 225.821 275.102C225.037 281.334 223.234 287.395 220.484 293.044C216.926 300.588 212.923 306.675 213.813 315.36C214.448 321.003 217.307 324.807 221.119 328.674C228.044 335.775 243.546 338.945 240.052 356.443C237.955 366.903 220.738 377.808 196.468 381.675C198.882 381.295 193.355 371.975 193.037 371.405C190.432 367.347 187.573 363.48 185.54 359.042C181.474 350.42 179.632 340.529 181.284 331.083C183.063 321.193 190.369 313.585 196.405 306.041C203.647 297.038 211.208 285.246 212.923 273.517C213.304 270.664 213.622 267.114 214.257 263.627C214.829 259.696 216.1 255.956 217.879 252.405C219.086 250.123 220.738 248.031 222.644 246.256C223.661 245.327 224.334 244.083 224.553 242.725C224.772 241.367 224.525 239.975 223.851 238.775L185.159 169.036L240.687 237.76C241.314 238.561 242.114 239.21 243.027 239.66C243.94 240.11 244.942 240.349 245.961 240.36C246.969 240.386 247.97 240.189 248.893 239.784C249.815 239.378 250.637 238.774 251.297 238.014C251.996 237.19 252.377 236.175 252.441 235.097C252.441 234.02 252.123 232.942 251.488 232.118C247.867 227.49 244.055 222.735 240.306 218.107L226.329 200.735L198.247 166.12L160 118L201.868 163.013L231.729 196.107L246.596 212.718C251.552 218.297 256.507 223.686 261.399 229.582L262.225 230.596L262.416 232.118C262.543 234.083 262.416 236.175 261.971 238.267Z" fill="#3B82F6"/>
<path d="M300 77C314.36 77 326 65.3594 326 51C326 36.6406 314.36 25 300 25C285.641 25 274 36.6406 274 51C274 65.3594 285.641 77 300 77Z" fill="#3B82F6"/>
<path d="M222.94 43.3178C227.172 42.0474 231.564 44.5915 232.707 48.8593L236.89 64.4686C238.033 68.7364 235.495 73.11 231.268 74.3976C179.247 90.2451 134.21 123.621 103.906 168.974C72.1185 216.548 58.7095 274.056 66.1778 330.783C73.6461 387.51 101.482 439.588 144.5 477.314C187.518 515.039 242.783 535.84 300 535.84C357.217 535.84 412.482 515.04 455.5 477.314C498.518 439.588 526.354 387.511 533.822 330.783C541.291 274.056 527.882 216.548 496.094 168.974C465.79 123.621 420.754 90.2452 368.732 74.3976C364.506 73.11 361.967 68.7364 363.111 64.4687L367.293 48.8593C368.437 44.5916 372.829 42.0475 377.06 43.3178C436.617 61.1964 488.195 99.2665 522.834 151.107C558.957 205.169 574.194 270.518 565.707 334.981C557.221 399.444 525.589 458.623 476.705 501.493C427.821 544.363 365.019 568 300 568C234.981 568 172.179 544.363 123.295 501.493C74.4116 458.623 42.7796 399.444 34.2929 334.981C25.8063 270.518 41.0437 205.168 77.1663 151.107C111.805 99.2665 163.383 61.1963 222.94 43.3178Z" fill="#3B82F6"/>
</g>
<defs>
<clipPath id="clip0_6754_42485">
<rect width="600" height="600" fill="white"/>
</clipPath>
</defs>
</svg>
