<svg width="600" height="600" viewBox="0 0 600 600" fill="none" xmlns="http://www.w3.org/2000/svg">
<g clip-path="url(#clip0_6754_42512)">
<path d="M300 600C465.685 600 600 465.685 600 300C600 134.315 465.685 0 300 0C134.315 0 0 134.315 0 300C0 465.685 134.315 600 300 600Z" fill="#EEF3FE"/>
<path d="M188.713 188.37C180.207 197.261 173.19 204.741 173.119 204.882C173.048 205.094 180.703 212.573 190.131 221.464C199.558 230.426 207.781 238.258 208.348 238.752L209.411 239.74L207.497 242.915C190.698 270.576 187.225 303.881 197.786 334.505C199.771 340.291 203.173 347.7 206.08 352.569C207.497 354.968 208.135 356.52 207.994 356.803C207.852 357.085 199.275 366.117 188.926 376.913C178.577 387.638 170.142 396.6 170 396.741C169.929 396.953 198.92 424.825 201.685 427.083L202.748 428L219.122 410.994C228.124 401.61 236.56 392.789 237.835 391.449L240.245 389.05L242.514 390.461C254.068 397.799 267.606 402.88 282.563 405.561C290.076 406.902 304.395 407.255 312.405 406.267C327.857 404.503 343.168 399.352 355.714 391.802L358.975 389.826L362.448 393.213C370.033 400.551 398.386 427.365 398.669 427.506C398.953 427.647 430.071 395.259 430 394.836C429.929 394.624 408.593 374.232 395.551 362.024L391.227 357.932L393.211 354.686C409.869 327.096 413.342 293.649 402.568 262.814C401.009 258.298 396.259 248.137 393.495 243.48L392.148 241.151L410.365 222.17C420.36 211.797 428.511 203.118 428.44 202.906C428.157 202.201 396.259 172.212 395.834 172.212C395.551 172.212 387.541 180.326 377.972 190.346C368.402 200.295 360.463 208.481 360.251 208.551C360.109 208.622 359.188 208.198 358.337 207.563C355.927 205.94 349.831 202.624 346.429 201.072C336.08 196.344 326.439 193.451 315.24 191.828C309.427 190.981 291.99 190.84 286.603 191.616C273.702 193.451 263.141 196.626 252.366 201.989C249.248 203.471 245.633 205.447 244.215 206.293L241.663 207.846L238.757 205.023C237.197 203.471 230.109 196.838 223.092 190.135C216.074 183.502 208.915 176.728 207.214 175.034L204.095 172L188.713 188.37ZM307.726 234.377C318.997 235.718 329.062 239.528 338.348 246.02C343.097 249.336 350.185 256.393 353.517 261.12C372.443 287.793 368.828 324.062 345.011 346.289C324.667 365.2 295.251 369.433 270.513 356.873C252.65 347.771 240.033 331.118 235.992 311.149C234.717 304.798 234.717 292.944 235.992 286.664C237.197 280.454 238.828 276.009 241.876 269.799C254.068 245.385 280.507 231.131 307.726 234.377Z" fill="#3B82F6"/>
<path d="M232.707 48.8593C231.564 44.5915 227.171 42.0474 222.94 43.3178C163.383 61.1963 111.805 99.2665 77.1662 151.107C41.0435 205.168 25.8061 270.518 34.2928 334.981C42.7794 399.444 74.4114 458.623 123.295 501.493C172.179 544.363 234.981 568 300 568C365.019 568 427.821 544.363 476.705 501.493C525.589 458.623 557.221 399.444 565.707 334.981C574.194 270.518 558.956 205.169 522.834 151.107C488.195 99.2665 436.617 61.1964 377.06 43.3178C372.829 42.0474 368.437 44.5916 367.293 48.8593L363.111 64.4687C361.967 68.7364 364.506 73.1101 368.732 74.3976C420.754 90.2452 465.79 123.621 496.094 168.974C527.882 216.548 541.291 274.056 533.822 330.783C526.354 387.511 498.518 439.588 455.5 477.314C412.482 515.04 357.217 535.84 300 535.84C242.783 535.84 187.518 515.039 144.5 477.314C101.482 439.588 73.6459 387.51 66.1776 330.783C58.7094 274.056 72.1183 216.548 103.906 168.974C134.21 123.621 179.247 90.2451 231.268 74.3976C235.494 73.11 238.033 68.7364 236.89 64.4686L232.707 48.8593Z" fill="#3B82F6"/>
<circle cx="300" cy="51" r="26" fill="#3B82F6"/>
</g>
<defs>
<clipPath id="clip0_6754_42512">
<rect width="600" height="600" fill="white"/>
</clipPath>
</defs>
</svg>
