<svg width="600" height="600" viewBox="0 0 600 600" fill="none" xmlns="http://www.w3.org/2000/svg">
<g clip-path="url(#clip0_6754_42621)">
<path d="M300 600C465.685 600 600 465.685 600 300C600 134.315 465.685 0 300 0C134.315 0 0 134.315 0 300C0 465.685 134.315 600 300 600Z" fill="#EEF3FE"/>
<path d="M201.266 185H399.331V233.116H327.153L327.007 265.008C327.02 264.822 327.032 264.635 327.044 264.449C336.798 265.338 345.093 266.227 351.59 266.923L352.396 267.01C352.542 267.027 352.699 267.045 352.866 267.064C359.706 267.854 383.993 270.659 400.314 275.075C404.943 276.319 407.988 277.465 411.145 278.654C411.304 278.714 411.464 278.774 411.625 278.834L411.645 278.842C412.073 279.013 416.707 280.856 422.498 284.011C426.322 286.136 428.453 287.662 429.437 290.223C429.983 291.64 430.038 292.893 429.983 293.765C429.983 294.528 429.929 295.672 429.492 296.926C428.399 299.977 425.831 301.721 421.951 303.901C415.34 307.606 410.969 309.186 410.969 309.186C406.489 310.821 400.369 312.783 392.72 314.472C392.47 314.512 392.091 314.576 391.592 314.66C388.708 315.148 381.794 316.316 372.339 317.523C366.519 318.261 362.417 318.669 356.325 319.275C351.609 319.744 345.7 320.332 336.879 321.283C332.562 321.719 329.066 322.101 326.771 322.373V424H273.826C273.826 407.08 273.812 390.161 273.799 373.241C273.785 356.321 273.771 339.402 273.771 322.482C258.582 321.61 245.796 320.303 236.125 319.104C234.431 318.94 221.7 317.305 206.019 313.982C206.019 313.982 198.424 312.347 185.311 307.388C185.311 307.388 181.76 306.026 176.787 302.811C173.072 300.413 171.542 298.833 170.723 296.762C170.067 295.182 169.958 293.711 170.012 292.73C170.668 291.368 171.706 289.46 173.455 287.553C175.039 285.755 176.951 284.338 180.175 282.54C183.781 280.578 187.387 279.052 193.889 277.091C199.686 275.268 204.236 274.192 205.628 273.862C205.692 273.847 205.75 273.833 205.801 273.821C213.778 271.969 220.608 270.77 225.908 269.952C235.743 268.481 245.687 267.609 265.084 265.92C267.72 265.724 269.987 265.528 271.785 265.372C272.483 265.312 273.111 265.257 273.662 265.212C273.826 266.519 273.935 267.827 273.826 268.971C272.023 269.08 234.705 271.86 217.275 275.075C213.215 275.82 210.096 276.618 205.976 277.672L205.691 277.745C204.708 277.963 197.769 279.815 189.737 283.521C186.896 284.829 183.891 286.409 182.907 289.515C182.579 290.55 182.579 291.531 182.634 292.185C182.907 292.893 183.399 293.929 184.218 295.018C186.295 297.743 188.972 298.942 191.267 299.868C198.534 302.865 202.358 303.901 202.358 303.901L202.719 303.995C209.335 305.738 213.422 306.814 220.936 308.205C228.421 309.568 234.322 310.331 237.273 310.712C258.746 313.328 276.995 313.764 291.146 314.09C295.681 314.199 299.397 314.254 301.855 314.254C321.963 314.417 337.371 313.164 347.479 312.02C356.822 310.984 365.51 309.568 379.716 307.225C380.073 307.161 380.543 307.085 381.114 306.994C382.987 306.693 385.936 306.22 389.496 305.426C395.834 304.064 400.151 302.702 401.462 302.266C404.631 301.23 407.308 300.25 409.275 299.432C409.275 299.432 410.313 298.942 413.756 297.035C414.848 296.435 415.668 295.945 416.433 295.018C417.143 294.201 417.416 293.329 417.58 292.73C417.744 291.967 417.908 290.823 417.58 289.569C416.706 286.3 413.318 284.611 410.587 283.357C402.992 279.924 394.687 277.69 389.933 276.546C388.014 276.177 386.294 275.844 384.744 275.545C378.747 274.386 375.306 273.721 372.831 273.331C356.767 270.824 343.927 270.061 335.622 269.571C333.115 269.424 330.906 269.326 329.063 269.245C328.309 269.212 327.615 269.181 326.988 269.151L326.825 304.554H274.154L273.771 233.389H201.266V185Z" fill="#3B82F6"/>
<path d="M300 77C314.359 77 326 65.3594 326 51C326 36.6406 314.359 25 300 25C285.64 25 274 36.6406 274 51C274 65.3594 285.64 77 300 77Z" fill="#3B82F6"/>
<path d="M222.939 43.3178C227.171 42.0474 231.563 44.5915 232.707 48.8593L236.889 64.4686C238.033 68.7364 235.494 73.11 231.268 74.3976C179.246 90.2451 134.21 123.621 103.906 168.974C72.118 216.548 58.709 274.056 66.1773 330.783C73.6456 387.51 101.482 439.588 144.5 477.314C187.517 515.039 242.783 535.84 300 535.84C357.216 535.84 412.482 515.04 455.5 477.314C498.518 439.588 526.354 387.511 533.822 330.783C541.29 274.056 527.881 216.548 496.093 168.974C465.79 123.621 420.753 90.2452 368.732 74.3976C364.505 73.11 361.967 68.7364 363.11 64.4687L367.293 48.8593C368.436 44.5916 372.828 42.0474 377.06 43.3178C436.617 61.1964 488.195 99.2665 522.834 151.107C558.956 205.169 574.194 270.518 565.707 334.981C557.22 399.444 525.588 458.623 476.704 501.493C427.82 544.363 365.019 568 300 568C234.981 568 172.179 544.363 123.295 501.493C74.4111 458.623 42.7791 399.444 34.2924 334.981C25.8058 270.518 41.0432 205.168 77.1658 151.107C111.805 99.2665 163.383 61.1963 222.939 43.3178Z" fill="#3B82F6"/>
</g>
<defs>
<clipPath id="clip0_6754_42621">
<rect width="600" height="600" fill="white"/>
</clipPath>
</defs>
</svg>
