<svg width="600" height="600" viewBox="0 0 600 600" fill="none" xmlns="http://www.w3.org/2000/svg">
<g clip-path="url(#clip0_6754_42626)">
<path d="M300 600C465.685 600 600 465.685 600 300C600 134.315 465.685 0 300 0C134.315 0 0 134.315 0 300C0 465.685 134.315 600 300 600Z" fill="#EEF3FE"/>
<path d="M355.115 330.168C355.115 300.513 337.121 290.5 302.286 285.686C276.543 281.963 271.613 275.866 271.613 263.863C271.613 251.796 280.321 244.35 296.971 244.35C312.147 244.35 320.92 249.677 324.506 261.873C324.89 263.221 325.658 264.376 326.811 265.211C327.9 266.045 329.244 266.559 330.653 266.559H343.972C344.869 266.559 345.701 266.43 346.47 266.045C347.238 265.66 347.943 265.147 348.519 264.505C349.095 263.863 349.48 263.093 349.736 262.258C349.992 261.424 349.992 260.525 349.864 259.691C345.637 240.306 332.638 228.688 312.211 225.03V204.618C312.211 202.949 311.571 201.345 310.354 200.125C309.137 198.906 307.536 198.264 305.872 198.264H293.193C291.528 198.264 289.927 198.906 288.71 200.125C287.493 201.345 286.853 202.949 286.853 204.618V224.324C261.495 227.854 245.486 244.671 245.486 266.174C245.486 294.031 262.392 304.814 297.739 309.628C321.816 313.543 328.668 318.807 328.668 332.479C328.668 346.15 317.014 355.393 300.621 355.393C278.528 355.393 271.036 345.701 268.539 333.12C268.219 331.644 267.45 330.36 266.362 329.462C265.209 328.499 263.8 327.985 262.328 327.985H247.856C247.023 327.985 246.127 328.178 245.358 328.499C244.59 328.884 243.885 329.398 243.309 330.039C242.733 330.681 242.349 331.452 242.092 332.286C241.836 333.12 241.836 334.019 241.964 334.853C245.614 356.035 259.19 371.568 286.853 375.291V395.382C286.853 397.051 287.493 398.655 288.71 399.875C289.927 401.094 291.528 401.736 293.193 401.736H305.872C307.536 401.736 309.137 401.094 310.354 399.875C311.571 398.655 312.211 397.051 312.211 395.382V375.163C338.401 371.055 355.115 352.89 355.115 330.168ZM255.988 419.388C231.527 410.466 210.459 394.162 195.539 372.852C180.619 351.542 172.614 326.06 172.614 300C172.614 273.94 180.619 248.458 195.539 227.148C210.459 205.774 231.527 189.534 255.988 180.612C257.525 179.906 258.87 178.815 259.83 177.403C260.791 175.991 261.367 174.322 261.431 172.589V160.714C261.559 159.687 261.367 158.596 260.919 157.634C260.471 156.671 259.83 155.836 258.934 155.259C258.101 154.617 257.077 154.296 256.052 154.167C255.028 154.039 253.939 154.232 252.978 154.681C222.241 164.502 195.347 183.886 176.328 210.01C157.31 236.134 147 267.65 147 300.064C147 332.479 157.246 363.994 176.328 390.118C195.411 416.242 222.241 435.627 252.978 445.447C253.939 445.897 254.963 446.089 256.052 445.961C257.077 445.833 258.101 445.512 258.934 444.87C259.766 444.228 260.471 443.458 260.919 442.495C261.367 441.532 261.559 440.505 261.431 439.414V427.539C261.367 425.806 260.791 424.137 259.83 422.725C258.934 421.185 257.589 420.029 255.988 419.388ZM346.022 154.553C345.061 154.103 344.037 153.911 342.948 154.039C341.923 154.167 340.899 154.488 340.066 155.13C339.234 155.772 338.53 156.542 338.081 157.505C337.633 158.468 337.441 159.495 337.569 160.586V172.461C337.633 174.194 338.209 175.863 339.17 177.275C340.13 178.687 341.475 179.778 343.012 180.484C367.473 189.406 388.541 205.709 403.461 227.02C418.381 248.394 426.386 273.812 426.386 299.872C426.386 325.932 418.381 351.414 403.461 372.724C388.541 394.098 367.473 410.337 343.012 419.259C341.411 419.901 340.002 420.992 339.042 422.404C338.081 423.816 337.569 425.55 337.569 427.283V439.157C337.441 440.184 337.633 441.275 338.081 442.238C338.53 443.201 339.17 444.035 340.066 444.613C340.899 445.255 341.923 445.576 342.948 445.704C343.973 445.833 345.061 445.64 346.022 445.191C376.759 435.37 403.653 415.986 422.672 389.862C441.754 363.738 452 332.222 452 299.807C452 267.393 441.754 235.877 422.672 209.753C403.653 183.758 376.823 164.373 346.022 154.553Z" fill="#3B82F6"/>
<path d="M232.707 48.8593C231.564 44.5915 227.171 42.0474 222.94 43.3178C163.383 61.1963 111.805 99.2665 77.1662 151.107C41.0435 205.168 25.8061 270.518 34.2928 334.981C42.7794 399.444 74.4114 458.623 123.295 501.493C172.179 544.363 234.981 568 300 568C365.019 568 427.821 544.363 476.705 501.493C525.589 458.623 557.221 399.444 565.707 334.981C574.194 270.518 558.956 205.169 522.834 151.107C488.195 99.2665 436.617 61.1964 377.06 43.3178C372.829 42.0474 368.437 44.5916 367.293 48.8593L363.111 64.4687C361.967 68.7364 364.506 73.1101 368.732 74.3976C420.754 90.2452 465.79 123.621 496.094 168.974C527.882 216.548 541.291 274.056 533.822 330.783C526.354 387.511 498.518 439.588 455.5 477.314C412.482 515.04 357.217 535.84 300 535.84C242.783 535.84 187.518 515.039 144.5 477.314C101.482 439.588 73.6459 387.51 66.1776 330.783C58.7094 274.056 72.1183 216.548 103.906 168.974C134.21 123.621 179.247 90.2451 231.268 74.3976C235.494 73.11 238.033 68.7364 236.89 64.4686L232.707 48.8593Z" fill="#3B82F6"/>
<circle cx="300" cy="51" r="26" fill="#3B82F6"/>
</g>
<defs>
<clipPath id="clip0_6754_42626">
<rect width="600" height="600" fill="white"/>
</clipPath>
</defs>
</svg>
