<svg width="600" height="600" viewBox="0 0 600 600" fill="none" xmlns="http://www.w3.org/2000/svg">
<g clip-path="url(#clip0_6754_42631)">
<path d="M300 600C465.685 600 600 465.685 600 300C600 134.315 465.685 0 300 0C134.315 0 0 134.315 0 300C0 465.685 134.315 600 300 600Z" fill="#EEF3FE"/>
<path d="M189.856 179.155C252.231 122.087 347.775 122.087 410.151 179.155L421.665 167.635C352.845 104.122 246.844 104.122 178.025 167.635L189.856 179.155Z" fill="#3B82F6"/>
<path d="M432.386 178.151L420.873 189.67C477.914 252.074 477.914 347.662 420.873 410.066L432.386 421.585C495.871 352.735 495.871 246.684 432.386 177.834V178.151Z" fill="#3B82F6"/>
<path d="M179.134 410.172C122.198 347.82 122.198 252.285 179.134 189.881L167.62 178.362C104.135 247.213 104.135 353.263 167.567 422.114L179.134 410.172Z" fill="#3B82F6"/>
<path d="M410.045 420.845C347.67 477.913 252.126 477.913 189.75 420.845L178.236 432.365C247.055 495.878 353.057 495.878 421.876 432.365L410.045 420.845Z" fill="#3B82F6"/>
<path fill-rule="evenodd" clip-rule="evenodd" d="M318.799 223.124C345.002 225.603 365.721 233.62 368.041 257.672C369.834 275.236 362.4 285.785 350.59 291.851C369.992 296.492 382.118 307.991 379.693 333.783C376.74 365.852 352.857 374.292 318.641 376.349V409.842H298.343V376.665H282.157V410H261.912V376.138H221L225.007 351.928C225.007 351.928 239.98 352.139 239.716 351.928C241.614 352.086 243.512 351.453 244.936 350.187C246.359 348.921 247.255 347.128 247.361 345.229V253.98C246.57 248.389 241.456 244.433 235.868 245.066C236.131 244.802 221.158 245.066 221.158 245.066V223.388H262.228V190.053H282.368V222.702C287.798 222.491 293.229 222.491 298.554 222.491V190H318.799V223.124ZM286.732 352.073C303.281 352.311 339.677 352.835 339.677 329.722C339.677 306.168 304.999 306.916 287.952 307.284C285.988 307.326 284.258 307.363 282.843 307.358V352.033C283.958 352.033 285.267 352.052 286.732 352.073ZM286.376 286.991C300.261 287.245 330.292 287.794 330.292 266.744C330.292 245.291 301.392 245.978 287.185 246.316C285.534 246.355 284.081 246.39 282.895 246.385V286.946C283.884 286.946 285.057 286.967 286.376 286.991Z" fill="#3B82F6"/>
<path d="M232.707 48.8593C231.564 44.5915 227.171 42.0474 222.94 43.3178C163.383 61.1963 111.805 99.2665 77.1662 151.107C41.0435 205.168 25.8061 270.518 34.2928 334.981C42.7794 399.444 74.4114 458.623 123.295 501.493C172.179 544.363 234.981 568 300 568C365.019 568 427.821 544.363 476.705 501.493C525.589 458.623 557.221 399.444 565.707 334.981C574.194 270.518 558.956 205.169 522.834 151.107C488.195 99.2665 436.617 61.1964 377.06 43.3178C372.829 42.0474 368.437 44.5916 367.293 48.8593L363.111 64.4687C361.967 68.7364 364.506 73.1101 368.732 74.3976C420.754 90.2452 465.79 123.621 496.094 168.974C527.882 216.548 541.291 274.056 533.822 330.783C526.354 387.511 498.518 439.588 455.5 477.314C412.482 515.04 357.217 535.84 300 535.84C242.783 535.84 187.518 515.039 144.5 477.314C101.482 439.588 73.6459 387.51 66.1776 330.783C58.7094 274.056 72.1183 216.548 103.906 168.974C134.21 123.621 179.247 90.2451 231.268 74.3976C235.494 73.11 238.033 68.7364 236.89 64.4686L232.707 48.8593Z" fill="#3B82F6"/>
<circle cx="300" cy="51" r="26" fill="#3B82F6"/>
</g>
<defs>
<clipPath id="clip0_6754_42631">
<rect width="600" height="600" fill="white"/>
</clipPath>
</defs>
</svg>
