<svg width="600" height="600" viewBox="0 0 600 600" fill="none" xmlns="http://www.w3.org/2000/svg">
<g clip-path="url(#clip0_6754_42616)">
<path d="M300 600C465.685 600 600 465.685 600 300C600 134.315 465.685 0 300 0C134.315 0 0 134.315 0 300C0 465.685 134.315 600 300 600Z" fill="#EEF3FE"/>
<path d="M367.104 249.8L394.606 239.971C396.756 246.354 398.85 252.738 401 259.065C379.553 267.256 358.106 275.391 336.66 283.582C329.812 261.381 322.909 239.123 316.062 216.922C322.456 214.945 328.85 213.024 335.188 211.047C338.81 221.837 342.375 232.627 345.997 243.417C354.994 222.797 351.995 199.523 338.244 183.874C323.871 167.548 303.782 166.249 299.651 166.079C295.407 166.136 274.47 166.757 258.908 183.366C243.629 199.579 240.8 223.362 248.326 242.343C256.644 263.358 275.035 272.002 279.223 273.866V298.383C272.263 296.011 251.948 288.158 237.008 266.804C223.088 246.976 221.843 226.921 221.73 219.408C221.39 191.331 238.819 173.028 243.573 168.113C249.231 162.238 269.66 142.918 300.613 144.048C337.339 145.403 357.541 174.44 359.804 177.83C381.873 210.708 368.405 246.58 367.104 249.8ZM252.74 355.101C253.928 366.004 255.173 376.907 256.361 387.866C263.322 387.075 270.282 386.341 277.242 385.55C274.583 362.05 271.923 338.549 269.264 315.105L200 329.68C200.905 336.515 201.754 343.351 202.66 350.186C212.506 348.548 222.296 346.853 232.142 345.215C217.203 370.41 217.995 401.65 234.122 424.925C255.682 456.052 293.087 456.052 296.086 455.995C301.122 456.052 333.095 455.939 354.711 430.913C369.367 413.909 371.461 394.758 371.914 387.923C372.48 380.409 372.932 360.242 360.653 339.283C347.128 316.122 326.644 306.688 319.91 303.863V330.697C324.55 333.069 334.622 339.114 341.753 351.203C350.58 366.061 349.335 380.522 348.769 385.946C348.147 392.16 346.619 405.548 336.094 417.355C321.551 433.681 301.122 434.19 298.01 434.246C296.199 434.246 268.471 434.02 253.249 410.407C242.78 393.798 242.497 372.388 252.74 355.101ZM289.239 202.404H311.365V397.865H289.239V202.404Z" fill="#3B82F6"/>
<path d="M300 77C314.359 77 326 65.3594 326 51C326 36.6406 314.359 25 300 25C285.64 25 274 36.6406 274 51C274 65.3594 285.64 77 300 77Z" fill="#3B82F6"/>
<path d="M222.939 43.3178C227.171 42.0474 231.563 44.5915 232.707 48.8593L236.889 64.4686C238.033 68.7364 235.494 73.11 231.268 74.3976C179.246 90.2451 134.21 123.621 103.906 168.974C72.118 216.548 58.709 274.056 66.1773 330.783C73.6456 387.51 101.482 439.588 144.5 477.314C187.517 515.039 242.783 535.84 300 535.84C357.216 535.84 412.482 515.04 455.5 477.314C498.518 439.588 526.354 387.511 533.822 330.783C541.29 274.056 527.881 216.548 496.093 168.974C465.79 123.621 420.753 90.2452 368.732 74.3976C364.505 73.11 361.967 68.7364 363.11 64.4687L367.293 48.8593C368.436 44.5916 372.828 42.0474 377.06 43.3178C436.617 61.1964 488.195 99.2665 522.834 151.107C558.956 205.169 574.194 270.518 565.707 334.981C557.22 399.444 525.588 458.623 476.704 501.493C427.82 544.363 365.019 568 300 568C234.981 568 172.179 544.363 123.295 501.493C74.4111 458.623 42.7791 399.444 34.2924 334.981C25.8058 270.518 41.0432 205.168 77.1658 151.107C111.805 99.2665 163.383 61.1963 222.939 43.3178Z" fill="#3B82F6"/>
</g>
<defs>
<clipPath id="clip0_6754_42616">
<rect width="600" height="600" fill="white"/>
</clipPath>
</defs>
</svg>
