<svg width="600" height="600" viewBox="0 0 600 600" fill="none" xmlns="http://www.w3.org/2000/svg">
<g clip-path="url(#clip0_6754_42506)">
<path d="M300 600C465.685 600 600 465.685 600 300C600 134.315 465.685 0 300 0C134.315 0 0 134.315 0 300C0 465.685 134.315 600 300 600Z" fill="#EEF3FE"/>
<path fill-rule="evenodd" clip-rule="evenodd" d="M300 321.834C280.946 321.834 265.5 306.843 265.5 288.351C265.5 269.858 280.946 254.867 300 254.867C319.054 254.867 334.5 269.858 334.5 288.351C334.5 306.843 319.054 321.834 300 321.834ZM300 301.925C291.981 301.925 285.474 295.446 285.474 287.446C285.474 279.446 291.981 272.966 300 272.966C308.02 272.966 314.526 279.446 314.526 287.446C314.526 295.446 308.02 301.925 300 301.925Z" fill="#3B82F6"/>
<path fill-rule="evenodd" clip-rule="evenodd" d="M244.848 206L162 288.155L300 425L438 288.155L355.152 206H244.848ZM240.993 259.352C273.581 226.828 326.418 226.828 359.007 259.352L387.158 287.446L359.007 315.541C326.418 348.065 273.581 348.065 240.993 315.541L212.842 287.446L240.993 259.352Z" fill="#3B82F6"/>
<path d="M300 77C314.36 77 326 65.3594 326 51C326 36.6406 314.36 25 300 25C285.641 25 274 36.6406 274 51C274 65.3594 285.641 77 300 77Z" fill="#3B82F6"/>
<path d="M222.94 43.3178C227.172 42.0474 231.564 44.5915 232.707 48.8593L236.89 64.4686C238.033 68.7364 235.495 73.11 231.268 74.3976C179.247 90.2451 134.21 123.621 103.906 168.974C72.1185 216.548 58.7095 274.056 66.1778 330.783C73.6461 387.51 101.482 439.588 144.5 477.314C187.518 515.039 242.783 535.84 300 535.84C357.217 535.84 412.482 515.04 455.5 477.314C498.518 439.588 526.354 387.511 533.823 330.783C541.291 274.056 527.882 216.548 496.094 168.974C465.79 123.621 420.754 90.2452 368.732 74.3976C364.506 73.11 361.967 68.7364 363.111 64.4687L367.293 48.8593C368.437 44.5916 372.829 42.0474 377.06 43.3178C436.617 61.1964 488.195 99.2665 522.834 151.107C558.957 205.169 574.194 270.518 565.707 334.981C557.221 399.444 525.589 458.623 476.705 501.493C427.821 544.363 365.019 568 300 568C234.981 568 172.179 544.363 123.295 501.493C74.4116 458.623 42.7796 399.444 34.2929 334.981C25.8063 270.518 41.0437 205.168 77.1663 151.107C111.805 99.2665 163.383 61.1963 222.94 43.3178Z" fill="#3B82F6"/>
</g>
<defs>
<clipPath id="clip0_6754_42506">
<rect width="600" height="600" fill="white"/>
</clipPath>
</defs>
</svg>
