<svg width="600" height="600" viewBox="0 0 600 600" fill="none" xmlns="http://www.w3.org/2000/svg">
<rect width="600" height="600" rx="140" fill="#3F75FF"/>
<path d="M152.433 131H269.012C274.274 131 278.635 135.05 278.988 140.264L290.34 307.981C290.728 313.715 286.15 318.578 280.364 318.578H239.008C232.957 318.578 228.292 323.875 229.099 329.832L246.405 457.674C247.857 468.4 233.439 473.369 227.89 464.054L119.397 281.907C116.224 276.581 118.677 269.7 124.517 267.543L167.821 251.549C172.836 249.696 175.494 244.25 173.851 239.191L142.917 143.98C140.834 137.568 145.649 131 152.433 131Z" fill="white"/>
<path d="M330.701 468.917C321.113 469.899 313.276 462.008 313.276 452.387V405.936C313.276 396.321 321.166 388.697 330.62 386.798C370.508 378.768 400.547 343.599 400.547 301.422C400.547 259.244 370.508 224.075 330.62 216.045C321.166 214.147 313.276 206.529 313.276 196.907V150.457C313.276 140.836 321.113 132.939 330.701 133.926C415.697 142.63 482 214.298 482 301.422C482 388.546 415.697 460.214 330.701 468.917Z" fill="white"/>
</svg>
