<svg width="600" height="600" viewBox="0 0 600 600" fill="none" xmlns="http://www.w3.org/2000/svg">
<path d="M66.487 33H250.964C259.291 33 266.192 39.399 266.75 47.6368L284.714 312.609C285.328 321.668 278.084 329.351 268.928 329.351H203.485C193.909 329.351 186.529 337.72 187.805 347.131L215.19 549.106C217.488 566.053 194.672 573.902 185.893 559.185L14.2107 271.416C9.19008 263 13.0711 252.13 22.3132 248.722L90.8371 223.453C98.7742 220.526 102.98 211.921 100.38 203.93L51.4298 53.5072C48.1331 43.3762 55.7517 33 66.487 33Z" fill="#3F75FF"/>
<path d="M348.582 566.869C333.41 568.42 321.009 555.953 321.009 540.753V467.366C321.009 452.175 333.493 440.131 348.453 437.131C411.574 424.444 459.108 368.881 459.108 302.246C459.108 235.611 411.574 180.048 348.453 167.361C333.493 164.362 321.009 152.326 321.009 137.126V63.7393C321.009 48.5391 333.41 36.0634 348.582 37.6228C483.082 51.3737 588 164.6 588 302.246C588 439.892 483.082 553.119 348.582 566.869Z" fill="#3F75FF"/>
</svg>
