<svg xmlns="http://www.w3.org/2000/svg" width="600" height="600" viewBox="0 0 600 600"><title>instadapp combined</title><path d="M85.343,247a214.435,214.435,0,0,0,129.95,197.11,12.772,12.772,0,0,0,17.729-11.81V61.7a12.772,12.772,0,0,0-17.729-11.81A214.44,214.44,0,0,0,85.343,247Z" fill="#11263f"/><path d="M299.744,45.805v81.641a12.814,12.814,0,0,0,11.506,12.719,107.455,107.455,0,0,1,0,213.671,12.813,12.813,0,0,0-11.506,12.719V448.2A12.779,12.779,0,0,0,312.5,461c.254,0,.509-.007.763-.021,118.177-7.462,207.929-109.312,200.468-227.49A214.4,214.4,0,0,0,313.261,33.022a12.779,12.779,0,0,0-13.5,12.02C299.751,45.3,299.744,45.551,299.744,45.805Z" fill="#11263f"/><rect x="52.038" y="500.899" width="15.209" height="57.329" rx="2.182" fill="#11263f"/><path d="M120.165,530.694a2.182,2.182,0,0,1-3.893,1.355L92.249,501.726h0a2.183,2.183,0,0,0-1.71-.826H78.514a2.182,2.182,0,0,0-2.182,2.182h0v52.964a2.182,2.182,0,0,0,2.182,2.182H89.268a2.181,2.181,0,0,0,2.182-2.182h0v-27.8a2.183,2.183,0,0,1,3.9-1.348l23.966,30.491h0a2.182,2.182,0,0,0,1.716.834h12.161a2.182,2.182,0,0,0,2.182-2.182h0V503.081a2.182,2.182,0,0,0-2.182-2.182H122.347a2.182,2.182,0,0,0-2.182,2.182h0Z" fill="#11263f"/><path d="M193.268,533.975h0a11.58,11.58,0,0,0-2.4-2.985,26.271,26.271,0,0,0-2.574-2.084A20.07,20.07,0,0,0,185,527.1c-1.207-.539-2.281-.984-3.193-1.327-.928-.346-2.139-.725-3.6-1.129-1.406-.388-2.568-.693-3.456-.912s-2.051-.487-3.462-.807q-2.274-.52-3.341-.762c-.676-.154-1.638-.4-2.861-.734a21.944,21.944,0,0,1-2.512-.8c-.56-.235-1.24-.556-2.021-.957a4.033,4.033,0,0,1-1.115-.73,4.494,4.494,0,0,1-.658-.97,1.434,1.434,0,0,1-.158-.7,3.453,3.453,0,0,1,2.022-3.351,14.741,14.741,0,0,1,7.111-1.534,15.53,15.53,0,0,1,7.635,1.689,6.714,6.714,0,0,1,3.4,4.475l.1.4a2.181,2.181,0,0,0,2.553,1.6l11.342-2.33a2.182,2.182,0,0,0,1.7-2.577c-.008-.04-.017-.079-.027-.118l-.118-.446A17.211,17.211,0,0,0,190.5,507.9a20.025,20.025,0,0,0-6.6-4.823,35.292,35.292,0,0,0-7.866-2.529,45.143,45.143,0,0,0-8.817-.83c-6.886,0-12.708,1.474-17.3,4.381a14.993,14.993,0,0,0-7.5,13.318,13.482,13.482,0,0,0,.8,4.673,14.62,14.62,0,0,0,1.914,3.639,13.21,13.21,0,0,0,3.217,3.005,29.327,29.327,0,0,0,3.418,2.039,31,31,0,0,0,4.146,1.632c1.6.521,2.985.936,4.119,1.232,1.082.284,2.517.643,4.262,1.07l.193.041s.1.017.373.09l.091.024c2.173.512,3.8.907,4.847,1.175.991.255,2.3.66,3.889,1.2a12.392,12.392,0,0,1,3.01,1.35,6.508,6.508,0,0,1,1.515,1.556,2.6,2.6,0,0,1,.511,1.481,3.585,3.585,0,0,1-2.022,3.537,14.871,14.871,0,0,1-7.293,1.576,17.344,17.344,0,0,1-8.939-2.1,7.372,7.372,0,0,1-3.78-5.206l-.083-.429a2.182,2.182,0,0,0-2.55-1.733l-12.033,2.28a2.184,2.184,0,0,0-1.738,2.551c0,.022.009.044.014.067l.1.439c1.193,5.375,4.513,9.6,9.867,12.552,5.058,2.792,11.362,4.207,18.735,4.207a44.446,44.446,0,0,0,9.477-.97,30.465,30.465,0,0,0,8.165-2.993,16.779,16.779,0,0,0,6.192-5.76,15.474,15.474,0,0,0,2.335-8.421,14.08,14.08,0,0,0-.563-4.018A16.921,16.921,0,0,0,193.268,533.975Z" fill="#11263f"/><path d="M242.923,500.9H200.134a2.182,2.182,0,0,0-2.183,2.182h0v7.912a2.182,2.182,0,0,0,2.182,2.182h11.654a2.182,2.182,0,0,1,2.182,2.183h0v40.688a2.182,2.182,0,0,0,2.182,2.182h10.8a2.182,2.182,0,0,0,2.182-2.182h0V515.358a2.182,2.182,0,0,1,2.182-2.183h11.609a2.182,2.182,0,0,0,2.182-2.182h0v-7.912a2.182,2.182,0,0,0-2.182-2.182Z" fill="#11263f"/><path d="M260.526,502.186,236.7,555.151a2.181,2.181,0,0,0,1.99,3.077H249.9a2.182,2.182,0,0,0,2-1.317l3.945-9.139a2.184,2.184,0,0,1,2-1.318h22.54a2.184,2.184,0,0,1,2,1.311l3.986,9.152a2.179,2.179,0,0,0,2,1.311h11.163a2.182,2.182,0,0,0,1.99-3.077l-23.822-52.965a2.184,2.184,0,0,0-1.99-1.285h-13.2A2.184,2.184,0,0,0,260.526,502.186Zm12.81,32.289h-8.392a2.181,2.181,0,0,1-2-3.049l4.2-9.689a2.182,2.182,0,0,1,4,0l4.2,9.689a2.182,2.182,0,0,1-2,3.049Z" fill="#11263f"/><path d="M395.7,502.186l-23.822,52.965a2.182,2.182,0,0,0,1.99,3.077h11.207a2.182,2.182,0,0,0,2-1.317l3.945-9.139a2.184,2.184,0,0,1,2-1.318h22.539a2.182,2.182,0,0,1,2,1.311l3.986,9.152a2.181,2.181,0,0,0,2,1.311h11.163a2.182,2.182,0,0,0,1.99-3.077l-23.822-52.965a2.184,2.184,0,0,0-1.99-1.285h-13.2A2.184,2.184,0,0,0,395.7,502.186Zm12.811,32.289h-8.394a2.181,2.181,0,0,1-2-3.051l4.2-9.689a2.183,2.183,0,0,1,4,0l4.194,9.689a2.181,2.181,0,0,1-2,3.051Z" fill="#11263f"/><path d="M481.68,503.37h0a25.884,25.884,0,0,0-11.487-2.47H444.465a2.181,2.181,0,0,0-2.182,2.181h0v52.964a2.182,2.182,0,0,0,2.182,2.182H455.31a2.182,2.182,0,0,0,2.182-2.182v-15.4a2.182,2.182,0,0,1,2.183-2.182h10.518c6.5,0,11.836-1.751,15.872-5.2a17.084,17.084,0,0,0,6.23-13.506,17.555,17.555,0,0,0-2.745-9.565A18.992,18.992,0,0,0,481.68,503.37Zm-4.322,16.277a6.055,6.055,0,0,1-2.1,4.955c-1.489,1.277-3.775,1.925-6.792,1.925h-8.794a2.183,2.183,0,0,1-2.183-2.182h0v-9.4a2.182,2.182,0,0,1,2.182-2.182h8.8c2.98,0,5.254.663,6.757,1.971A6.067,6.067,0,0,1,477.358,519.647Z" fill="#11263f"/><path d="M544.719,510.194a19.005,19.005,0,0,0-7.869-6.825,25.891,25.891,0,0,0-11.488-2.47H499.634a2.182,2.182,0,0,0-2.182,2.182v52.965a2.182,2.182,0,0,0,2.182,2.182h10.845a2.181,2.181,0,0,0,2.182-2.181h0v-15.4a2.182,2.182,0,0,1,2.183-2.182h10.518c6.5,0,11.836-1.751,15.871-5.2a17.082,17.082,0,0,0,6.231-13.506A17.566,17.566,0,0,0,544.719,510.194Zm-12.192,9.453a6.057,6.057,0,0,1-2.1,4.955c-1.49,1.277-3.775,1.925-6.792,1.925h-8.8a2.181,2.181,0,0,1-2.182-2.182h0v-9.4a2.182,2.182,0,0,1,2.182-2.182h8.8c2.98,0,5.254.663,6.757,1.971a6.056,6.056,0,0,1,2.132,4.909Z" fill="#11263f"/><path d="M300.094,529.5a36.574,36.574,0,0,0,22.165,33.619,2.178,2.178,0,0,0,3.023-2.014V497.9a2.179,2.179,0,0,0-3.023-2.014A36.574,36.574,0,0,0,300.094,529.5Z" fill="#11263f"/><path d="M336.662,495.184v13.925a2.184,2.184,0,0,0,1.962,2.169,18.327,18.327,0,0,1,0,36.442,2.187,2.187,0,0,0-1.962,2.17v13.926A2.18,2.18,0,0,0,338.838,566c.043,0,.086,0,.13,0a36.569,36.569,0,0,0,0-72.992,2.179,2.179,0,0,0-2.3,2.05C336.663,495.1,336.662,495.141,336.662,495.184Z" fill="#11263f"/></svg>