<svg xmlns="http://www.w3.org/2000/svg" width="300" height="300" viewBox="0 0 300 300"><title>instadapp logo outline-01</title><path d="M43.168,150.021a106.434,106.434,0,0,0,64.5,97.835,6.34,6.34,0,0,0,8.8-5.862V58.047a6.34,6.34,0,0,0-8.8-5.862A106.436,106.436,0,0,0,43.168,150.021Z" fill="none" stroke="#11263f" stroke-miterlimit="10" stroke-width="6"/><path d="M149.585,50.158V90.68a6.36,6.36,0,0,0,5.711,6.313,53.335,53.335,0,0,1,0,106.055,6.36,6.36,0,0,0-5.711,6.313v40.522a6.343,6.343,0,0,0,6.709,6.345,106.419,106.419,0,0,0,0-212.415A6.343,6.343,0,0,0,149.585,50.158Z" fill="none" stroke="#11263f" stroke-miterlimit="10" stroke-width="6"/></svg>