<svg width="1195" height="177" viewBox="0 0 1195 177" fill="none" xmlns="http://www.w3.org/2000/svg">
<path d="M31.422 19.0537H5.264C2.35677 19.0537 0 21.4105 0 24.3177V152.071C0 154.978 2.35677 157.335 5.264 157.335H31.422C34.3292 157.335 36.686 154.978 36.686 152.071V24.3177C36.686 21.4105 34.3292 19.0537 31.422 19.0537Z" fill="#11263F"/>
<path d="M164.324 90.9197C164.324 92.0127 163.984 93.0786 163.351 93.9696C162.718 94.8606 161.823 95.5324 160.791 95.8918C159.759 96.2511 158.641 96.2802 157.591 95.9751C156.542 95.6699 155.613 95.0456 154.935 94.1887L96.9897 21.0477C96.4968 20.4264 95.8699 19.9244 95.1558 19.5793C94.4417 19.2341 93.6588 19.0548 92.8657 19.0547H63.8597C62.4638 19.0547 61.1252 19.6092 60.1382 20.5962C59.1512 21.5832 58.5967 22.9219 58.5967 24.3177V152.071C58.5967 153.467 59.1512 154.805 60.1382 155.792C61.1252 156.779 62.4638 157.334 63.8597 157.334H89.8007C90.4918 157.334 91.1762 157.198 91.8147 156.933C92.4533 156.669 93.0335 156.281 93.5222 155.792C94.0109 155.304 94.3986 154.723 94.6631 154.085C94.9275 153.446 95.0637 152.762 95.0637 152.071V85.0277C95.0644 83.9337 95.4059 82.8671 96.0407 81.9762C96.6756 81.0852 97.5723 80.4142 98.6062 80.0564C99.64 79.6986 100.76 79.6719 101.809 79.9798C102.859 80.2878 103.787 80.9151 104.464 81.7747L162.273 155.322C162.765 155.949 163.394 156.455 164.111 156.804C164.828 157.152 165.614 157.334 166.412 157.334H195.745C197.141 157.334 198.479 156.779 199.466 155.792C200.453 154.805 201.008 153.467 201.008 152.071V24.3167C201.008 22.9209 200.453 21.5822 199.466 20.5952C198.479 19.6082 197.141 19.0537 195.745 19.0537H169.588C168.896 19.0536 168.212 19.1896 167.573 19.454C166.935 19.7185 166.354 20.1061 165.866 20.5948C165.377 21.0836 164.989 21.6638 164.724 22.3024C164.46 22.941 164.324 23.6255 164.324 24.3167V90.9197Z" fill="#11263F"/>
<path d="M340.653 98.8337C339.139 96.1298 337.186 93.6966 334.874 91.6337C332.912 89.8296 330.839 88.1509 328.666 86.6077C326.159 84.9087 323.499 83.4493 320.719 82.2487C317.809 80.9487 315.219 79.8747 313.019 79.0487C310.781 78.2137 307.86 77.2977 304.337 76.3247C300.946 75.3897 298.143 74.6517 296 74.1247C293.857 73.5977 291.054 72.9497 287.651 72.1787C283.995 71.342 281.308 70.729 279.592 70.3397C277.962 69.9697 275.64 69.3747 272.692 68.5687C270.635 68.0498 268.611 67.4066 266.632 66.6427C265.281 66.0767 263.642 65.3007 261.757 64.3347C260.769 63.9006 259.859 63.3051 259.067 62.5727C258.439 61.8649 257.906 61.0791 257.48 60.2347C257.211 59.7092 257.08 59.1244 257.099 58.5347C257.099 54.7497 258.559 52.3347 261.978 50.4527C266.446 47.9987 272.217 46.7527 279.13 46.7527C286.53 46.7527 292.73 48.1237 297.545 50.8277C299.608 51.9289 301.408 53.4638 302.822 55.3269C304.236 57.19 305.23 59.3371 305.735 61.6207L305.984 62.5927C306.318 63.9035 307.145 65.0351 308.292 65.7526C309.438 66.4701 310.818 66.7183 312.143 66.4457L339.499 60.8237C340.2 60.6797 340.865 60.3942 341.452 59.9846C342.039 59.575 342.536 59.05 342.914 58.4415C343.291 57.8331 343.54 57.1541 343.646 56.4461C343.752 55.7381 343.712 55.0159 343.53 54.3237L343.247 53.2487C341.58 46.8232 338.397 40.8908 333.965 35.9487C329.516 31.0194 324.099 27.0592 318.053 24.3147C311.989 21.5459 305.62 19.4986 299.079 18.2147C292.072 16.8531 284.949 16.1833 277.812 16.2147C261.203 16.2147 247.16 19.7697 236.073 26.7797C224.063 34.3797 217.973 45.1797 217.973 58.9047C217.942 62.7457 218.593 66.5617 219.894 70.1757C221.011 73.3045 222.565 76.2595 224.511 78.9527C226.673 81.7864 229.295 84.2366 232.27 86.2007C234.903 88.0262 237.658 89.6697 240.515 91.1197C243.749 92.6702 247.091 93.986 250.515 95.0567C254.371 96.3137 257.715 97.3137 260.45 98.0287C263.061 98.7127 266.52 99.5797 270.731 100.608L271.196 100.708C271.206 100.708 271.448 100.75 272.096 100.926L272.315 100.982C277.556 102.217 281.491 103.171 284.007 103.817C286.396 104.433 289.553 105.41 293.386 106.717C295.941 107.474 298.383 108.569 300.648 109.973C302.066 111.011 303.301 112.279 304.3 113.726C305.069 114.761 305.5 116.008 305.534 117.297C305.58 121.33 304.122 123.882 300.656 125.83C296.168 128.353 290.25 129.63 283.066 129.63C274.413 129.63 267.159 127.924 261.505 124.56C256.337 121.486 253.439 117.496 252.386 112.003L252.186 110.97C251.924 109.6 251.129 108.391 249.976 107.607C248.823 106.823 247.406 106.529 246.036 106.789L217.011 112.289C216.318 112.42 215.659 112.689 215.072 113.08C214.485 113.471 213.983 113.976 213.595 114.565C213.208 115.154 212.942 115.815 212.814 116.508C212.687 117.201 212.7 117.913 212.853 118.602L213.089 119.662C215.968 132.627 223.975 142.814 236.889 149.938C249.089 156.672 264.295 160.086 282.08 160.086C289.761 160.127 297.424 159.342 304.937 157.745C311.813 156.293 318.446 153.862 324.632 150.526C330.715 147.246 335.857 142.464 339.568 136.634C343.357 130.545 345.313 123.493 345.2 116.322C345.217 113.042 344.76 109.778 343.842 106.63C343.051 103.928 341.982 101.315 340.653 98.8337V98.8337Z" fill="#11263F"/>
<path d="M460.423 19.0537H357.212C356.521 19.0536 355.837 19.1896 355.198 19.454C354.559 19.7185 353.979 20.1061 353.49 20.5948C353.001 21.0836 352.613 21.6638 352.349 22.3024C352.084 22.941 351.948 23.6255 351.948 24.3167V43.4007C351.948 44.092 352.084 44.7764 352.349 45.415C352.613 46.0536 353.001 46.6339 353.49 47.1226C353.979 47.6113 354.559 47.999 355.198 48.2634C355.837 48.5278 356.521 48.6639 357.212 48.6637H385.32C386.716 48.6637 388.055 49.2183 389.042 50.2055C390.03 51.1927 390.584 52.5316 390.584 53.9277V152.071C390.584 153.467 391.139 154.805 392.126 155.792C393.113 156.779 394.451 157.334 395.847 157.334H421.897C423.293 157.334 424.632 156.779 425.619 155.792C426.606 154.805 427.16 153.467 427.16 152.071V53.9277C427.16 52.5316 427.715 51.1927 428.702 50.2055C429.689 49.2183 431.028 48.6637 432.424 48.6637H460.424C461.115 48.6637 461.8 48.5276 462.438 48.2631C463.077 47.9986 463.657 47.6109 464.146 47.1222C464.634 46.6335 465.022 46.0533 465.287 45.4148C465.551 44.7763 465.687 44.0919 465.687 43.4007V24.3167C465.687 23.6255 465.551 22.941 465.286 22.3024C465.022 21.6638 464.634 21.0836 464.145 20.5948C463.657 20.1061 463.076 19.7185 462.438 19.454C461.799 19.1896 461.114 19.0536 460.423 19.0537V19.0537Z" fill="#11263F"/>
<path d="M502.881 22.1579L445.421 149.912C445.061 150.713 444.907 151.592 444.973 152.469C445.04 153.345 445.324 154.191 445.802 154.929C446.279 155.667 446.933 156.274 447.705 156.694C448.477 157.114 449.342 157.334 450.221 157.334H477.252C478.28 157.334 479.285 157.033 480.144 156.468C481.003 155.904 481.678 155.1 482.085 154.157L491.6 132.112C492.008 131.168 492.683 130.365 493.541 129.8C494.4 129.236 495.405 128.935 496.433 128.935H550.802C551.827 128.935 552.83 129.234 553.687 129.796C554.544 130.357 555.219 131.157 555.628 132.097L565.242 154.172C565.651 155.112 566.326 155.912 567.183 156.473C568.041 157.035 569.043 157.334 570.068 157.334H596.992C597.871 157.334 598.736 157.114 599.508 156.694C600.28 156.274 600.935 155.667 601.412 154.929C601.889 154.191 602.174 153.345 602.24 152.469C602.307 151.592 602.153 150.713 601.792 149.912L544.332 22.1579C543.916 21.2339 543.241 20.4498 542.389 19.8999C541.538 19.35 540.546 19.0576 539.532 19.0579H507.682C506.668 19.0574 505.676 19.3497 504.824 19.8996C503.973 20.4496 503.298 21.2337 502.881 22.1579V22.1579ZM533.781 100.041H513.537C512.664 100.041 511.805 99.8241 511.037 99.4097C510.269 98.9952 509.616 98.3962 509.137 97.6665C508.658 96.9369 508.368 96.0996 508.293 95.23C508.218 94.3604 508.36 93.4857 508.707 92.6849L518.831 69.3149C519.239 68.3726 519.914 67.5701 520.772 67.0064C521.63 66.4427 522.634 66.1424 523.661 66.1424C524.688 66.1424 525.692 66.4427 526.551 67.0064C527.409 67.5701 528.083 68.3726 528.491 69.3149L538.615 92.6849C538.962 93.4857 539.105 94.3604 539.03 95.23C538.955 96.0996 538.665 96.9369 538.186 97.6665C537.707 98.3962 537.054 98.9952 536.285 99.4097C535.517 99.8241 534.658 100.041 533.785 100.041H533.781Z" fill="#11263F"/>
<path d="M828.922 22.1579L771.461 149.912C771.1 150.713 770.947 151.592 771.013 152.469C771.08 153.345 771.365 154.191 771.842 154.928C772.319 155.666 772.974 156.273 773.745 156.693C774.517 157.113 775.382 157.334 776.261 157.334H803.295C804.322 157.334 805.328 157.033 806.187 156.468C807.045 155.904 807.72 155.1 808.128 154.157L817.643 132.112C818.05 131.168 818.725 130.365 819.584 129.8C820.443 129.236 821.448 128.935 822.476 128.935H876.843C877.868 128.935 878.87 129.234 879.728 129.796C880.585 130.357 881.259 131.157 881.669 132.097L891.282 154.172C891.691 155.112 892.366 155.911 893.223 156.473C894.08 157.035 895.083 157.334 896.108 157.334H923.033C923.912 157.334 924.777 157.114 925.549 156.694C926.321 156.274 926.975 155.667 927.452 154.929C927.93 154.191 928.214 153.345 928.281 152.469C928.347 151.592 928.193 150.713 927.833 149.912L870.373 22.1579C869.956 21.2339 869.281 20.4498 868.43 19.8999C867.578 19.35 866.586 19.0576 865.573 19.0579H833.723C832.709 19.0574 831.717 19.3497 830.865 19.8996C830.013 20.4496 829.338 21.2337 828.922 22.1579V22.1579ZM859.822 100.041H839.577C838.704 100.04 837.845 99.8227 837.077 99.4076C836.309 98.9925 835.657 98.393 835.178 97.6629C834.7 96.9329 834.41 96.0953 834.336 95.2256C834.262 94.356 834.405 93.4815 834.753 92.6809L844.877 69.3109C845.285 68.3686 845.959 67.5661 846.817 67.0024C847.676 66.4387 848.68 66.1384 849.707 66.1384C850.734 66.1384 851.738 66.4387 852.596 67.0024C853.454 67.5661 854.129 68.3686 854.537 69.3109L864.653 92.6809C865.001 93.4817 865.144 94.3565 865.069 95.2264C864.995 96.0963 864.705 96.9341 864.226 97.6642C863.748 98.3943 863.095 98.9938 862.326 99.4087C861.558 99.8236 860.699 100.041 859.826 100.041H859.822Z" fill="#11263F"/>
<path d="M1036.32 25.0118C1027.66 20.9289 1018.18 18.8908 1008.61 19.0548H946.552C945.861 19.0547 945.176 19.1907 944.538 19.4552C943.899 19.7196 943.319 20.1072 942.83 20.596C942.341 21.0847 941.953 21.6649 941.689 22.3035C941.424 22.9421 941.288 23.6266 941.288 24.3178V152.071C941.288 152.762 941.424 153.447 941.689 154.085C941.953 154.724 942.341 155.304 942.83 155.793C943.319 156.281 943.899 156.669 944.538 156.933C945.176 157.198 945.861 157.334 946.552 157.334H972.711C974.107 157.334 975.445 156.779 976.432 155.792C977.419 154.805 977.974 153.467 977.974 152.071V114.937C977.974 113.541 978.529 112.202 979.516 111.215C980.503 110.227 981.842 109.673 983.238 109.673H1008.61C1024.28 109.673 1037.16 105.45 1046.89 97.1208C1051.69 93.175 1055.54 88.1949 1058.14 82.5534C1060.74 76.9118 1062.03 70.7548 1061.92 64.5428C1061.98 56.3756 1059.69 48.3643 1055.3 41.4738C1050.63 34.3247 1044.06 28.6229 1036.32 25.0118V25.0118ZM1025.89 64.2738C1025.89 69.4678 1024.28 73.2658 1020.83 76.2248C1017.24 79.3068 1011.73 80.8688 1004.45 80.8688H983.236C982.545 80.869 981.86 80.7329 981.222 80.4685C980.583 80.2041 980.003 79.8164 979.514 79.3277C979.025 78.839 978.637 78.2587 978.373 77.6201C978.108 76.9815 977.972 76.2971 977.972 75.6058V52.9418C977.972 52.2506 978.108 51.5661 978.373 50.9275C978.637 50.2889 979.025 49.7087 979.514 49.22C980.003 48.7312 980.583 48.3436 981.222 48.0792C981.86 47.8147 982.545 47.6787 983.236 47.6788H1004.45C1011.64 47.6788 1017.13 49.2788 1020.75 52.4328C1024.25 55.4808 1025.89 59.2468 1025.89 64.2738Z" fill="#11263F"/>
<path d="M1188.37 41.4739C1183.7 34.3248 1177.13 28.6227 1169.39 25.0109C1160.73 20.9278 1151.25 18.8897 1141.68 19.0539H1079.62C1078.23 19.0539 1076.89 19.6084 1075.9 20.5954C1074.91 21.5824 1074.36 22.921 1074.36 24.3169V152.071C1074.36 153.467 1074.91 154.805 1075.9 155.792C1076.89 156.779 1078.23 157.334 1079.62 157.334H1105.78C1106.47 157.334 1107.16 157.198 1107.79 156.934C1108.43 156.669 1109.01 156.281 1109.5 155.793C1109.99 155.304 1110.38 154.724 1110.64 154.085C1110.91 153.447 1111.04 152.762 1111.04 152.071V114.937C1111.04 113.541 1111.6 112.202 1112.59 111.215C1113.57 110.227 1114.91 109.673 1116.31 109.673H1141.68C1157.35 109.673 1170.23 105.45 1179.96 97.1209C1184.76 93.175 1188.61 88.195 1191.21 82.5534C1193.81 76.9118 1195.1 70.7548 1194.99 64.5429C1195.05 56.3757 1192.76 48.3645 1188.37 41.4739ZM1158.96 64.2739C1158.96 69.4679 1157.35 73.2659 1153.9 76.2249C1150.31 79.3069 1144.8 80.8689 1137.52 80.8689H1116.31C1115.62 80.869 1114.93 80.733 1114.29 80.4685C1113.66 80.2041 1113.08 79.8165 1112.59 79.3277C1112.1 78.839 1111.71 78.2588 1111.45 77.6202C1111.18 76.9816 1111.04 76.2971 1111.04 75.6059V52.9419C1111.04 52.2506 1111.18 51.5662 1111.45 50.9276C1111.71 50.289 1112.1 49.7087 1112.59 49.22C1113.08 48.7313 1113.66 48.3436 1114.29 48.0792C1114.93 47.8148 1115.62 47.6787 1116.31 47.6789H1137.52C1144.71 47.6789 1150.19 49.2789 1153.82 52.4329C1157.33 55.4809 1158.96 59.2469 1158.96 64.2739Z" fill="#11263F"/>
<path d="M598.322 88.0396C598.321 105.305 603.386 122.191 612.889 136.605C622.392 151.02 635.916 162.329 651.785 169.131C652.585 169.467 653.456 169.6 654.32 169.517C655.183 169.435 656.013 169.14 656.735 168.659C657.457 168.178 658.049 167.526 658.457 166.76C658.866 165.995 659.079 165.14 659.076 164.273V11.8075C659.079 10.9398 658.866 10.0851 658.458 9.3195C658.049 8.55393 657.458 7.90141 656.736 7.42021C656.014 6.939 655.184 6.64408 654.32 6.56178C653.456 6.47947 652.585 6.61237 651.785 6.94856C635.916 13.7505 622.392 25.0594 612.889 39.4738C603.386 53.8881 598.321 70.7743 598.322 88.0396V88.0396Z" fill="#11263F"/>
<path d="M686.526 5.26872V38.8547C686.529 40.1577 687.014 41.4136 687.888 42.38C688.762 43.3464 689.963 43.9547 691.259 44.0877C702.096 45.2614 712.118 50.3974 719.398 58.5094C726.679 66.6215 730.706 77.1374 730.706 88.0377C730.706 98.938 726.679 109.454 719.398 117.566C712.118 125.678 702.096 130.814 691.259 131.988C689.963 132.121 688.762 132.729 687.888 133.696C687.014 134.662 686.529 135.918 686.526 137.221V170.811C686.525 171.528 686.67 172.237 686.953 172.896C687.236 173.555 687.65 174.149 688.171 174.641C688.692 175.134 689.308 175.515 689.982 175.761C690.655 176.007 691.372 176.112 692.087 176.071C714.472 174.655 735.477 164.764 750.829 148.41C766.18 132.057 774.725 110.47 774.725 88.0397C774.725 65.6099 766.18 44.0225 750.829 27.6691C735.477 11.3158 714.472 1.42495 692.087 0.00873912C691.372 -0.0325756 690.655 0.0729021 689.982 0.318706C689.308 0.56451 688.692 0.945448 688.171 1.43809C687.65 1.93073 687.236 2.52467 686.953 3.18342C686.67 3.84217 686.525 4.55181 686.526 5.26872Z" fill="#11263F"/>
</svg>
