<svg xmlns="http://www.w3.org/2000/svg" width="1366" height="768" viewBox="0 0 1366 768"><title>instadapp outline</title><rect x="92.647" y="308.973" width="36.686" height="138.281" rx="5.264" fill="none" stroke="#11263f" stroke-miterlimit="10" stroke-width="6"/><path d="M256.971,380.839a5.263,5.263,0,0,1-9.389,3.269l-57.945-73.141h0a5.265,5.265,0,0,0-4.124-1.993H156.507a5.263,5.263,0,0,0-5.263,5.263V441.99a5.263,5.263,0,0,0,5.263,5.263h25.941a5.263,5.263,0,0,0,5.263-5.263V374.947a5.264,5.264,0,0,1,9.4-3.253l57.809,73.547h0a5.265,5.265,0,0,0,4.139,2.012h29.333a5.263,5.263,0,0,0,5.263-5.263V314.236a5.263,5.263,0,0,0-5.263-5.263H262.235a5.263,5.263,0,0,0-5.264,5.263Z" fill="none" stroke="#11263f" stroke-miterlimit="10" stroke-width="6"/><path d="M433.3,388.753l0,0a27.942,27.942,0,0,0-5.779-7.2,63.417,63.417,0,0,0-6.208-5.026,48.292,48.292,0,0,0-7.947-4.359c-2.91-1.3-5.5-2.374-7.7-3.2-2.238-.835-5.159-1.751-8.682-2.724-3.391-.935-6.194-1.673-8.337-2.2s-4.946-1.175-8.349-1.946q-5.484-1.255-8.059-1.839c-1.63-.37-3.952-.965-6.9-1.771a52.459,52.459,0,0,1-6.06-1.926c-1.351-.566-2.99-1.342-4.875-2.308a9.731,9.731,0,0,1-2.69-1.762,10.983,10.983,0,0,1-1.587-2.338,3.5,3.5,0,0,1-.381-1.7c0-3.785,1.46-6.2,4.879-8.082,4.468-2.454,10.239-3.7,17.152-3.7,7.4,0,13.6,1.371,18.415,4.075a16.2,16.2,0,0,1,8.19,10.793l.249.972a5.262,5.262,0,0,0,6.159,3.853l27.356-5.622a5.264,5.264,0,0,0,4.031-6.5l-.283-1.075a41.538,41.538,0,0,0-9.282-17.3A48.361,48.361,0,0,0,410.7,314.234a85.182,85.182,0,0,0-18.974-6.1,108.971,108.971,0,0,0-21.267-2c-16.609,0-30.652,3.555-41.739,10.565-12.01,7.6-18.1,18.4-18.1,32.125a32.508,32.508,0,0,0,1.921,11.271,35.212,35.212,0,0,0,4.617,8.777,31.8,31.8,0,0,0,7.759,7.248,70.349,70.349,0,0,0,8.245,4.919,74.751,74.751,0,0,0,10,3.937c3.856,1.257,7.2,2.257,9.935,2.972,2.611.684,6.07,1.551,10.281,2.579l.465.1c.01,0,.252.042.9.218l.219.056c5.241,1.235,9.176,2.189,11.692,2.835,2.389.616,5.546,1.593,9.379,2.9a29.92,29.92,0,0,1,7.262,3.256,15.71,15.71,0,0,1,3.652,3.753,6.266,6.266,0,0,1,1.234,3.571c.046,4.033-1.412,6.585-4.878,8.533-4.488,2.523-10.406,3.8-17.59,3.8-8.653,0-15.907-1.706-21.561-5.07-5.168-3.074-8.066-7.064-9.119-12.557l-.2-1.033a5.263,5.263,0,0,0-6.15-4.181l-29.025,5.5a5.264,5.264,0,0,0-4.158,6.313l.236,1.06c2.879,12.965,10.886,23.152,23.8,30.276,12.2,6.734,27.406,10.148,45.191,10.148a107.169,107.169,0,0,0,22.857-2.341,73.477,73.477,0,0,0,19.695-7.219,40.475,40.475,0,0,0,14.936-13.892,37.327,37.327,0,0,0,5.632-20.312,33.984,33.984,0,0,0-1.358-9.692A40.744,40.744,0,0,0,433.3,388.753Z" fill="none" stroke="#11263f" stroke-miterlimit="10" stroke-width="6"/><path d="M553.071,308.973H449.86a5.263,5.263,0,0,0-5.264,5.263V333.32a5.263,5.263,0,0,0,5.264,5.263h28.108a5.264,5.264,0,0,1,5.264,5.264V441.99a5.263,5.263,0,0,0,5.263,5.263h26.05a5.263,5.263,0,0,0,5.263-5.263V343.847a5.264,5.264,0,0,1,5.264-5.264h28a5.263,5.263,0,0,0,5.263-5.263V314.236A5.263,5.263,0,0,0,553.071,308.973Z" fill="none" stroke="#11263f" stroke-miterlimit="10" stroke-width="6"/><path d="M595.529,312.077l-57.46,127.754a5.263,5.263,0,0,0,4.8,7.422H569.9a5.265,5.265,0,0,0,4.833-3.177l9.515-22.045a5.265,5.265,0,0,1,4.833-3.177H643.45a5.263,5.263,0,0,1,4.826,3.162l9.614,22.075a5.262,5.262,0,0,0,4.826,3.162H689.64a5.263,5.263,0,0,0,4.8-7.422L636.98,312.077a5.264,5.264,0,0,0-4.8-3.1H600.33A5.264,5.264,0,0,0,595.529,312.077Zm30.9,77.883H606.185a5.263,5.263,0,0,1-4.83-7.356l10.124-23.37a5.263,5.263,0,0,1,9.66,0l10.124,23.37A5.263,5.263,0,0,1,626.433,389.96Z" fill="none" stroke="#11263f" stroke-miterlimit="10" stroke-width="6"/><path d="M921.569,312.077,864.108,439.831a5.264,5.264,0,0,0,4.8,7.422h27.034a5.265,5.265,0,0,0,4.833-3.177l9.515-22.045a5.265,5.265,0,0,1,4.833-3.177H969.49a5.264,5.264,0,0,1,4.826,3.162l9.613,22.075a5.264,5.264,0,0,0,4.826,3.162h26.925a5.263,5.263,0,0,0,4.8-7.422L963.02,312.077a5.264,5.264,0,0,0-4.8-3.1h-31.85A5.264,5.264,0,0,0,921.569,312.077Zm30.9,77.883H932.224A5.263,5.263,0,0,1,927.4,382.6l10.124-23.37a5.263,5.263,0,0,1,9.66,0L957.3,382.6A5.263,5.263,0,0,1,952.473,389.96Z" fill="none" stroke="#11263f" stroke-miterlimit="10" stroke-width="6"/><path d="M1128.965,314.931h0a62.449,62.449,0,0,0-27.708-5.957H1039.2a5.263,5.263,0,0,0-5.264,5.263V441.99a5.263,5.263,0,0,0,5.264,5.263h26.159a5.263,5.263,0,0,0,5.263-5.263V404.856a5.264,5.264,0,0,1,5.264-5.264h25.372c15.669,0,28.549-4.223,38.282-12.552a41.206,41.206,0,0,0,15.029-32.578,42.355,42.355,0,0,0-6.621-23.069A45.817,45.817,0,0,0,1128.965,314.931Zm-10.427,39.262c0,5.194-1.608,8.992-5.059,11.951-3.593,3.082-9.105,4.644-16.383,4.644h-21.212a5.263,5.263,0,0,1-5.264-5.263V342.861a5.263,5.263,0,0,1,5.264-5.263H1097.1c7.19,0,12.674,1.6,16.3,4.754C1116.9,345.4,1118.538,349.166,1118.538,354.193Z" fill="none" stroke="#11263f" stroke-miterlimit="10" stroke-width="6"/><path d="M1281.018,331.393a45.823,45.823,0,0,0-18.982-16.463,62.45,62.45,0,0,0-27.709-5.957h-62.058a5.263,5.263,0,0,0-5.263,5.263V441.99a5.263,5.263,0,0,0,5.263,5.263h26.159a5.263,5.263,0,0,0,5.264-5.263V404.856a5.264,5.264,0,0,1,5.264-5.264h25.371c15.67,0,28.55-4.223,38.283-12.552a41.206,41.206,0,0,0,15.029-32.578A42.363,42.363,0,0,0,1281.018,331.393Zm-29.409,22.8c0,5.194-1.607,8.992-5.058,11.951-3.593,3.082-9.105,4.644-16.383,4.644h-21.212a5.263,5.263,0,0,1-5.264-5.263V342.861a5.263,5.263,0,0,1,5.264-5.263h21.212c7.19,0,12.674,1.6,16.3,4.754C1249.976,345.4,1251.609,349.166,1251.609,354.193Z" fill="none" stroke="#11263f" stroke-miterlimit="10" stroke-width="6"/><path d="M690.97,377.959a88.218,88.218,0,0,0,53.463,81.091,5.255,5.255,0,0,0,7.291-4.858V301.727a5.255,5.255,0,0,0-7.291-4.859A88.218,88.218,0,0,0,690.97,377.959Z" fill="none" stroke="#11263f" stroke-miterlimit="10" stroke-width="6"/><path d="M779.174,295.188v33.586a5.271,5.271,0,0,0,4.733,5.233,44.207,44.207,0,0,1,0,87.9,5.272,5.272,0,0,0-4.733,5.233V460.73a5.258,5.258,0,0,0,5.561,5.26,88.207,88.207,0,0,0,0-176.062A5.258,5.258,0,0,0,779.174,295.188Z" fill="none" stroke="#11263f" stroke-miterlimit="10" stroke-width="6"/></svg>