<svg width="500" height="71" viewBox="0 0 500 71" fill="none" xmlns="http://www.w3.org/2000/svg">
<g clip-path="url(#clip0)">
<path d="M0 8.1652H15.5413V63.1069H0V8.1652ZM78.8714 8.1652V63.1069H66.0777L41.824 33.8302V63.1069H26.5971V8.1652H39.3908L63.6444 37.4395V8.16641H78.8714V8.1652ZM109.142 64.2065C104.694 64.2065 100.377 63.6567 96.1905 62.5584C92.0036 61.4589 88.6031 59.9941 85.9879 58.1628L91.0886 46.7028C93.5485 48.3254 96.4005 49.6336 99.6444 50.6276C102.888 51.6227 106.08 52.1191 109.22 52.1191C115.186 52.1191 118.167 50.6264 118.167 47.6446C118.167 46.0754 117.305 44.9237 115.578 44.1919C113.903 43.4067 111.182 42.5948 107.415 41.7586C103.282 40.8691 99.8277 39.9261 97.0546 38.9322C94.3014 37.9 91.8471 36.2013 89.9114 33.988C87.9235 31.738 86.9296 28.7028 86.9296 24.8824C86.9296 21.5341 87.8447 18.5256 89.676 15.8569C91.5085 13.1361 94.2282 10.9904 97.8386 9.42126C101.502 7.85088 105.976 7.06689 111.261 7.06689C114.871 7.06689 118.43 7.48437 121.936 8.32175C125.441 9.10694 128.528 10.2841 131.197 11.8533L126.409 23.3921C121.177 20.5657 116.101 19.1531 111.182 19.1531C108.095 19.1531 105.845 19.6239 104.432 20.5657C103.019 21.4552 102.313 22.6324 102.313 24.0972C102.313 25.5633 103.15 26.6616 104.825 27.3946C106.5 28.1276 109.194 28.8861 112.909 29.6713C117.096 30.5608 120.549 31.5281 123.269 32.5754C126.042 33.5693 128.424 35.1907 130.413 37.4419C132.453 39.6385 133.473 42.6482 133.473 46.4674C133.473 49.7635 132.557 52.7465 130.726 55.4152C128.894 58.0839 126.148 60.2295 122.484 61.8509C118.822 63.4213 114.374 64.2052 109.142 64.2052V64.2065ZM151.58 20.488H134.705V8.1652H183.917V20.488H167.121V63.1069H151.58V20.488V20.488ZM223.76 52.4322H200.527L196.21 63.1069H180.356L204.608 8.1652H219.914L244.245 63.1069H228.076L223.76 52.4322V52.4322ZM219.208 40.9735L212.143 23.3921L205.079 40.9735H219.208Z" fill="white"/>
<path d="M284.296 66.7478C284.296 68.7587 285.931 70.408 287.931 70.2029C305.66 68.3837 319.49 53.4044 319.49 35.1944C319.49 16.9845 305.66 2.00509 287.931 0.185915C285.931 -0.0203955 284.296 1.63009 284.296 3.64101V13.3497C284.296 15.3607 285.942 16.9529 287.914 17.3497C296.234 19.0281 302.5 26.3789 302.5 35.1944C302.5 44.0099 296.234 51.3607 287.914 53.0391C285.942 53.4359 284.296 55.0294 284.296 57.0391V66.7478ZM273.374 6.74538C273.374 4.26965 270.95 2.52451 268.731 3.62038C257.101 9.36431 249.102 21.3449 249.102 35.1944C249.102 49.0439 257.101 61.0245 268.731 66.7684C270.95 67.8643 273.374 66.1192 273.374 63.6434V6.74659V6.74538Z" fill="#3F75FF"/>
<path d="M367.864 52.432H344.631L340.314 63.1068H324.459L348.712 8.16504H364.018L388.349 63.1068H372.181L367.864 52.432ZM363.312 40.9733L356.248 23.3908L349.183 40.9733H363.312V40.9733ZM417.871 8.16504C422.842 8.16504 427.16 9.00242 430.823 10.6772C434.485 12.2985 437.311 14.6529 439.3 17.7403C441.288 20.7743 442.282 24.3592 442.282 28.4927C442.282 32.6274 441.288 36.2112 439.3 39.2451C437.311 42.2815 434.485 44.6359 430.823 46.3107C427.16 47.932 422.842 48.7439 417.871 48.7439H408.296V63.1068H392.755V8.16504H417.871V8.16504ZM416.93 36.4988C420.121 36.4988 422.529 35.8192 424.15 34.4587C425.773 33.0461 426.584 31.057 426.584 28.4927C426.584 25.9296 425.773 23.9417 424.15 22.5279C422.529 21.1153 420.121 20.409 416.93 20.409H408.296V36.4988H416.93ZM474.976 8.16504C479.947 8.16504 484.263 9.00242 487.926 10.6772C491.589 12.2985 494.415 14.6529 496.403 17.7403C498.392 20.7743 499.386 24.3592 499.386 28.4927C499.386 32.6274 498.392 36.2112 496.403 39.2451C494.415 42.2815 491.589 44.6359 487.926 46.3107C484.263 47.932 479.947 48.7439 474.976 48.7439H465.4V63.1068H449.859V8.16504H474.976V8.16504ZM474.034 36.4988C477.226 36.4988 479.632 35.8192 481.255 34.4587C482.877 33.0461 483.688 31.057 483.688 28.4927C483.688 25.9296 482.877 23.9417 481.255 22.5279C479.632 21.1153 477.226 20.409 474.034 20.409H465.4V36.4988H474.034Z" fill="white"/>
</g>
<defs>
<clipPath id="clip0">
<rect width="500" height="70.3884" fill="white"/>
</clipPath>
</defs>
</svg>
