<svg width="600" height="600" viewBox="0 0 600 600" fill="none" xmlns="http://www.w3.org/2000/svg">
<path d="M300 600C465.685 600 600 465.685 600 300C600 134.315 465.685 0 300 0C134.315 0 0 134.315 0 300C0 465.685 134.315 600 300 600Z" fill="white"/>
<path d="M300 494.586C300 506.987 310.079 517.158 322.411 515.893C431.726 504.675 517 412.299 517 300.001C517 187.702 431.726 95.3263 322.411 84.1077C310.079 82.8354 300 93.0137 300 105.415V165.287C300 177.688 310.147 187.508 322.306 189.955C373.608 200.305 412.241 245.636 412.241 300.001C412.241 354.365 373.608 399.696 322.306 410.046C310.147 412.494 300 422.32 300 434.714V494.586ZM232.655 124.559C232.655 109.292 217.712 98.5295 204.026 105.288C132.319 140.71 83 214.592 83 300.001C83 385.409 132.319 459.291 204.026 494.714C217.712 501.472 232.655 490.71 232.655 475.442V124.567V124.559Z" fill="#3F75FF"/>
</svg>
