<svg width="4000" height="750" viewBox="0 0 4000 750" fill="none" xmlns="http://www.w3.org/2000/svg">
<path d="M374.269 711.972C374.269 733.46 391.653 751.083 412.922 748.892C601.463 729.453 748.538 569.391 748.538 374.808C748.538 180.226 601.463 20.1634 412.922 0.724635C391.653 -1.4799 374.269 16.1564 374.269 37.6441V141.387C374.269 162.875 391.769 179.888 412.741 184.129C501.224 202.063 567.856 280.61 567.856 374.808C567.856 469.007 501.224 547.553 412.741 565.487C391.769 569.728 374.269 586.755 374.269 608.229V711.972ZM258.116 70.8158C258.116 44.3614 232.344 25.7137 208.739 37.4236C85.0624 98.8005 0 226.819 0 374.808C0 522.797 85.0624 650.816 208.739 712.193C232.344 723.902 258.116 705.255 258.116 678.8V70.8288V70.8158Z" fill="#16A34A"/>
<path fill-rule="evenodd" clip-rule="evenodd" d="M3308.3 643.813C3257.25 643.813 3216.14 624.979 3184.97 587.311C3154.34 549.642 3139.02 498.251 3139.02 433.139C3139.02 389.013 3147.35 351.344 3164.01 320.133C3180.67 288.922 3201.9 264.976 3227.69 248.294C3253.49 231.074 3280.63 222.464 3309.11 222.464C3331.14 222.464 3349.68 226.231 3364.73 233.765C3380.31 240.76 3394.29 250.985 3406.65 264.438H3409.87L3403.42 203.899V70.7139H3532.4V634.127H3427.6L3418.74 595.382H3415.51C3401 608.835 3384.08 620.405 3364.73 630.091C3345.92 639.239 3327.11 643.813 3308.3 643.813ZM3341.35 538.88C3353.71 538.88 3365 536.458 3375.21 531.615C3385.42 526.772 3394.82 518.162 3403.42 505.785V350.806C3394.29 341.658 3384.61 335.47 3374.4 332.241C3364.73 329.012 3354.52 327.398 3343.77 327.398C3330.87 327.398 3318.78 330.896 3307.5 337.891C3296.21 344.887 3287.34 356.187 3280.89 371.793C3274.45 387.398 3271.22 407.309 3271.22 431.524C3271.22 469.193 3277.4 496.637 3289.76 513.857C3302.12 530.539 3319.32 538.88 3341.35 538.88Z" fill="#1E293B"/>
<path fill-rule="evenodd" clip-rule="evenodd" d="M865.497 634.127L1026.72 108.651H1181.49L1342.71 634.127H1206.48L1177.49 515.471H1026.68L997.697 634.127H865.497ZM1142.79 373.407L1153.24 416.188H1050.93L1061.38 373.407C1067.83 347.577 1074.28 319.864 1080.73 290.267C1087.71 260.671 1093.89 232.419 1099.27 205.513H1102.49C1108.94 232.419 1115.66 260.671 1122.64 290.267C1130.17 319.864 1136.88 347.577 1142.79 373.407Z" fill="#1E293B"/>
<path d="M1457.22 634.127L1309.71 232.15H1437.88L1495.92 414.574C1502.37 434.484 1508.28 454.933 1513.65 475.919C1519.02 496.368 1524.67 517.355 1530.58 538.88H1533.8C1539.71 517.355 1545.36 496.368 1550.73 475.919C1556.11 454.933 1561.75 434.484 1567.66 414.574L1625.7 232.15H1748.23L1604.74 634.127H1457.22Z" fill="#1E293B"/>
<path fill-rule="evenodd" clip-rule="evenodd" d="M1876.46 618.791C1908.17 635.472 1941.75 643.813 1977.22 643.813C2012.69 643.813 2046.01 635.472 2077.18 618.791C2108.89 602.109 2134.41 578.162 2153.76 546.951C2173.64 515.74 2183.58 477.803 2183.58 433.139C2183.58 388.475 2173.64 350.537 2153.76 319.326C2134.41 288.115 2108.89 264.169 2077.18 247.487C2046.01 230.805 2012.69 222.464 1977.22 222.464C1941.75 222.464 1908.17 230.805 1876.46 247.487C1845.29 264.169 1819.76 288.115 1799.88 319.326C1780.53 350.537 1770.86 388.475 1770.86 433.139C1770.86 477.803 1780.53 515.74 1799.88 546.951C1819.76 578.162 1845.29 602.109 1876.46 618.791ZM2018.33 527.579C2007.59 536.189 1993.88 540.494 1977.22 540.494C1960.56 540.494 1946.59 536.189 1935.31 527.579C1924.56 518.431 1916.5 506.054 1911.12 490.449C1905.75 474.305 1903.06 455.202 1903.06 433.139C1903.06 411.614 1905.75 392.78 1911.12 376.636C1916.5 360.492 1924.56 348.115 1935.31 339.506C1946.59 330.357 1960.56 325.783 1977.22 325.783C1993.88 325.783 2007.59 330.357 2018.33 339.506C2029.62 348.115 2037.95 360.492 2043.32 376.636C2048.7 392.78 2051.38 411.614 2051.38 433.139C2051.38 455.202 2048.7 474.305 2043.32 490.449C2037.95 506.054 2029.62 518.431 2018.33 527.579Z" fill="#1E293B"/>
<path d="M2471.84 643.813C2429.38 643.813 2391.23 635.472 2357.37 618.791C2323.51 602.109 2296.64 578.162 2276.76 546.951C2256.88 515.74 2246.94 477.803 2246.94 433.139C2246.94 388.475 2257.68 350.537 2279.18 319.326C2301.21 288.115 2329.96 264.169 2365.43 247.487C2401.44 230.805 2439.86 222.464 2480.7 222.464C2512.95 222.464 2541.97 227.576 2567.76 237.801C2594.1 247.487 2615.59 260.402 2632.25 276.545L2573.41 355.649C2558.36 344.887 2543.85 337.353 2529.88 333.048C2516.44 328.205 2502.74 325.783 2488.76 325.783C2467.27 325.783 2448.19 330.357 2431.53 339.506C2414.87 348.115 2401.97 360.492 2392.84 376.636C2383.7 392.78 2379.14 411.614 2379.14 433.139C2379.14 455.202 2383.43 474.305 2392.03 490.449C2401.17 506.054 2413.53 518.431 2429.11 527.579C2445.24 536.189 2463.51 540.494 2483.93 540.494C2504.35 540.494 2522.89 536.727 2539.55 529.193C2556.75 521.66 2572.33 513.319 2586.3 504.171L2637.09 584.889C2612.9 605.338 2586.03 620.405 2556.48 630.091C2526.92 639.239 2498.71 643.813 2471.84 643.813Z" fill="#1E293B"/>
<path fill-rule="evenodd" clip-rule="evenodd" d="M2750.81 626.862C2770.16 638.163 2793.54 643.813 2820.94 643.813C2846.74 643.813 2871.46 638.701 2895.1 628.477C2918.75 618.253 2940.51 605.607 2960.4 590.539H2963.62L2972.49 634.127H3077.28V407.309C3077.28 364.797 3069.76 330.088 3054.71 303.182C3039.66 275.738 3018.44 255.559 2991.03 242.644C2963.62 229.191 2930.84 222.464 2892.69 222.464C2870.11 222.464 2848.08 224.617 2826.59 228.922C2805.09 233.227 2784.13 239.415 2763.71 247.487C2743.29 255.559 2723.14 264.976 2703.25 275.738L2749.2 360.492C2764.78 352.959 2779.03 346.501 2791.92 341.12C2805.36 335.739 2818.26 331.703 2830.62 329.012C2843.51 325.783 2855.87 324.169 2867.7 324.169C2884.36 324.169 2898.33 326.322 2909.61 330.627C2921.44 334.393 2930.57 340.044 2937.02 347.577C2943.47 354.573 2947.5 363.452 2949.11 374.214C2855.61 379.596 2788.97 394.394 2749.2 418.609C2709.97 442.287 2690.36 476.458 2690.36 521.122C2690.36 543.723 2695.46 564.171 2705.67 582.467C2716.42 600.764 2731.47 615.562 2750.81 626.862ZM2908.81 534.844C2894.84 541.301 2879.25 544.53 2862.05 544.53C2851.84 544.53 2842.98 543.454 2835.45 541.301C2828.47 538.611 2822.82 534.844 2818.52 530.001C2814.76 524.619 2812.88 518.162 2812.88 510.628C2812.88 500.404 2816.64 491.256 2824.17 483.184C2831.69 474.574 2845.39 467.578 2865.28 462.197C2885.16 456.278 2913.11 452.78 2949.11 451.704V509.821C2936.75 519.507 2923.32 527.848 2908.81 534.844Z" fill="#1E293B"/>
<path fill-rule="evenodd" clip-rule="evenodd" d="M3692.88 618.791C3724.58 635.472 3758.17 643.813 3793.64 643.813C3829.11 643.813 3862.43 635.472 3893.6 618.791C3925.3 602.109 3950.83 578.162 3970.17 546.951C3990.06 515.74 4000 477.803 4000 433.139C4000 388.475 3990.06 350.537 3970.17 319.326C3950.83 288.115 3925.3 264.169 3893.6 247.487C3862.43 230.805 3829.11 222.464 3793.64 222.464C3758.17 222.464 3724.58 230.805 3692.88 247.487C3661.71 264.169 3636.18 288.115 3616.3 319.326C3596.95 350.537 3587.28 388.475 3587.28 433.139C3587.28 477.803 3596.95 515.74 3616.3 546.951C3636.18 578.162 3661.71 602.109 3692.88 618.791ZM3834.75 527.579C3824 536.189 3810.3 540.494 3793.64 540.494C3776.98 540.494 3763.01 536.189 3751.72 527.579C3740.97 518.431 3732.91 506.054 3727.54 490.449C3722.16 474.305 3719.48 455.202 3719.48 433.139C3719.48 411.614 3722.16 392.78 3727.54 376.636C3732.91 360.492 3740.97 348.115 3751.72 339.506C3763.01 330.357 3776.98 325.783 3793.64 325.783C3810.3 325.783 3824 330.357 3834.75 339.506C3846.04 348.115 3854.37 360.492 3859.74 376.636C3865.11 392.78 3867.8 411.614 3867.8 433.139C3867.8 455.202 3865.11 474.305 3859.74 490.449C3854.37 506.054 3846.04 518.431 3834.75 527.579Z" fill="#1E293B"/>
</svg>
