<svg width="4000" height="749" viewBox="0 0 4000 749" fill="none" xmlns="http://www.w3.org/2000/svg">
<path d="M374.269 711.434C374.269 732.922 391.653 750.545 412.922 748.353C601.463 728.915 748.538 568.853 748.538 374.27C748.538 179.687 601.463 19.6253 412.922 0.186549C391.653 -2.01798 374.269 15.6183 374.269 37.106V140.849C374.269 162.336 391.769 179.35 412.741 183.591C501.224 201.525 567.856 280.072 567.856 374.27C567.856 468.468 501.224 547.015 412.741 564.949C391.769 569.19 374.269 586.216 374.269 607.691V711.434ZM258.116 70.2778C258.116 43.8234 232.344 25.1756 208.739 36.8856C85.0624 98.2624 0 226.281 0 374.27C0 522.259 85.0624 650.278 208.739 711.654C232.344 723.364 258.116 704.717 258.116 678.262V70.2907V70.2778Z" fill="#16A34A"/>
<path fill-rule="evenodd" clip-rule="evenodd" d="M3308.3 643.275C3257.25 643.275 3216.14 624.441 3184.97 586.772C3154.34 549.104 3139.02 497.713 3139.02 432.601C3139.02 388.475 3147.35 350.806 3164.01 319.595C3180.67 288.384 3201.9 264.438 3227.69 247.756C3253.49 230.536 3280.63 221.926 3309.11 221.926C3331.14 221.926 3349.68 225.693 3364.73 233.227C3380.31 240.222 3394.29 250.446 3406.65 263.9H3409.87L3403.42 203.361V70.1758H3532.4V633.589H3427.6L3418.74 594.844H3415.51C3401 608.297 3384.08 619.867 3364.73 629.553C3345.92 638.701 3327.11 643.275 3308.3 643.275ZM3341.35 538.341C3353.71 538.341 3365 535.92 3375.21 531.077C3385.42 526.234 3394.82 517.624 3403.42 505.247V350.268C3394.29 341.12 3384.61 334.932 3374.4 331.703C3364.73 328.474 3354.52 326.86 3343.77 326.86C3330.87 326.86 3318.78 330.358 3307.5 337.353C3296.21 344.349 3287.34 355.649 3280.89 371.255C3274.45 386.86 3271.22 406.771 3271.22 430.986C3271.22 468.655 3277.4 496.099 3289.76 513.319C3302.12 530.001 3319.32 538.341 3341.35 538.341Z" fill="white"/>
<path fill-rule="evenodd" clip-rule="evenodd" d="M865.497 633.589L1026.72 108.113H1181.49L1342.71 633.589H1206.48L1177.49 514.933H1026.68L997.697 633.589H865.497ZM1142.79 372.869L1153.24 415.65H1050.93L1061.38 372.869C1067.83 347.039 1074.28 319.326 1080.73 289.729C1087.71 260.133 1093.89 231.881 1099.27 204.975H1102.49C1108.94 231.881 1115.66 260.133 1122.64 289.729C1130.17 319.326 1136.88 347.039 1142.79 372.869Z" fill="white"/>
<path d="M1457.22 633.589L1309.71 231.612H1437.88L1495.92 414.035C1502.37 433.946 1508.28 454.395 1513.65 475.381C1519.02 495.83 1524.67 516.817 1530.58 538.341H1533.8C1539.71 516.817 1545.36 495.83 1550.73 475.381C1556.11 454.395 1561.75 433.946 1567.66 414.035L1625.7 231.612H1748.23L1604.74 633.589H1457.22Z" fill="white"/>
<path fill-rule="evenodd" clip-rule="evenodd" d="M1876.46 618.253C1908.17 634.934 1941.75 643.275 1977.22 643.275C2012.69 643.275 2046.01 634.934 2077.18 618.253C2108.89 601.571 2134.41 577.624 2153.76 546.413C2173.64 515.202 2183.58 477.265 2183.58 432.601C2183.58 387.937 2173.64 349.999 2153.76 318.788C2134.41 287.577 2108.89 263.63 2077.18 246.949C2046.01 230.267 2012.69 221.926 1977.22 221.926C1941.75 221.926 1908.17 230.267 1876.46 246.949C1845.29 263.63 1819.76 287.577 1799.88 318.788C1780.53 349.999 1770.86 387.937 1770.86 432.601C1770.86 477.265 1780.53 515.202 1799.88 546.413C1819.76 577.624 1845.29 601.571 1876.46 618.253ZM2018.33 527.041C2007.59 535.651 1993.88 539.956 1977.22 539.956C1960.56 539.956 1946.59 535.651 1935.31 527.041C1924.56 517.893 1916.5 505.516 1911.12 489.911C1905.75 473.767 1903.06 454.664 1903.06 432.601C1903.06 411.076 1905.75 392.242 1911.12 376.098C1916.5 359.954 1924.56 347.577 1935.31 338.967C1946.59 329.819 1960.56 325.245 1977.22 325.245C1993.88 325.245 2007.59 329.819 2018.33 338.967C2029.62 347.577 2037.95 359.954 2043.32 376.098C2048.7 392.242 2051.38 411.076 2051.38 432.601C2051.38 454.664 2048.7 473.767 2043.32 489.911C2037.95 505.516 2029.62 517.893 2018.33 527.041Z" fill="white"/>
<path d="M2471.84 643.275C2429.38 643.275 2391.23 634.934 2357.37 618.253C2323.51 601.571 2296.64 577.624 2276.76 546.413C2256.88 515.202 2246.94 477.265 2246.94 432.601C2246.94 387.937 2257.68 349.999 2279.18 318.788C2301.21 287.577 2329.96 263.63 2365.43 246.949C2401.44 230.267 2439.86 221.926 2480.7 221.926C2512.95 221.926 2541.97 227.038 2567.76 237.263C2594.1 246.949 2615.59 259.864 2632.25 276.007L2573.41 355.111C2558.36 344.349 2543.85 336.815 2529.88 332.51C2516.44 327.667 2502.74 325.245 2488.76 325.245C2467.27 325.245 2448.19 329.819 2431.53 338.967C2414.87 347.577 2401.97 359.954 2392.84 376.098C2383.7 392.242 2379.14 411.076 2379.14 432.601C2379.14 454.664 2383.43 473.767 2392.03 489.911C2401.17 505.516 2413.53 517.893 2429.11 527.041C2445.24 535.651 2463.51 539.956 2483.93 539.956C2504.35 539.956 2522.89 536.189 2539.55 528.655C2556.75 521.122 2572.33 512.781 2586.3 503.633L2637.09 584.351C2612.9 604.8 2586.03 619.867 2556.48 629.553C2526.92 638.701 2498.71 643.275 2471.84 643.275Z" fill="white"/>
<path fill-rule="evenodd" clip-rule="evenodd" d="M2750.81 626.324C2770.16 637.625 2793.54 643.275 2820.94 643.275C2846.74 643.275 2871.46 638.163 2895.1 627.939C2918.75 617.714 2940.51 605.069 2960.4 590.001H2963.62L2972.49 633.589H3077.28V406.771C3077.28 364.259 3069.76 329.55 3054.71 302.644C3039.66 275.2 3018.44 255.021 2991.03 242.106C2963.62 228.653 2930.84 221.926 2892.69 221.926C2870.11 221.926 2848.08 224.079 2826.59 228.383C2805.09 232.688 2784.13 238.877 2763.71 246.949C2743.29 255.021 2723.14 264.438 2703.25 275.2L2749.2 359.954C2764.78 352.421 2779.03 345.963 2791.92 340.582C2805.36 335.201 2818.26 331.165 2830.62 328.474C2843.51 325.245 2855.87 323.631 2867.7 323.631C2884.36 323.631 2898.33 325.783 2909.61 330.088C2921.44 333.855 2930.57 339.506 2937.02 347.039C2943.47 354.035 2947.5 362.914 2949.11 373.676C2855.61 379.058 2788.97 393.856 2749.2 418.071C2709.97 441.749 2690.36 475.919 2690.36 520.584C2690.36 543.185 2695.46 563.633 2705.67 581.929C2716.42 600.226 2731.47 615.024 2750.81 626.324ZM2908.81 534.306C2894.84 540.763 2879.25 543.992 2862.05 543.992C2851.84 543.992 2842.98 542.916 2835.45 540.763C2828.47 538.072 2822.82 534.306 2818.52 529.462C2814.76 524.081 2812.88 517.624 2812.88 510.09C2812.88 499.866 2816.64 490.718 2824.17 482.646C2831.69 474.036 2845.39 467.04 2865.28 461.659C2885.16 455.74 2913.11 452.242 2949.11 451.166V509.283C2936.75 518.969 2923.32 527.31 2908.81 534.306Z" fill="white"/>
<path fill-rule="evenodd" clip-rule="evenodd" d="M3692.88 618.253C3724.58 634.934 3758.17 643.275 3793.64 643.275C3829.11 643.275 3862.43 634.934 3893.6 618.253C3925.3 601.571 3950.83 577.624 3970.17 546.413C3990.06 515.202 4000 477.265 4000 432.601C4000 387.937 3990.06 349.999 3970.17 318.788C3950.83 287.577 3925.3 263.63 3893.6 246.949C3862.43 230.267 3829.11 221.926 3793.64 221.926C3758.17 221.926 3724.58 230.267 3692.88 246.949C3661.71 263.63 3636.18 287.577 3616.3 318.788C3596.95 349.999 3587.28 387.937 3587.28 432.601C3587.28 477.265 3596.95 515.202 3616.3 546.413C3636.18 577.624 3661.71 601.571 3692.88 618.253ZM3834.75 527.041C3824 535.651 3810.3 539.956 3793.64 539.956C3776.98 539.956 3763.01 535.651 3751.72 527.041C3740.97 517.893 3732.91 505.516 3727.54 489.911C3722.16 473.767 3719.48 454.664 3719.48 432.601C3719.48 411.076 3722.16 392.242 3727.54 376.098C3732.91 359.954 3740.97 347.577 3751.72 338.967C3763.01 329.819 3776.98 325.245 3793.64 325.245C3810.3 325.245 3824 329.819 3834.75 338.967C3846.04 347.577 3854.37 359.954 3859.74 376.098C3865.11 392.242 3867.8 411.076 3867.8 432.601C3867.8 454.664 3865.11 473.767 3859.74 489.911C3854.37 505.516 3846.04 517.893 3834.75 527.041Z" fill="white"/>
</svg>
