<svg width="342" height="64" viewBox="0 0 342 64" fill="none" xmlns="http://www.w3.org/2000/svg">
<path d="M32 60.8276C32 62.6648 33.4863 64.1716 35.3048 63.9842C51.4251 62.3222 64 48.6369 64 32.0001C64 15.3633 51.4251 1.67797 35.3048 0.01595C33.4863 -0.172538 32 1.33536 32 3.17256V12.0426C32 13.8798 33.4963 15.3345 35.2894 15.697C42.8546 17.2304 48.5517 23.9461 48.5517 32.0001C48.5517 40.0541 42.8546 46.7698 35.2894 48.3032C33.4963 48.6657 32 50.1215 32 51.9576V60.8276ZM22.069 6.00875C22.069 3.7469 19.8654 2.15251 17.8472 3.15371C7.27284 8.40143 0 19.347 0 32.0001C0 44.6531 7.27284 55.5987 17.8472 60.8465C19.8654 61.8477 22.069 60.2533 22.069 57.9914V6.00986V6.00875Z" fill="#16A34A"/>
<path fill-rule="evenodd" clip-rule="evenodd" d="M282.86 55C278.495 55 274.98 53.3897 272.315 50.169C269.696 46.9484 268.386 42.5545 268.386 36.9873C268.386 33.2146 269.099 29.9939 270.523 27.3254C271.947 24.6568 273.762 22.6094 275.968 21.1831C278.173 19.7108 280.494 18.9746 282.929 18.9746C284.813 18.9746 286.398 19.2967 287.684 19.9408C289.017 20.539 290.211 21.4131 291.268 22.5634H291.544L290.993 17.3873V6H302.02V54.1718H293.06L292.302 50.8592H292.026C290.786 52.0094 289.338 52.9986 287.684 53.8268C286.076 54.6089 284.468 55 282.86 55ZM285.686 46.0282C286.742 46.0282 287.707 45.8211 288.58 45.407C289.453 44.993 290.257 44.2568 290.993 43.1986V29.9479C290.211 29.1657 289.384 28.6366 288.511 28.3606C287.684 28.0845 286.811 27.9465 285.892 27.9465C284.79 27.9465 283.756 28.2455 282.791 28.8437C281.826 29.4418 281.068 30.408 280.517 31.7423C279.965 33.0765 279.689 34.7789 279.689 36.8493C279.689 40.07 280.218 42.4164 281.275 43.8887C282.331 45.315 283.802 46.0282 285.686 46.0282Z" fill="white"/>
<path fill-rule="evenodd" clip-rule="evenodd" d="M74 54.1718L87.7843 9.24366H101.017L114.801 54.1718H103.154L100.676 44.0268H87.7811L85.3031 54.1718H74ZM97.709 31.8803L98.6024 35.538H89.8545L90.7479 31.8803C91.2993 29.6718 91.8506 27.3023 92.402 24.7718C92.9993 22.2413 93.5277 19.8258 93.9872 17.5254H94.2629C94.8143 19.8258 95.3886 22.2413 95.9859 24.7718C96.6292 27.3023 97.2035 29.6718 97.709 31.8803Z" fill="white"/>
<path d="M124.593 54.1718L111.98 19.8028H122.939L127.901 35.4C128.452 37.1023 128.958 38.8507 129.417 40.6451C129.877 42.3934 130.359 44.1878 130.864 46.0282H131.14C131.646 44.1878 132.128 42.3934 132.588 40.6451C133.047 38.8507 133.529 37.1023 134.035 35.4L138.997 19.8028H149.473L137.205 54.1718H124.593Z" fill="white"/>
<path fill-rule="evenodd" clip-rule="evenodd" d="M160.437 52.8606C163.148 54.2869 166.02 55 169.053 55C172.085 55 174.934 54.2869 177.599 52.8606C180.31 51.4343 182.492 49.3869 184.146 46.7183C185.846 44.0498 186.696 40.8061 186.696 36.9873C186.696 33.1685 185.846 29.9249 184.146 27.2563C182.492 24.5878 180.31 22.5404 177.599 21.1141C174.934 19.6878 172.085 18.9746 169.053 18.9746C166.02 18.9746 163.148 19.6878 160.437 21.1141C157.772 22.5404 155.59 24.5878 153.89 27.2563C152.236 29.9249 151.409 33.1685 151.409 36.9873C151.409 40.8061 152.236 44.0498 153.89 46.7183C155.59 49.3869 157.772 51.4343 160.437 52.8606ZM172.568 45.062C171.649 45.7981 170.477 46.1662 169.053 46.1662C167.628 46.1662 166.434 45.7981 165.469 45.062C164.55 44.2798 163.86 43.2216 163.401 41.8873C162.941 40.507 162.712 38.8737 162.712 36.9873C162.712 35.1469 162.941 33.5366 163.401 32.1563C163.86 30.7761 164.55 29.7178 165.469 28.9817C166.434 28.1995 167.628 27.8084 169.053 27.8084C170.477 27.8084 171.649 28.1995 172.568 28.9817C173.532 29.7178 174.245 30.7761 174.704 32.1563C175.164 33.5366 175.393 35.1469 175.393 36.9873C175.393 38.8737 175.164 40.507 174.704 41.8873C174.245 43.2216 173.532 44.2798 172.568 45.062Z" fill="white"/>
<path d="M211.342 55C207.712 55 204.45 54.2869 201.555 52.8606C198.661 51.4343 196.363 49.3869 194.663 46.7183C192.963 44.0498 192.113 40.8061 192.113 36.9873C192.113 33.1685 193.032 29.9249 194.87 27.2563C196.754 24.5878 199.212 22.5404 202.244 21.1141C205.323 19.6878 208.608 18.9746 212.1 18.9746C214.857 18.9746 217.338 19.4117 219.544 20.2859C221.795 21.1141 223.633 22.2183 225.057 23.5986L220.026 30.362C218.74 29.4418 217.499 28.7977 216.304 28.4296C215.156 28.0155 213.984 27.8084 212.789 27.8084C210.951 27.8084 209.32 28.1995 207.896 28.9817C206.472 29.7178 205.369 30.7761 204.588 32.1563C203.807 33.5366 203.416 35.1469 203.416 36.9873C203.416 38.8737 203.784 40.507 204.519 41.8873C205.3 43.2216 206.357 44.2798 207.689 45.062C209.068 45.7981 210.63 46.1662 212.376 46.1662C214.122 46.1662 215.707 45.8441 217.131 45.2C218.602 44.5559 219.934 43.8427 221.129 43.0606L225.471 49.962C223.403 51.7103 221.106 52.9986 218.579 53.8268C216.052 54.6089 213.639 55 211.342 55Z" fill="white"/>
<path fill-rule="evenodd" clip-rule="evenodd" d="M235.194 53.5507C236.849 54.5169 238.847 55 241.191 55C243.396 55 245.51 54.5629 247.531 53.6887C249.553 52.8146 251.414 51.7333 253.114 50.4451H253.39L254.148 54.1718H263.108V34.7789C263.108 31.1441 262.464 28.1765 261.178 25.8761C259.891 23.5296 258.076 21.8042 255.733 20.7C253.39 19.5498 250.587 18.9746 247.325 18.9746C245.395 18.9746 243.511 19.1587 241.673 19.5268C239.835 19.8948 238.043 20.4239 236.297 21.1141C234.551 21.8042 232.828 22.6094 231.128 23.5296L235.057 30.7761C236.389 30.1319 237.607 29.5798 238.709 29.1197C239.858 28.6596 240.961 28.3146 242.018 28.0845C243.12 27.8084 244.177 27.6704 245.188 27.6704C246.612 27.6704 247.807 27.8545 248.772 28.2225C249.783 28.5446 250.564 29.0277 251.115 29.6718C251.667 30.27 252.011 31.0291 252.149 31.9493C244.154 32.4094 238.457 33.6746 235.057 35.7451C231.702 37.7695 230.025 40.6911 230.025 44.5099C230.025 46.4423 230.462 48.1906 231.335 49.7549C232.254 51.3193 233.54 52.5845 235.194 53.5507ZM248.703 45.6831C247.508 46.2352 246.176 46.5113 244.706 46.5113C243.833 46.5113 243.074 46.4192 242.431 46.2352C241.834 46.0052 241.351 45.6831 240.984 45.269C240.662 44.8089 240.501 44.2568 240.501 43.6127C240.501 42.7385 240.823 41.9563 241.466 41.2662C242.11 40.53 243.281 39.9319 244.981 39.4718C246.681 38.9657 249.071 38.6667 252.149 38.5746V43.5437C251.092 44.3718 249.944 45.085 248.703 45.6831Z" fill="white"/>
<path fill-rule="evenodd" clip-rule="evenodd" d="M315.741 52.8606C318.452 54.2869 321.324 55 324.356 55C327.389 55 330.237 54.2869 332.902 52.8606C335.613 51.4343 337.796 49.3869 339.45 46.7183C341.15 44.0498 342 40.8061 342 36.9873C342 33.1685 341.15 29.9249 339.45 27.2563C337.796 24.5878 335.613 22.5404 332.902 21.1141C330.237 19.6878 327.389 18.9746 324.356 18.9746C321.324 18.9746 318.452 19.6878 315.741 21.1141C313.076 22.5404 310.893 24.5878 309.193 27.2563C307.539 29.9249 306.712 33.1685 306.712 36.9873C306.712 40.8061 307.539 44.0498 309.193 46.7183C310.893 49.3869 313.076 51.4343 315.741 52.8606ZM327.871 45.062C326.952 45.7981 325.78 46.1662 324.356 46.1662C322.932 46.1662 321.737 45.7981 320.772 45.062C319.853 44.2798 319.164 43.2216 318.705 41.8873C318.245 40.507 318.015 38.8737 318.015 36.9873C318.015 35.1469 318.245 33.5366 318.705 32.1563C319.164 30.7761 319.853 29.7178 320.772 28.9817C321.737 28.1995 322.932 27.8084 324.356 27.8084C325.78 27.8084 326.952 28.1995 327.871 28.9817C328.836 29.7178 329.548 30.7761 330.008 32.1563C330.467 33.5366 330.697 35.1469 330.697 36.9873C330.697 38.8737 330.467 40.507 330.008 41.8873C329.548 43.2216 328.836 44.2798 327.871 45.062Z" fill="white"/>
</svg>
