<svg width="530" height="75" viewBox="0 0 530 75" fill="none" xmlns="http://www.w3.org/2000/svg">
<g clip-path="url(#clip0_11041_103895)">
<path d="M0 8.65898H16.4737V66.9233H0V8.65898ZM83.6036 8.65898V66.9233H70.0423L44.3335 35.8761V66.9233H28.1929V8.65898H41.7542L67.4631 39.7036V8.66027H83.6036V8.65898ZM115.69 68.0893C110.976 68.0893 106.4 67.5063 101.962 66.3416C97.5238 65.1756 93.9193 63.6222 91.1471 61.6801L96.5539 49.5271C99.1614 51.2478 102.185 52.6352 105.623 53.6892C109.062 54.7446 112.445 55.271 115.773 55.271C122.097 55.271 125.258 53.688 125.258 50.5258C125.258 48.8618 124.343 47.6404 122.512 46.8644C120.737 46.0317 117.853 45.1707 113.86 44.284C109.478 43.3406 105.817 42.3406 102.878 41.2866C99.9595 40.192 97.3579 38.3905 95.3061 36.0434C93.1989 33.6574 92.1454 30.4386 92.1454 26.3872C92.1454 22.8364 93.1153 19.646 95.0565 16.8159C96.999 13.9305 99.8818 11.6551 103.709 9.99101C107.593 8.32565 112.334 7.49426 117.937 7.49426C121.764 7.49426 125.535 7.93698 129.252 8.825C132.967 9.65768 136.24 10.9061 139.068 12.5701L133.994 24.8068C128.448 21.8094 123.067 20.3113 117.853 20.3113C114.58 20.3113 112.195 20.8107 110.698 21.8094C109.201 22.7527 108.452 24.0011 108.452 25.5545C108.452 27.1092 109.339 28.2739 111.115 29.0512C112.89 29.8286 115.746 30.6329 119.684 31.4656C124.122 32.409 127.781 33.4347 130.666 34.5454C133.605 35.5994 136.129 37.3188 138.237 39.7062C140.4 42.0356 141.482 45.2273 141.482 49.2775C141.482 52.7729 140.51 55.9363 138.569 58.7664C136.628 61.5965 133.717 63.8719 129.833 65.5913C125.951 67.2566 121.236 68.088 115.69 68.088V68.0893ZM160.675 21.727H142.787V8.65898H194.953V21.727H177.149V66.9233H160.675V21.727V21.727ZM237.185 55.603H212.558L207.983 66.9233H191.177L216.884 8.65898H233.109L258.9 66.9233H241.761L237.185 55.603V55.603ZM232.36 43.4513L224.872 24.8068L217.384 43.4513H232.36Z" fill="#161E2E"/>
<path d="M301.354 70.7843C301.354 72.9168 303.087 74.6658 305.207 74.4483C324 72.5191 338.66 56.6339 338.66 37.3227C338.66 18.0115 324 2.12629 305.207 0.197103C303.087 -0.0216844 301.354 1.72861 301.354 3.86114V14.157C301.354 16.2895 303.098 17.9781 305.188 18.3989C314.008 20.1788 320.65 27.9741 320.65 37.3227C320.65 46.6714 314.008 54.4666 305.188 56.2465C303.098 56.6673 301.354 58.3572 301.354 60.4884V70.7843ZM289.776 7.15325C289.776 4.5278 287.207 2.67712 284.854 3.83927C272.527 9.93056 264.048 22.6357 264.048 37.3227C264.048 52.0098 272.527 64.7149 284.854 70.8061C287.207 71.9683 289.776 70.1176 289.776 67.4922V7.15453V7.15325Z" fill="#16A34A"/>
<path d="M389.936 55.6028H365.309L360.733 66.9231H343.926L369.635 8.65881H385.859L411.65 66.9231H394.512L389.936 55.6028ZM385.111 43.4511L377.622 24.8053L370.134 43.4511H385.111V43.4511ZM442.944 8.65881C448.213 8.65881 452.79 9.54683 456.672 11.3229C460.555 13.0423 463.549 15.539 465.658 18.8131C467.765 22.0306 468.818 25.8323 468.818 30.2158C468.818 34.6005 467.765 38.401 465.658 41.6185C463.549 44.8385 460.555 47.3352 456.672 49.1113C452.79 50.8307 448.213 51.6917 442.944 51.6917H432.794V66.9231H416.32V8.65881H442.944V8.65881ZM441.945 38.706C445.329 38.706 447.881 37.9853 449.599 36.5426C451.319 35.0446 452.179 32.9352 452.179 30.2158C452.179 27.4977 451.319 25.3896 449.599 23.8903C447.881 22.3922 445.329 21.6432 441.945 21.6432H432.794V38.706H441.945ZM503.474 8.65881C508.743 8.65881 513.319 9.54683 517.201 11.3229C521.084 13.0423 524.08 15.539 526.187 18.8131C528.295 22.0306 529.349 25.8323 529.349 30.2158C529.349 34.6005 528.295 38.401 526.187 41.6185C524.08 44.8385 521.084 47.3352 517.201 49.1113C513.319 50.8307 508.743 51.6917 503.474 51.6917H493.324V66.9231H476.851V8.65881H503.474V8.65881ZM502.476 38.706C505.859 38.706 508.41 37.9853 510.13 36.5426C511.85 35.0446 512.709 32.9352 512.709 30.2158C512.709 27.4977 511.85 25.3896 510.13 23.8903C508.41 22.3922 505.859 21.6432 502.476 21.6432H493.324V38.706H502.476Z" fill="#161E2E"/>
</g>
<defs>
<clipPath id="clip0_11041_103895">
<rect width="530" height="74.645" fill="white"/>
</clipPath>
</defs>
</svg>
