<svg width="530" height="76" viewBox="0 0 530 76" fill="none" xmlns="http://www.w3.org/2000/svg">
<g clip-path="url(#clip0_11041_103899)">
<path d="M0 9.304H16.4737V67.5683H0V9.304ZM83.6036 9.304V67.5683H70.0423L44.3335 36.5211V67.5683H28.1929V9.304H41.7542L67.4631 40.3486V9.30529H83.6036V9.304ZM115.69 68.7343C110.976 68.7343 106.4 68.1513 101.962 66.9866C97.5238 65.8206 93.9193 64.2672 91.1471 62.3251L96.5539 50.1722C99.1614 51.8929 102.185 53.2802 105.623 54.3343C109.062 55.3896 112.445 55.916 115.773 55.916C122.097 55.916 125.258 54.333 125.258 51.1709C125.258 49.5068 124.343 48.2854 122.512 47.5094C120.737 46.6767 117.853 45.8157 113.86 44.929C109.478 43.9856 105.817 42.9856 102.878 41.9316C99.9595 40.837 97.3579 39.0355 95.3061 36.6884C93.1989 34.3024 92.1454 31.0836 92.1454 27.0322C92.1454 23.4814 93.1153 20.291 95.0565 17.4609C96.999 14.5755 99.8818 12.3001 103.709 10.636C107.593 8.97067 112.334 8.13928 117.937 8.13928C121.764 8.13928 125.535 8.582 129.252 9.47002C132.967 10.3027 136.24 11.5511 139.068 13.2151L133.994 25.4518C128.448 22.4544 123.067 20.9564 117.853 20.9564C114.58 20.9564 112.195 21.4557 110.698 22.4544C109.201 23.3978 108.452 24.6461 108.452 26.1995C108.452 27.7542 109.339 28.9189 111.115 29.6963C112.89 30.4736 115.746 31.278 119.684 32.1106C124.122 33.054 127.781 34.0797 130.666 35.1904C133.605 36.2444 136.129 37.9638 138.237 40.3512C140.4 42.6806 141.482 45.8724 141.482 49.9225C141.482 53.4179 140.51 56.5813 138.569 59.4114C136.628 62.2415 133.717 64.5169 129.833 66.2363C125.951 67.9016 121.236 68.733 115.69 68.733V68.7343ZM160.675 22.372H142.787V9.304H194.953V22.372H177.149V67.5683H160.675V22.372V22.372ZM237.185 56.248H212.558L207.983 67.5683H191.177L216.884 9.304H233.109L258.9 67.5683H241.761L237.185 56.248V56.248ZM232.36 44.0963L224.872 25.4518L217.384 44.0963H232.36Z" fill="white"/>
<path d="M301.354 71.4293C301.354 73.5618 303.087 75.3108 305.207 75.0933C324 73.1641 338.66 57.2789 338.66 37.9677C338.66 18.6565 324 2.77131 305.207 0.842122C303.087 0.623335 301.354 2.37363 301.354 4.50616V14.802C301.354 16.9346 303.098 18.6231 305.188 19.0439C314.008 20.8238 320.65 28.6191 320.65 37.9677C320.65 47.3164 314.008 55.1116 305.188 56.8915C303.098 57.3124 301.354 59.0022 301.354 61.1334V71.4293ZM289.776 7.79827C289.776 5.17282 287.207 3.32214 284.854 4.48428C272.527 10.5756 264.048 23.2807 264.048 37.9677C264.048 52.6548 272.527 65.3599 284.854 71.4512C287.207 72.6133 289.776 70.7626 289.776 68.1372V7.79955V7.79827Z" fill="#16A34A"/>
<path d="M389.936 56.2478H365.309L360.733 67.5682H343.926L369.635 9.30383H385.859L411.65 67.5682H394.512L389.936 56.2478ZM385.111 44.0962L377.622 25.4503L370.134 44.0962H385.111V44.0962ZM442.944 9.30383C448.213 9.30383 452.79 10.1919 456.672 11.9679C460.555 13.6873 463.549 16.184 465.658 19.4581C467.765 22.6756 468.818 26.4773 468.818 30.8608C468.818 35.2456 467.765 39.046 465.658 42.2635C463.549 45.4835 460.555 47.9803 456.672 49.7563C452.79 51.4757 448.213 52.3367 442.944 52.3367H432.794V67.5682H416.32V9.30383H442.944V9.30383ZM441.945 39.351C445.329 39.351 447.881 38.6303 449.599 37.1876C451.319 35.6896 452.179 33.5802 452.179 30.8608C452.179 28.1427 451.319 26.0346 449.599 24.5353C447.881 23.0372 445.329 22.2882 441.945 22.2882H432.794V39.351H441.945ZM503.474 9.30383C508.743 9.30383 513.319 10.1919 517.201 11.9679C521.084 13.6873 524.08 16.184 526.187 19.4581C528.295 22.6756 529.349 26.4773 529.349 30.8608C529.349 35.2456 528.295 39.046 526.187 42.2635C524.08 45.4835 521.084 47.9803 517.201 49.7563C513.319 51.4757 508.743 52.3367 503.474 52.3367H493.324V67.5682H476.851V9.30383H503.474V9.30383ZM502.476 39.351C505.859 39.351 508.41 38.6303 510.13 37.1876C511.85 35.6896 512.709 33.5802 512.709 30.8608C512.709 28.1427 511.85 26.0346 510.13 24.5353C508.41 23.0372 505.859 22.2882 502.476 22.2882H493.324V39.351H502.476Z" fill="white"/>
</g>
<defs>
<clipPath id="clip0_11041_103899">
<rect width="530" height="74.645" fill="white" transform="translate(0 0.64502)"/>
</clipPath>
</defs>
</svg>
