<svg width="530" height="75" viewBox="0 0 530 75" fill="none" xmlns="http://www.w3.org/2000/svg">
<g clip-path="url(#clip0_11041_103887)">
<path d="M0 8.94902H16.4737V67.2133H0V8.94902ZM83.6036 8.94902V67.2133H70.0423L44.3335 36.1661V67.2133H28.1929V8.94902H41.7542L67.4631 39.9936V8.95031H83.6036V8.94902ZM115.69 68.3793C110.976 68.3793 106.4 67.7963 101.962 66.6316C97.5238 65.4656 93.9193 63.9122 91.1471 61.9702L96.5539 49.8172C99.1614 51.5379 102.185 52.9252 105.623 53.9793C109.062 55.0346 112.445 55.561 115.773 55.561C122.097 55.561 125.258 53.978 125.258 50.8159C125.258 49.1518 124.343 47.9305 122.512 47.1544C120.737 46.3217 117.853 45.4607 113.86 44.574C109.478 43.6307 105.817 42.6307 102.878 41.5766C99.9595 40.482 97.3579 38.6806 95.3061 36.3335C93.1989 33.9474 92.1454 30.7286 92.1454 26.6772C92.1454 23.1264 93.1153 19.936 95.0565 17.1059C96.999 14.2205 99.8818 11.9451 103.709 10.281C107.593 8.61569 112.334 7.7843 117.937 7.7843C121.764 7.7843 125.535 8.22702 129.252 9.11504C132.967 9.94772 136.24 11.1961 139.068 12.8602L133.994 25.0968C128.448 22.0994 123.067 20.6014 117.853 20.6014C114.58 20.6014 112.195 21.1007 110.698 22.0994C109.201 23.0428 108.452 24.2912 108.452 25.8445C108.452 27.3992 109.339 28.5639 111.115 29.3413C112.89 30.1186 115.746 30.923 119.684 31.7557C124.122 32.699 127.781 33.7247 130.666 34.8354C133.605 35.8894 136.129 37.6089 138.237 39.9962C140.4 42.3257 141.482 45.5174 141.482 49.5675C141.482 53.063 140.51 56.2264 138.569 59.0564C136.628 61.8865 133.717 64.1619 129.833 65.8813C125.951 67.5467 121.236 68.3781 115.69 68.3781V68.3793ZM160.675 22.0171H142.787V8.94902H194.953V22.0171H177.149V67.2133H160.675V22.0171V22.0171ZM237.185 55.893H212.558L207.983 67.2133H191.177L216.884 8.94902H233.109L258.9 67.2133H241.761L237.185 55.893V55.893ZM232.36 43.7413L224.872 25.0968L217.384 43.7413H232.36Z" fill="#161E2E"/>
<path d="M301.354 71.0743C301.354 73.2068 303.087 74.9558 305.207 74.7383C324 72.8092 338.66 56.9239 338.66 37.6127C338.66 18.3016 324 2.41633 305.207 0.487142C303.087 0.268355 301.354 2.01865 301.354 4.15118V14.447C301.354 16.5796 303.098 18.2681 305.188 18.6889C314.008 20.4688 320.65 28.2641 320.65 37.6127C320.65 46.9614 314.008 54.7566 305.188 56.5365C303.098 56.9574 301.354 58.6472 301.354 60.7784V71.0743ZM289.776 7.44329C289.776 4.81784 287.207 2.96716 284.854 4.1293C272.527 10.2206 264.048 22.9257 264.048 37.6127C264.048 52.2998 272.527 65.0049 284.854 71.0962C287.207 72.2583 289.776 70.4077 289.776 67.7822V7.44457V7.44329Z" fill="#3F75FF"/>
<path d="M389.936 55.8929H365.309L360.733 67.2132H343.926L369.635 8.94885H385.859L411.65 67.2132H394.512L389.936 55.8929ZM385.111 43.7412L377.622 25.0953L370.134 43.7412H385.111V43.7412ZM442.944 8.94885C448.213 8.94885 452.79 9.83687 456.672 11.6129C460.555 13.3323 463.549 15.8291 465.658 19.1032C467.765 22.3206 468.818 26.1224 468.818 30.5058C468.818 34.8906 467.765 38.691 465.658 41.9085C463.549 45.1285 460.555 47.6253 456.672 49.4013C452.79 51.1207 448.213 51.9817 442.944 51.9817H432.794V67.2132H416.32V8.94885H442.944V8.94885ZM441.945 38.9961C445.329 38.9961 447.881 38.2753 449.599 36.8326C451.319 35.3346 452.179 33.2252 452.179 30.5058C452.179 27.7877 451.319 25.6796 449.599 24.1803C447.881 22.6823 445.329 21.9332 441.945 21.9332H432.794V38.9961H441.945ZM503.474 8.94885C508.743 8.94885 513.319 9.83687 517.201 11.6129C521.084 13.3323 524.08 15.8291 526.187 19.1032C528.295 22.3206 529.349 26.1224 529.349 30.5058C529.349 34.8906 528.295 38.691 526.187 41.9085C524.08 45.1285 521.084 47.6253 517.201 49.4013C513.319 51.1207 508.743 51.9817 503.474 51.9817H493.324V67.2132H476.851V8.94885H503.474V8.94885ZM502.476 38.9961C505.859 38.9961 508.41 38.2753 510.13 36.8326C511.85 35.3346 512.709 33.2252 512.709 30.5058C512.709 27.7877 511.85 25.6796 510.13 24.1803C508.41 22.6823 505.859 21.9332 502.476 21.9332H493.324V38.9961H502.476Z" fill="#161E2E"/>
</g>
<defs>
<clipPath id="clip0_11041_103887">
<rect width="530" height="74.645" fill="white" transform="translate(0 0.290039)"/>
</clipPath>
</defs>
</svg>
