<svg width="530" height="76" viewBox="0 0 530 76" fill="none" xmlns="http://www.w3.org/2000/svg">
<g clip-path="url(#clip0_11041_103891)">
<path d="M0 9.59404H16.4737V67.8584H0V9.59404ZM83.6036 9.59404V67.8584H70.0423L44.3335 36.8112V67.8584H28.1929V9.59404H41.7542L67.4631 40.6387V9.59533H83.6036V9.59404ZM115.69 69.0244C110.976 69.0244 106.4 68.4414 101.962 67.2766C97.5238 66.1106 93.9193 64.5572 91.1471 62.6152L96.5539 50.4622C99.1614 52.1829 102.185 53.5703 105.623 54.6243C109.062 55.6796 112.445 56.206 115.773 56.206C122.097 56.206 125.258 54.623 125.258 51.4609C125.258 49.7968 124.343 48.5755 122.512 47.7994C120.737 46.9668 117.853 46.1058 113.86 45.219C109.478 44.2757 105.817 43.2757 102.878 42.2216C99.9595 41.1271 97.3579 39.3256 95.3061 36.9785C93.1989 34.5924 92.1454 31.3737 92.1454 27.3222C92.1454 23.7715 93.1153 20.581 95.0565 17.7509C96.999 14.8655 99.8818 12.5901 103.709 10.9261C107.593 9.26071 112.334 8.42932 117.937 8.42932C121.764 8.42932 125.535 8.87204 129.252 9.76006C132.967 10.5927 136.24 11.8411 139.068 13.5052L133.994 25.7418C128.448 22.7444 123.067 21.2464 117.853 21.2464C114.58 21.2464 112.195 21.7457 110.698 22.7444C109.201 23.6878 108.452 24.9362 108.452 26.4896C108.452 28.0442 109.339 29.209 111.115 29.9863C112.89 30.7636 115.746 31.568 119.684 32.4007C124.122 33.344 127.781 34.3698 130.666 35.4804C133.605 36.5345 136.129 38.2539 138.237 40.6412C140.4 42.9707 141.482 46.1624 141.482 50.2125C141.482 53.708 140.51 56.8714 138.569 59.7015C136.628 62.5315 133.717 64.8069 129.833 66.5263C125.951 68.1917 121.236 69.0231 115.69 69.0231V69.0244ZM160.675 22.6621H142.787V9.59404H194.953V22.6621H177.149V67.8584H160.675V22.6621V22.6621ZM237.185 56.538H212.558L207.983 67.8584H191.177L216.884 9.59404H233.109L258.9 67.8584H241.761L237.185 56.538V56.538ZM232.36 44.3864L224.872 25.7418L217.384 44.3864H232.36Z" fill="white"/>
<path d="M301.354 71.7193C301.354 73.8519 303.087 75.6009 305.207 75.3834C324 73.4542 338.66 57.5689 338.66 38.2578C338.66 18.9466 324 3.06135 305.207 1.13216C303.087 0.913374 301.354 2.66367 301.354 4.7962V15.0921C301.354 17.2246 303.098 18.9131 305.188 19.334C314.008 21.1139 320.65 28.9091 320.65 38.2578C320.65 47.6064 314.008 55.4017 305.188 57.1816C303.098 57.6024 301.354 59.2922 301.354 61.4235V71.7193ZM289.776 8.08831C289.776 5.46286 287.207 3.61218 284.854 4.77432C272.527 10.8656 264.048 23.5707 264.048 38.2578C264.048 52.9448 272.527 65.6499 284.854 71.7412C287.207 72.9033 289.776 71.0527 289.776 68.4272V8.08959V8.08831Z" fill="#3F75FF"/>
<path d="M389.936 56.5379H365.309L360.733 67.8582H343.926L369.635 9.59387H385.859L411.65 67.8582H394.512L389.936 56.5379ZM385.111 44.3862L377.622 25.7404L370.134 44.3862H385.111V44.3862ZM442.944 9.59387C448.213 9.59387 452.79 10.4819 456.672 12.2579C460.555 13.9773 463.549 16.4741 465.658 19.7482C467.765 22.9656 468.818 26.7674 468.818 31.1508C468.818 35.5356 467.765 39.3361 465.658 42.5535C463.549 45.7736 460.555 48.2703 456.672 50.0463C452.79 51.7658 448.213 52.6267 442.944 52.6267H432.794V67.8582H416.32V9.59387H442.944V9.59387ZM441.945 39.6411C445.329 39.6411 447.881 38.9204 449.599 37.4777C451.319 35.9796 452.179 33.8702 452.179 31.1508C452.179 28.4327 451.319 26.3247 449.599 24.8253C447.881 23.3273 445.329 22.5782 441.945 22.5782H432.794V39.6411H441.945ZM503.474 9.59387C508.743 9.59387 513.319 10.4819 517.201 12.2579C521.084 13.9773 524.08 16.4741 526.187 19.7482C528.295 22.9656 529.349 26.7674 529.349 31.1508C529.349 35.5356 528.295 39.3361 526.187 42.5535C524.08 45.7736 521.084 48.2703 517.201 50.0463C513.319 51.7658 508.743 52.6267 503.474 52.6267H493.324V67.8582H476.851V9.59387H503.474V9.59387ZM502.476 39.6411C505.859 39.6411 508.41 38.9204 510.13 37.4777C511.85 35.9796 512.709 33.8702 512.709 31.1508C512.709 28.4327 511.85 26.3247 510.13 24.8253C508.41 23.3273 505.859 22.5782 502.476 22.5782H493.324V39.6411H502.476Z" fill="white"/>
</g>
<defs>
<clipPath id="clip0_11041_103891">
<rect width="530" height="74.645" fill="white" transform="translate(0 0.935059)"/>
</clipPath>
</defs>
</svg>
